  0
SECTION
  2
HEADER
  9
$ACADVER
  1
AC1002
  9
$INSBASE
 10
0.0
 20
0.0
  9
$EXTMIN
 10
-40.7814
 20
-132.6503
  9
$EXTMAX
 10
47.4186
 20
-26.4132
  9
$LIMMIN
 10
0.0
 20
0.0
  9
$LIMMAX
 10
12.0
 20
9.0
  9
$ORTHOMODE
 70
     0
  9
$REGENMODE
 70
     1
  9
$FILLMODE
 70
     1
  9
$QTEXTMODE
 70
     0
  9
$DRAGMODE
 70
     2
  9
$LTSCALE
 40
1.0
  9
$OSMODE
 70
    37
  9
$ATTMODE
 70
     1
  9
$TEXTSIZE
 40
0.2
  9
$TRACEWID
 40
0.05
  9
$TEXTSTYLE
  7
STANDARD
  9
$CLAYER
  8
0
  9
$CELTYPE
  6
BYLAYER
  9
$CECOLOR
 62
   256
  9
$DIMSCALE
 40
1.0
  9
$DIMASZ
 40
0.18
  9
$DIMEXO
 40
0.0625
  9
$DIMDLI
 40
0.38
  9
$DIMRND
 40
0.0
  9
$DIMDLE
 40
0.0
  9
$DIMEXE
 40
0.18
  9
$DIMTP
 40
0.0
  9
$DIMTM
 40
0.0
  9
$DIMTXT
 40
0.18
  9
$DIMCEN
 40
0.09
  9
$DIMTSZ
 40
0.0
  9
$DIMTOL
 70
     0
  9
$DIMLIM
 70
     0
  9
$DIMTIH
 70
     1
  9
$DIMTOH
 70
     1
  9
$DIMSE1
 70
     0
  9
$DIMSE2
 70
     0
  9
$DIMTAD
 70
     0
  9
$DIMZIN
 70
     0
  9
$DIMBLK
  1

  9
$LUNITS
 70
     2
  9
$LUPREC
 70
     4
  9
$SKETCHINC
 40
0.1
  9
$FILLETRAD
 40
0.5
  9
$AUNITS
 70
     0
  9
$AUPREC
 70
     0
  9
$MENU
  1
.
  9
$ELEVATION
 40
0.0
  9
$THICKNESS
 40
0.0
  9
$LIMCHECK
 70
     0
  9
$CHAMFERA
 40
0.5
  9
$CHAMFERB
 40
0.5
  9
$SKPOLY
 70
     0
  9
$TDCREATE
 40
2458414.676173565
  9
$TDUPDATE
 40
2458414.676173577
  9
$TDINDWG
 40
0.0000000116
  9
$TDUSRTIMER
 40
0.0000000116
  9
$USRTIMER
 70
     1
  9
$ANGBASE
 50
0.0
  9
$ANGDIR
 70
     0
  9
$PDMODE
 70
     0
  9
$PDSIZE
 40
0.0
  9
$PLINEWID
 40
0.0
  9
$COORDS
 70
     1
  9
$SURFTAB1
 70
     6
  9
$SURFTAB2
 70
     6
  9
$SURFTYPE
 70
     6
  9
$SURFU
 70
     6
  9
$SURFV
 70
     6
  9
$UCSNAME
  2

  9
$UCSORG
 10
0.0
 20
0.0
 30
0.0
  9
$UCSXDIR
 10
1.0
 20
0.0
 30
0.0
  9
$UCSYDIR
 10
0.0
 20
1.0
 30
0.0
  9
$USERI1
 70
     0
  9
$USERI2
 70
     0
  9
$USERI3
 70
     0
  9
$USERI4
 70
     0
  9
$USERI5
 70
     0
  9
$USERR1
 40
0.0
  9
$USERR2
 40
0.0
  9
$USERR3
 40
0.0
  9
$USERR4
 40
0.0
  9
$USERR5
 40
0.0
  0
ENDSEC
  0
SECTION
  2
TABLES
  0
TABLE
  2
LTYPE
 70
     1
  0
LTYPE
  2
CONTINUOUS
 70
     0
  3
Solid line
 72
    65
 73
     0
 40
0.0
  0
ENDTAB
  0
TABLE
  2
LAYER
 70
     2
  0
LAYER
  2
0
 70
     0
 62
     7
  6
CONTINUOUS
  0
LAYER
  2
CAPA_1
 70
     0
 62
     7
  6
CONTINUOUS
  0
ENDTAB
  0
TABLE
  2
STYLE
 70
     1
  0
STYLE
  2
STANDARD
 70
     0
 40
0.0
 41
1.0
 50
0.0
 71
     0
 42
0.2
  3
txt
  4

  0
ENDTAB
  0
TABLE
  2
VIEW
 70
     0
  0
ENDTAB
  0
ENDSEC
  0
SECTION
  2
BLOCKS
  0
ENDSEC
  0
SECTION
  2
ENTITIES
  0
POLYLINE
  8
CAPA_1
 66
     1
 70
     1
  0
VERTEX
  8
CAPA_1
 10
-40.6814
 20
-132.5502
  0
VERTEX
  8
CAPA_1
 10
47.3186
 20
-132.5502
  0
VERTEX
  8
CAPA_1
 10
47.3186
 20
-26.5132
  0
VERTEX
  8
CAPA_1
 10
-40.6814
 20
-26.5132
  0
VERTEX
  8
CAPA_1
 10
-40.6814
 20
-132.5502
  0
SEQEND
  8
CAPA_1
  0
POLYLINE
  8
CAPA_1
 66
     1
 70
     1
  0
VERTEX
  8
CAPA_1
 10
-36.8266
 20
-113.2878
  0
VERTEX
  8
CAPA_1
 10
43.2894
 20
-113.2878
  0
VERTEX
  8
CAPA_1
 10
43.2894
 20
-32.576
  0
VERTEX
  8
CAPA_1
 10
-36.8266
 20
-32.576
  0
VERTEX
  8
CAPA_1
 10
-36.8266
 20
-113.2878
  0
SEQEND
  8
CAPA_1
  0
POLYLINE
  8
CAPA_1
 62
     1
 66
     1
 70
     1
  0
VERTEX
  8
CAPA_1
 62
     1
 10
-14.7346
 20
-40.5857
  0
VERTEX
  8
CAPA_1
 62
     1
 10
-15.90514193209677
 20
-40.70098831758062
  0
VERTEX
  8
CAPA_1
 62
     1
 10
-17.03070059419054
 20
-41.04242280493229
  0
VERTEX
  8
CAPA_1
 62
     1
 10
-18.06802139811762
 20
-41.59688232618473
  0
VERTEX
  8
CAPA_1
 62
     1
 10
-18.97724068711928
 20
-42.34305931288072
  0
VERTEX
  8
CAPA_1
 62
     1
 10
-19.72341767381527
 20
-43.25227860188239
  0
VERTEX
  8
CAPA_1
 62
     1
 10
-20.27787719506772
 20
-44.28959940580946
  0
VERTEX
  8
CAPA_1
 62
     1
 10
-20.61931168241938
 20
-45.41515806790323
  0
VERTEX
  8
CAPA_1
 62
     1
 10
-20.7346
 20
-46.5857
  0
VERTEX
  8
CAPA_1
 62
     1
 10
-20.61931168241938
 20
-47.75624193209677
  0
VERTEX
  8
CAPA_1
 62
     1
 10
-20.27787719506772
 20
-48.88180059419054
  0
VERTEX
  8
CAPA_1
 62
     1
 10
-19.72341767381527
 20
-49.91912139811762
  0
VERTEX
  8
CAPA_1
 62
     1
 10
-18.97724068711928
 20
-50.82834068711929
  0
VERTEX
  8
CAPA_1
 62
     1
 10
-18.06802139811762
 20
-51.57451767381527
  0
VERTEX
  8
CAPA_1
 62
     1
 10
-17.03070059419054
 20
-52.12897719506773
  0
VERTEX
  8
CAPA_1
 62
     1
 10
-15.90514193209677
 20
-52.47041168241939
  0
VERTEX
  8
CAPA_1
 62
     1
 10
-14.7346
 20
-52.5857
  0
VERTEX
  8
CAPA_1
 62
     1
 10
-13.56405806790323
 20
-52.47041168241938
  0
VERTEX
  8
CAPA_1
 62
     1
 10
-12.43849940580946
 20
-52.12897719506772
  0
VERTEX
  8
CAPA_1
 62
     1
 10
-11.40117860188238
 20
-51.57451767381527
  0
VERTEX
  8
CAPA_1
 62
     1
 10
-10.49195931288071
 20
-50.82834068711928
  0
VERTEX
  8
CAPA_1
 62
     1
 10
-9.745782326184724
 20
-49.91912139811761
  0
VERTEX
  8
CAPA_1
 62
     1
 10
-9.191322804932275
 20
-48.88180059419053
  0
VERTEX
  8
CAPA_1
 62
     1
 10
-8.849888317580614
 20
-47.75624193209676
  0
VERTEX
  8
CAPA_1
 62
     1
 10
-8.7346
 20
-46.58569999999999
  0
VERTEX
  8
CAPA_1
 62
     1
 10
-8.849888317580621
 20
-45.41515806790322
  0
VERTEX
  8
CAPA_1
 62
     1
 10
-9.191322804932287
 20
-44.28959940580945
  0
VERTEX
  8
CAPA_1
 62
     1
 10
-9.74578232618474
 20
-43.25227860188237
  0
VERTEX
  8
CAPA_1
 62
     1
 10
-10.49195931288073
 20
-42.3430593128807
  0
VERTEX
  8
CAPA_1
 62
     1
 10
-11.40117860188241
 20
-41.59688232618472
  0
VERTEX
  8
CAPA_1
 62
     1
 10
-12.43849940580948
 20
-41.04242280493227
  0
VERTEX
  8
CAPA_1
 62
     1
 10
-13.56405806790325
 20
-40.70098831758062
  0
SEQEND
  8
CAPA_1
 62
     1
  0
POLYLINE
  8
CAPA_1
 66
     1
 70
     1
  0
VERTEX
  8
CAPA_1
 10
21.8314
 20
-40.5857
  0
VERTEX
  8
CAPA_1
 10
20.66085806790323
 20
-40.70098831758062
  0
VERTEX
  8
CAPA_1
 10
19.53529940580946
 20
-41.04242280493229
  0
VERTEX
  8
CAPA_1
 10
18.49797860188239
 20
-41.59688232618473
  0
VERTEX
  8
CAPA_1
 10
17.58875931288071
 20
-42.34305931288072
  0
VERTEX
  8
CAPA_1
 10
16.84258232618473
 20
-43.25227860188239
  0
VERTEX
  8
CAPA_1
 10
16.28812280493228
 20
-44.28959940580946
  0
VERTEX
  8
CAPA_1
 10
15.94668831758062
 20
-45.41515806790323
  0
VERTEX
  8
CAPA_1
 10
15.8314
 20
-46.5857
  0
VERTEX
  8
CAPA_1
 10
15.94668831758062
 20
-47.75624193209677
  0
VERTEX
  8
CAPA_1
 10
16.28812280493228
 20
-48.88180059419054
  0
VERTEX
  8
CAPA_1
 10
16.84258232618473
 20
-49.91912139811762
  0
VERTEX
  8
CAPA_1
 10
17.58875931288071
 20
-50.82834068711929
  0
VERTEX
  8
CAPA_1
 10
18.49797860188239
 20
-51.57451767381527
  0
VERTEX
  8
CAPA_1
 10
19.53529940580946
 20
-52.12897719506773
  0
VERTEX
  8
CAPA_1
 10
20.66085806790323
 20
-52.47041168241939
  0
VERTEX
  8
CAPA_1
 10
21.8314
 20
-52.5857
  0
VERTEX
  8
CAPA_1
 10
23.00194193209677
 20
-52.47041168241938
  0
VERTEX
  8
CAPA_1
 10
24.12750059419054
 20
-52.12897719506772
  0
VERTEX
  8
CAPA_1
 10
25.16482139811762
 20
-51.57451767381527
  0
VERTEX
  8
CAPA_1
 10
26.07404068711929
 20
-50.82834068711928
  0
VERTEX
  8
CAPA_1
 10
26.82021767381528
 20
-49.91912139811761
  0
VERTEX
  8
CAPA_1
 10
27.37467719506773
 20
-48.88180059419053
  0
VERTEX
  8
CAPA_1
 10
27.71611168241938
 20
-47.75624193209676
  0
VERTEX
  8
CAPA_1
 10
27.8314
 20
-46.58569999999999
  0
VERTEX
  8
CAPA_1
 10
27.71611168241938
 20
-45.41515806790322
  0
VERTEX
  8
CAPA_1
 10
27.37467719506771
 20
-44.28959940580945
  0
VERTEX
  8
CAPA_1
 10
26.82021767381526
 20
-43.25227860188237
  0
VERTEX
  8
CAPA_1
 10
26.07404068711927
 20
-42.3430593128807
  0
VERTEX
  8
CAPA_1
 10
25.1648213981176
 20
-41.59688232618472
  0
VERTEX
  8
CAPA_1
 10
24.12750059419051
 20
-41.04242280493227
  0
VERTEX
  8
CAPA_1
 10
23.00194193209675
 20
-40.70098831758062
  0
SEQEND
  8
CAPA_1
  0
POLYLINE
  8
CAPA_1
 66
     1
 70
     1
  0
VERTEX
  8
CAPA_1
 10
-15.5332
 20
-68.8967
  0
VERTEX
  8
CAPA_1
 10
-15.5332
 20
-64.748
  0
VERTEX
  8
CAPA_1
 10
-19.6607
 20
-64.748
  0
VERTEX
  8
CAPA_1
 10
-19.6607
 20
-63.0123
  0
VERTEX
  8
CAPA_1
 10
-15.5332
 20
-63.0123
  0
VERTEX
  8
CAPA_1
 10
-15.5332
 20
-58.8848
  0
VERTEX
  8
CAPA_1
 10
-13.7763
 20
-58.8848
  0
VERTEX
  8
CAPA_1
 10
-13.7763
 20
-63.0123
  0
VERTEX
  8
CAPA_1
 10
-9.6488
 20
-63.0123
  0
VERTEX
  8
CAPA_1
 10
-9.6488
 20
-64.748
  0
VERTEX
  8
CAPA_1
 10
-13.7763
 20
-64.748
  0
VERTEX
  8
CAPA_1
 10
-13.7763
 20
-68.8967
  0
VERTEX
  8
CAPA_1
 10
-15.5332
 20
-68.8967
  0
SEQEND
  8
CAPA_1
  0
POLYLINE
  8
CAPA_1
 66
     1
 70
     1
  0
VERTEX
  8
CAPA_1
 10
18.8735
 20
-64.875
  0
VERTEX
  8
CAPA_1
 10
18.8735
 20
-63.0123
  0
VERTEX
  8
CAPA_1
 10
24.6308
 20
-63.0123
  0
VERTEX
  8
CAPA_1
 10
24.6308
 20
-64.875
  0
VERTEX
  8
CAPA_1
 10
18.8735
 20
-64.875
  0
SEQEND
  8
CAPA_1
  0
ENDSEC
  0
EOF
