G04 EAGLE Gerber RS-274X export*
G75*
%MOMM*%
%FSLAX34Y34*%
%LPD*%
%INSilk bottom*%
%IPPOS*%
%AMOC8*
5,1,8,0,0,1.08239X$1,22.5*%
G01*
%ADD10C,0.001000*%
%ADD11C,0.508000*%
%ADD12C,0.152400*%
%ADD13C,0.000000*%


D10*
X12286Y7998D02*
X892286Y7998D01*
X892286Y1068368D01*
X12286Y1068368D01*
X12286Y7998D01*
D11*
X600000Y490000D02*
X660000Y490000D01*
X630000Y520000D02*
X630000Y460000D01*
X300000Y480000D02*
X240000Y480000D01*
D12*
X353819Y279793D02*
X359238Y279793D01*
X353819Y279793D02*
X353701Y279791D01*
X353583Y279785D01*
X353465Y279776D01*
X353348Y279762D01*
X353231Y279745D01*
X353114Y279724D01*
X352999Y279699D01*
X352884Y279670D01*
X352770Y279637D01*
X352658Y279601D01*
X352547Y279561D01*
X352437Y279518D01*
X352328Y279471D01*
X352221Y279421D01*
X352116Y279366D01*
X352013Y279309D01*
X351912Y279248D01*
X351812Y279184D01*
X351715Y279117D01*
X351620Y279047D01*
X351528Y278973D01*
X351437Y278897D01*
X351350Y278817D01*
X351265Y278735D01*
X351183Y278650D01*
X351103Y278563D01*
X351027Y278472D01*
X350953Y278380D01*
X350883Y278285D01*
X350816Y278188D01*
X350752Y278088D01*
X350691Y277987D01*
X350634Y277884D01*
X350579Y277779D01*
X350529Y277672D01*
X350482Y277563D01*
X350439Y277453D01*
X350399Y277342D01*
X350363Y277230D01*
X350330Y277116D01*
X350301Y277001D01*
X350276Y276886D01*
X350255Y276769D01*
X350238Y276652D01*
X350224Y276535D01*
X350215Y276417D01*
X350209Y276299D01*
X350207Y276181D01*
X350207Y275278D01*
X350206Y275278D02*
X350208Y275145D01*
X350214Y275013D01*
X350224Y274881D01*
X350237Y274749D01*
X350255Y274617D01*
X350276Y274487D01*
X350301Y274356D01*
X350330Y274227D01*
X350363Y274099D01*
X350399Y273971D01*
X350439Y273845D01*
X350483Y273720D01*
X350531Y273596D01*
X350582Y273474D01*
X350637Y273353D01*
X350695Y273234D01*
X350757Y273116D01*
X350822Y273001D01*
X350891Y272887D01*
X350962Y272776D01*
X351038Y272667D01*
X351116Y272560D01*
X351197Y272455D01*
X351282Y272353D01*
X351369Y272253D01*
X351459Y272156D01*
X351552Y272061D01*
X351648Y271970D01*
X351746Y271881D01*
X351847Y271795D01*
X351951Y271712D01*
X352057Y271632D01*
X352165Y271556D01*
X352275Y271482D01*
X352388Y271412D01*
X352502Y271345D01*
X352619Y271282D01*
X352737Y271222D01*
X352857Y271165D01*
X352979Y271112D01*
X353102Y271063D01*
X353226Y271017D01*
X353352Y270975D01*
X353479Y270937D01*
X353607Y270902D01*
X353736Y270871D01*
X353865Y270844D01*
X353996Y270821D01*
X354127Y270801D01*
X354259Y270786D01*
X354391Y270774D01*
X354523Y270766D01*
X354656Y270762D01*
X354788Y270762D01*
X354921Y270766D01*
X355053Y270774D01*
X355185Y270786D01*
X355317Y270801D01*
X355448Y270821D01*
X355579Y270844D01*
X355708Y270871D01*
X355837Y270902D01*
X355965Y270937D01*
X356092Y270975D01*
X356218Y271017D01*
X356342Y271063D01*
X356465Y271112D01*
X356587Y271165D01*
X356707Y271222D01*
X356825Y271282D01*
X356942Y271345D01*
X357056Y271412D01*
X357169Y271482D01*
X357279Y271556D01*
X357387Y271632D01*
X357493Y271712D01*
X357597Y271795D01*
X357698Y271881D01*
X357796Y271970D01*
X357892Y272061D01*
X357985Y272156D01*
X358075Y272253D01*
X358162Y272353D01*
X358247Y272455D01*
X358328Y272560D01*
X358406Y272667D01*
X358482Y272776D01*
X358553Y272887D01*
X358622Y273001D01*
X358687Y273116D01*
X358749Y273234D01*
X358807Y273353D01*
X358862Y273474D01*
X358913Y273596D01*
X358961Y273720D01*
X359005Y273845D01*
X359045Y273971D01*
X359081Y274099D01*
X359114Y274227D01*
X359143Y274356D01*
X359168Y274487D01*
X359189Y274617D01*
X359207Y274749D01*
X359220Y274881D01*
X359230Y275013D01*
X359236Y275145D01*
X359238Y275278D01*
X359238Y279793D01*
X359236Y279968D01*
X359230Y280142D01*
X359219Y280316D01*
X359204Y280490D01*
X359185Y280664D01*
X359162Y280837D01*
X359135Y281009D01*
X359103Y281181D01*
X359068Y281352D01*
X359028Y281522D01*
X358984Y281691D01*
X358936Y281859D01*
X358884Y282026D01*
X358828Y282191D01*
X358768Y282355D01*
X358705Y282518D01*
X358637Y282678D01*
X358565Y282838D01*
X358490Y282995D01*
X358410Y283151D01*
X358327Y283304D01*
X358241Y283456D01*
X358150Y283605D01*
X358056Y283752D01*
X357959Y283897D01*
X357858Y284040D01*
X357754Y284180D01*
X357646Y284317D01*
X357535Y284452D01*
X357421Y284584D01*
X357304Y284713D01*
X357183Y284840D01*
X357060Y284963D01*
X356933Y285084D01*
X356804Y285201D01*
X356672Y285315D01*
X356537Y285426D01*
X356400Y285534D01*
X356260Y285638D01*
X356117Y285739D01*
X355972Y285836D01*
X355825Y285930D01*
X355676Y286021D01*
X355524Y286107D01*
X355371Y286190D01*
X355215Y286270D01*
X355058Y286345D01*
X354898Y286417D01*
X354738Y286485D01*
X354575Y286548D01*
X354411Y286608D01*
X354246Y286664D01*
X354079Y286716D01*
X353911Y286764D01*
X353742Y286808D01*
X353572Y286848D01*
X353401Y286883D01*
X353229Y286915D01*
X353057Y286942D01*
X352884Y286965D01*
X352710Y286984D01*
X352536Y286999D01*
X352362Y287010D01*
X352188Y287016D01*
X352013Y287018D01*
X344267Y281599D02*
X340654Y270762D01*
X337042Y281599D01*
X330963Y277084D02*
X320126Y277084D01*
X325544Y271665D02*
X325544Y282502D01*
X420207Y279793D02*
X422916Y279793D01*
X420207Y279793D02*
X420207Y270762D01*
X425626Y270762D01*
X425744Y270764D01*
X425862Y270770D01*
X425980Y270779D01*
X426097Y270793D01*
X426214Y270810D01*
X426331Y270831D01*
X426446Y270856D01*
X426561Y270885D01*
X426675Y270918D01*
X426787Y270954D01*
X426898Y270994D01*
X427008Y271037D01*
X427117Y271084D01*
X427224Y271134D01*
X427329Y271189D01*
X427432Y271246D01*
X427533Y271307D01*
X427633Y271371D01*
X427730Y271438D01*
X427825Y271508D01*
X427917Y271582D01*
X428008Y271658D01*
X428095Y271738D01*
X428180Y271820D01*
X428262Y271905D01*
X428342Y271992D01*
X428418Y272083D01*
X428492Y272175D01*
X428562Y272270D01*
X428629Y272367D01*
X428693Y272467D01*
X428754Y272568D01*
X428811Y272671D01*
X428866Y272776D01*
X428916Y272883D01*
X428963Y272992D01*
X429006Y273102D01*
X429046Y273213D01*
X429082Y273325D01*
X429115Y273439D01*
X429144Y273554D01*
X429169Y273669D01*
X429190Y273786D01*
X429207Y273903D01*
X429221Y274020D01*
X429230Y274138D01*
X429236Y274256D01*
X429238Y274374D01*
X429238Y283406D01*
X429236Y283524D01*
X429230Y283642D01*
X429221Y283760D01*
X429207Y283877D01*
X429190Y283994D01*
X429169Y284111D01*
X429144Y284226D01*
X429115Y284341D01*
X429082Y284455D01*
X429046Y284567D01*
X429006Y284678D01*
X428963Y284788D01*
X428916Y284897D01*
X428866Y285004D01*
X428811Y285109D01*
X428754Y285212D01*
X428693Y285313D01*
X428629Y285413D01*
X428562Y285510D01*
X428492Y285605D01*
X428418Y285697D01*
X428342Y285788D01*
X428262Y285875D01*
X428180Y285960D01*
X428095Y286042D01*
X428008Y286122D01*
X427917Y286198D01*
X427825Y286272D01*
X427730Y286342D01*
X427633Y286409D01*
X427533Y286473D01*
X427432Y286534D01*
X427329Y286591D01*
X427224Y286646D01*
X427117Y286696D01*
X427008Y286743D01*
X426898Y286786D01*
X426787Y286826D01*
X426675Y286862D01*
X426561Y286895D01*
X426446Y286924D01*
X426331Y286949D01*
X426214Y286970D01*
X426097Y286987D01*
X425980Y287001D01*
X425862Y287010D01*
X425744Y287016D01*
X425626Y287018D01*
X420207Y287018D01*
X412565Y287018D02*
X412565Y270762D01*
X403534Y270762D02*
X412565Y287018D01*
X403534Y287018D02*
X403534Y270762D01*
X395891Y270762D02*
X395891Y287018D01*
X391376Y287018D01*
X391245Y287016D01*
X391113Y287010D01*
X390982Y287001D01*
X390852Y286987D01*
X390721Y286970D01*
X390592Y286949D01*
X390463Y286925D01*
X390335Y286896D01*
X390207Y286864D01*
X390081Y286828D01*
X389956Y286789D01*
X389831Y286746D01*
X389709Y286699D01*
X389587Y286649D01*
X389467Y286595D01*
X389349Y286538D01*
X389233Y286477D01*
X389118Y286413D01*
X389005Y286346D01*
X388894Y286275D01*
X388786Y286201D01*
X388679Y286124D01*
X388575Y286044D01*
X388473Y285961D01*
X388374Y285876D01*
X388277Y285787D01*
X388183Y285695D01*
X388091Y285601D01*
X388002Y285504D01*
X387917Y285405D01*
X387834Y285303D01*
X387754Y285199D01*
X387677Y285092D01*
X387603Y284984D01*
X387532Y284873D01*
X387465Y284760D01*
X387401Y284645D01*
X387340Y284529D01*
X387283Y284411D01*
X387229Y284291D01*
X387179Y284169D01*
X387132Y284047D01*
X387089Y283922D01*
X387050Y283797D01*
X387014Y283671D01*
X386982Y283543D01*
X386953Y283415D01*
X386929Y283286D01*
X386908Y283157D01*
X386891Y283026D01*
X386877Y282896D01*
X386868Y282765D01*
X386862Y282633D01*
X386860Y282502D01*
X386860Y275278D01*
X386862Y275147D01*
X386868Y275015D01*
X386877Y274884D01*
X386891Y274754D01*
X386908Y274623D01*
X386929Y274494D01*
X386953Y274365D01*
X386982Y274237D01*
X387014Y274109D01*
X387050Y273983D01*
X387089Y273858D01*
X387132Y273733D01*
X387179Y273611D01*
X387229Y273489D01*
X387283Y273369D01*
X387340Y273251D01*
X387401Y273135D01*
X387465Y273020D01*
X387532Y272907D01*
X387603Y272796D01*
X387677Y272688D01*
X387754Y272581D01*
X387834Y272477D01*
X387917Y272375D01*
X388002Y272276D01*
X388091Y272179D01*
X388183Y272085D01*
X388277Y271993D01*
X388374Y271904D01*
X388473Y271819D01*
X388575Y271736D01*
X388679Y271656D01*
X388786Y271579D01*
X388894Y271505D01*
X389005Y271434D01*
X389118Y271367D01*
X389233Y271303D01*
X389349Y271242D01*
X389467Y271185D01*
X389587Y271131D01*
X389709Y271081D01*
X389831Y271034D01*
X389956Y270991D01*
X390081Y270952D01*
X390207Y270916D01*
X390335Y270884D01*
X390463Y270855D01*
X390592Y270831D01*
X390721Y270810D01*
X390852Y270793D01*
X390982Y270779D01*
X391113Y270770D01*
X391245Y270764D01*
X391376Y270762D01*
X395891Y270762D01*
X673819Y270762D02*
X679238Y270762D01*
X673819Y270762D02*
X673701Y270764D01*
X673583Y270770D01*
X673465Y270779D01*
X673348Y270793D01*
X673231Y270810D01*
X673114Y270831D01*
X672999Y270856D01*
X672884Y270885D01*
X672770Y270918D01*
X672658Y270954D01*
X672547Y270994D01*
X672437Y271037D01*
X672328Y271084D01*
X672221Y271134D01*
X672116Y271189D01*
X672013Y271246D01*
X671912Y271307D01*
X671812Y271371D01*
X671715Y271438D01*
X671620Y271508D01*
X671528Y271582D01*
X671437Y271658D01*
X671350Y271738D01*
X671265Y271820D01*
X671183Y271905D01*
X671103Y271992D01*
X671027Y272083D01*
X670953Y272175D01*
X670883Y272270D01*
X670816Y272367D01*
X670752Y272467D01*
X670691Y272568D01*
X670634Y272671D01*
X670579Y272776D01*
X670529Y272883D01*
X670482Y272992D01*
X670439Y273102D01*
X670399Y273213D01*
X670363Y273325D01*
X670330Y273439D01*
X670301Y273554D01*
X670276Y273669D01*
X670255Y273786D01*
X670238Y273903D01*
X670224Y274020D01*
X670215Y274138D01*
X670209Y274256D01*
X670207Y274374D01*
X670207Y276181D01*
X670209Y276299D01*
X670215Y276417D01*
X670224Y276535D01*
X670238Y276652D01*
X670255Y276769D01*
X670276Y276886D01*
X670301Y277001D01*
X670330Y277116D01*
X670363Y277230D01*
X670399Y277342D01*
X670439Y277453D01*
X670482Y277563D01*
X670529Y277672D01*
X670579Y277779D01*
X670634Y277884D01*
X670691Y277987D01*
X670752Y278088D01*
X670816Y278188D01*
X670883Y278285D01*
X670953Y278380D01*
X671027Y278472D01*
X671103Y278563D01*
X671183Y278650D01*
X671265Y278735D01*
X671350Y278817D01*
X671437Y278897D01*
X671528Y278973D01*
X671620Y279047D01*
X671715Y279117D01*
X671812Y279184D01*
X671912Y279248D01*
X672013Y279309D01*
X672116Y279366D01*
X672221Y279421D01*
X672328Y279471D01*
X672437Y279518D01*
X672547Y279561D01*
X672658Y279601D01*
X672770Y279637D01*
X672884Y279670D01*
X672999Y279699D01*
X673114Y279724D01*
X673231Y279745D01*
X673348Y279762D01*
X673465Y279776D01*
X673583Y279785D01*
X673701Y279791D01*
X673819Y279793D01*
X679238Y279793D01*
X679238Y287018D01*
X670207Y287018D01*
X664267Y281599D02*
X660654Y270762D01*
X657042Y281599D01*
X650963Y277084D02*
X640126Y277084D01*
X645544Y271665D02*
X645544Y282502D01*
X740207Y279793D02*
X742916Y279793D01*
X740207Y279793D02*
X740207Y270762D01*
X745626Y270762D01*
X745744Y270764D01*
X745862Y270770D01*
X745980Y270779D01*
X746097Y270793D01*
X746214Y270810D01*
X746331Y270831D01*
X746446Y270856D01*
X746561Y270885D01*
X746675Y270918D01*
X746787Y270954D01*
X746898Y270994D01*
X747008Y271037D01*
X747117Y271084D01*
X747224Y271134D01*
X747329Y271189D01*
X747432Y271246D01*
X747533Y271307D01*
X747633Y271371D01*
X747730Y271438D01*
X747825Y271508D01*
X747917Y271582D01*
X748008Y271658D01*
X748095Y271738D01*
X748180Y271820D01*
X748262Y271905D01*
X748342Y271992D01*
X748418Y272083D01*
X748492Y272175D01*
X748562Y272270D01*
X748629Y272367D01*
X748693Y272467D01*
X748754Y272568D01*
X748811Y272671D01*
X748866Y272776D01*
X748916Y272883D01*
X748963Y272992D01*
X749006Y273102D01*
X749046Y273213D01*
X749082Y273325D01*
X749115Y273439D01*
X749144Y273554D01*
X749169Y273669D01*
X749190Y273786D01*
X749207Y273903D01*
X749221Y274020D01*
X749230Y274138D01*
X749236Y274256D01*
X749238Y274374D01*
X749238Y283406D01*
X749236Y283524D01*
X749230Y283642D01*
X749221Y283760D01*
X749207Y283877D01*
X749190Y283994D01*
X749169Y284111D01*
X749144Y284226D01*
X749115Y284341D01*
X749082Y284455D01*
X749046Y284567D01*
X749006Y284678D01*
X748963Y284788D01*
X748916Y284897D01*
X748866Y285004D01*
X748811Y285109D01*
X748754Y285212D01*
X748693Y285313D01*
X748629Y285413D01*
X748562Y285510D01*
X748492Y285605D01*
X748418Y285697D01*
X748342Y285788D01*
X748262Y285875D01*
X748180Y285960D01*
X748095Y286042D01*
X748008Y286122D01*
X747917Y286198D01*
X747825Y286272D01*
X747730Y286342D01*
X747633Y286409D01*
X747533Y286473D01*
X747432Y286534D01*
X747329Y286591D01*
X747224Y286646D01*
X747117Y286696D01*
X747008Y286743D01*
X746898Y286786D01*
X746787Y286826D01*
X746675Y286862D01*
X746561Y286895D01*
X746446Y286924D01*
X746331Y286949D01*
X746214Y286970D01*
X746097Y286987D01*
X745980Y287001D01*
X745862Y287010D01*
X745744Y287016D01*
X745626Y287018D01*
X740207Y287018D01*
X732565Y287018D02*
X732565Y270762D01*
X723534Y270762D02*
X732565Y287018D01*
X723534Y287018D02*
X723534Y270762D01*
X715891Y270762D02*
X715891Y287018D01*
X711376Y287018D01*
X711245Y287016D01*
X711113Y287010D01*
X710982Y287001D01*
X710852Y286987D01*
X710721Y286970D01*
X710592Y286949D01*
X710463Y286925D01*
X710335Y286896D01*
X710207Y286864D01*
X710081Y286828D01*
X709956Y286789D01*
X709831Y286746D01*
X709709Y286699D01*
X709587Y286649D01*
X709467Y286595D01*
X709349Y286538D01*
X709233Y286477D01*
X709118Y286413D01*
X709005Y286346D01*
X708894Y286275D01*
X708786Y286201D01*
X708679Y286124D01*
X708575Y286044D01*
X708473Y285961D01*
X708374Y285876D01*
X708277Y285787D01*
X708183Y285695D01*
X708091Y285601D01*
X708002Y285504D01*
X707917Y285405D01*
X707834Y285303D01*
X707754Y285199D01*
X707677Y285092D01*
X707603Y284984D01*
X707532Y284873D01*
X707465Y284760D01*
X707401Y284645D01*
X707340Y284529D01*
X707283Y284411D01*
X707229Y284291D01*
X707179Y284169D01*
X707132Y284047D01*
X707089Y283922D01*
X707050Y283797D01*
X707014Y283671D01*
X706982Y283543D01*
X706953Y283415D01*
X706929Y283286D01*
X706908Y283157D01*
X706891Y283026D01*
X706877Y282896D01*
X706868Y282765D01*
X706862Y282633D01*
X706860Y282502D01*
X706860Y275278D01*
X706862Y275147D01*
X706868Y275015D01*
X706877Y274884D01*
X706891Y274754D01*
X706908Y274623D01*
X706929Y274494D01*
X706953Y274365D01*
X706982Y274237D01*
X707014Y274109D01*
X707050Y273983D01*
X707089Y273858D01*
X707132Y273733D01*
X707179Y273611D01*
X707229Y273489D01*
X707283Y273369D01*
X707340Y273251D01*
X707401Y273135D01*
X707465Y273020D01*
X707532Y272907D01*
X707603Y272796D01*
X707677Y272688D01*
X707754Y272581D01*
X707834Y272477D01*
X707917Y272375D01*
X708002Y272276D01*
X708091Y272179D01*
X708183Y272085D01*
X708277Y271993D01*
X708374Y271904D01*
X708473Y271819D01*
X708575Y271736D01*
X708679Y271656D01*
X708786Y271579D01*
X708894Y271505D01*
X709005Y271434D01*
X709118Y271367D01*
X709233Y271303D01*
X709349Y271242D01*
X709467Y271185D01*
X709587Y271131D01*
X709709Y271081D01*
X709831Y271034D01*
X709956Y270991D01*
X710081Y270952D01*
X710207Y270916D01*
X710335Y270884D01*
X710463Y270855D01*
X710592Y270831D01*
X710721Y270810D01*
X710852Y270793D01*
X710982Y270779D01*
X711113Y270770D01*
X711245Y270764D01*
X711376Y270762D01*
X715891Y270762D01*
D13*
X614800Y117099D02*
X614803Y117381D01*
X614814Y117663D01*
X614831Y117945D01*
X614855Y118226D01*
X614886Y118507D01*
X614924Y118786D01*
X614969Y119065D01*
X615021Y119343D01*
X615079Y119619D01*
X615145Y119893D01*
X615217Y120166D01*
X615295Y120437D01*
X615380Y120706D01*
X615472Y120973D01*
X615571Y121238D01*
X615675Y121500D01*
X615787Y121759D01*
X615904Y122016D01*
X616028Y122270D01*
X616158Y122520D01*
X616294Y122767D01*
X616436Y123011D01*
X616584Y123251D01*
X616738Y123488D01*
X616898Y123721D01*
X617063Y123950D01*
X617234Y124174D01*
X617410Y124395D01*
X617592Y124610D01*
X617779Y124822D01*
X617971Y125029D01*
X618168Y125231D01*
X618370Y125428D01*
X618577Y125620D01*
X618789Y125807D01*
X619004Y125989D01*
X619225Y126165D01*
X619449Y126336D01*
X619678Y126501D01*
X619911Y126661D01*
X620148Y126815D01*
X620388Y126963D01*
X620632Y127105D01*
X620879Y127241D01*
X621129Y127371D01*
X621383Y127495D01*
X621640Y127612D01*
X621899Y127724D01*
X622161Y127828D01*
X622426Y127927D01*
X622693Y128019D01*
X622962Y128104D01*
X623233Y128182D01*
X623506Y128254D01*
X623780Y128320D01*
X624056Y128378D01*
X624334Y128430D01*
X624613Y128475D01*
X624892Y128513D01*
X625173Y128544D01*
X625454Y128568D01*
X625736Y128585D01*
X626018Y128596D01*
X626300Y128599D01*
X626582Y128596D01*
X626864Y128585D01*
X627146Y128568D01*
X627427Y128544D01*
X627708Y128513D01*
X627987Y128475D01*
X628266Y128430D01*
X628544Y128378D01*
X628820Y128320D01*
X629094Y128254D01*
X629367Y128182D01*
X629638Y128104D01*
X629907Y128019D01*
X630174Y127927D01*
X630439Y127828D01*
X630701Y127724D01*
X630960Y127612D01*
X631217Y127495D01*
X631471Y127371D01*
X631721Y127241D01*
X631968Y127105D01*
X632212Y126963D01*
X632452Y126815D01*
X632689Y126661D01*
X632922Y126501D01*
X633151Y126336D01*
X633375Y126165D01*
X633596Y125989D01*
X633811Y125807D01*
X634023Y125620D01*
X634230Y125428D01*
X634432Y125231D01*
X634629Y125029D01*
X634821Y124822D01*
X635008Y124610D01*
X635190Y124395D01*
X635366Y124174D01*
X635537Y123950D01*
X635702Y123721D01*
X635862Y123488D01*
X636016Y123251D01*
X636164Y123011D01*
X636306Y122767D01*
X636442Y122520D01*
X636572Y122270D01*
X636696Y122016D01*
X636813Y121759D01*
X636925Y121500D01*
X637029Y121238D01*
X637128Y120973D01*
X637220Y120706D01*
X637305Y120437D01*
X637383Y120166D01*
X637455Y119893D01*
X637521Y119619D01*
X637579Y119343D01*
X637631Y119065D01*
X637676Y118786D01*
X637714Y118507D01*
X637745Y118226D01*
X637769Y117945D01*
X637786Y117663D01*
X637797Y117381D01*
X637800Y117099D01*
X637797Y116817D01*
X637786Y116535D01*
X637769Y116253D01*
X637745Y115972D01*
X637714Y115691D01*
X637676Y115412D01*
X637631Y115133D01*
X637579Y114855D01*
X637521Y114579D01*
X637455Y114305D01*
X637383Y114032D01*
X637305Y113761D01*
X637220Y113492D01*
X637128Y113225D01*
X637029Y112960D01*
X636925Y112698D01*
X636813Y112439D01*
X636696Y112182D01*
X636572Y111928D01*
X636442Y111678D01*
X636306Y111431D01*
X636164Y111187D01*
X636016Y110947D01*
X635862Y110710D01*
X635702Y110477D01*
X635537Y110248D01*
X635366Y110024D01*
X635190Y109803D01*
X635008Y109588D01*
X634821Y109376D01*
X634629Y109169D01*
X634432Y108967D01*
X634230Y108770D01*
X634023Y108578D01*
X633811Y108391D01*
X633596Y108209D01*
X633375Y108033D01*
X633151Y107862D01*
X632922Y107697D01*
X632689Y107537D01*
X632452Y107383D01*
X632212Y107235D01*
X631968Y107093D01*
X631721Y106957D01*
X631471Y106827D01*
X631217Y106703D01*
X630960Y106586D01*
X630701Y106474D01*
X630439Y106370D01*
X630174Y106271D01*
X629907Y106179D01*
X629638Y106094D01*
X629367Y106016D01*
X629094Y105944D01*
X628820Y105878D01*
X628544Y105820D01*
X628266Y105768D01*
X627987Y105723D01*
X627708Y105685D01*
X627427Y105654D01*
X627146Y105630D01*
X626864Y105613D01*
X626582Y105602D01*
X626300Y105599D01*
X626018Y105602D01*
X625736Y105613D01*
X625454Y105630D01*
X625173Y105654D01*
X624892Y105685D01*
X624613Y105723D01*
X624334Y105768D01*
X624056Y105820D01*
X623780Y105878D01*
X623506Y105944D01*
X623233Y106016D01*
X622962Y106094D01*
X622693Y106179D01*
X622426Y106271D01*
X622161Y106370D01*
X621899Y106474D01*
X621640Y106586D01*
X621383Y106703D01*
X621129Y106827D01*
X620879Y106957D01*
X620632Y107093D01*
X620388Y107235D01*
X620148Y107383D01*
X619911Y107537D01*
X619678Y107697D01*
X619449Y107862D01*
X619225Y108033D01*
X619004Y108209D01*
X618789Y108391D01*
X618577Y108578D01*
X618370Y108770D01*
X618168Y108967D01*
X617971Y109169D01*
X617779Y109376D01*
X617592Y109588D01*
X617410Y109803D01*
X617234Y110024D01*
X617063Y110248D01*
X616898Y110477D01*
X616738Y110710D01*
X616584Y110947D01*
X616436Y111187D01*
X616294Y111431D01*
X616158Y111678D01*
X616028Y111928D01*
X615904Y112182D01*
X615787Y112439D01*
X615675Y112698D01*
X615571Y112960D01*
X615472Y113225D01*
X615380Y113492D01*
X615295Y113761D01*
X615217Y114032D01*
X615145Y114305D01*
X615079Y114579D01*
X615021Y114855D01*
X614969Y115133D01*
X614924Y115412D01*
X614886Y115691D01*
X614855Y115972D01*
X614831Y116253D01*
X614814Y116535D01*
X614803Y116817D01*
X614800Y117099D01*
X746200Y117099D02*
X746203Y117381D01*
X746214Y117663D01*
X746231Y117945D01*
X746255Y118226D01*
X746286Y118507D01*
X746324Y118786D01*
X746369Y119065D01*
X746421Y119343D01*
X746479Y119619D01*
X746545Y119893D01*
X746617Y120166D01*
X746695Y120437D01*
X746780Y120706D01*
X746872Y120973D01*
X746971Y121238D01*
X747075Y121500D01*
X747187Y121759D01*
X747304Y122016D01*
X747428Y122270D01*
X747558Y122520D01*
X747694Y122767D01*
X747836Y123011D01*
X747984Y123251D01*
X748138Y123488D01*
X748298Y123721D01*
X748463Y123950D01*
X748634Y124174D01*
X748810Y124395D01*
X748992Y124610D01*
X749179Y124822D01*
X749371Y125029D01*
X749568Y125231D01*
X749770Y125428D01*
X749977Y125620D01*
X750189Y125807D01*
X750404Y125989D01*
X750625Y126165D01*
X750849Y126336D01*
X751078Y126501D01*
X751311Y126661D01*
X751548Y126815D01*
X751788Y126963D01*
X752032Y127105D01*
X752279Y127241D01*
X752529Y127371D01*
X752783Y127495D01*
X753040Y127612D01*
X753299Y127724D01*
X753561Y127828D01*
X753826Y127927D01*
X754093Y128019D01*
X754362Y128104D01*
X754633Y128182D01*
X754906Y128254D01*
X755180Y128320D01*
X755456Y128378D01*
X755734Y128430D01*
X756013Y128475D01*
X756292Y128513D01*
X756573Y128544D01*
X756854Y128568D01*
X757136Y128585D01*
X757418Y128596D01*
X757700Y128599D01*
X757982Y128596D01*
X758264Y128585D01*
X758546Y128568D01*
X758827Y128544D01*
X759108Y128513D01*
X759387Y128475D01*
X759666Y128430D01*
X759944Y128378D01*
X760220Y128320D01*
X760494Y128254D01*
X760767Y128182D01*
X761038Y128104D01*
X761307Y128019D01*
X761574Y127927D01*
X761839Y127828D01*
X762101Y127724D01*
X762360Y127612D01*
X762617Y127495D01*
X762871Y127371D01*
X763121Y127241D01*
X763368Y127105D01*
X763612Y126963D01*
X763852Y126815D01*
X764089Y126661D01*
X764322Y126501D01*
X764551Y126336D01*
X764775Y126165D01*
X764996Y125989D01*
X765211Y125807D01*
X765423Y125620D01*
X765630Y125428D01*
X765832Y125231D01*
X766029Y125029D01*
X766221Y124822D01*
X766408Y124610D01*
X766590Y124395D01*
X766766Y124174D01*
X766937Y123950D01*
X767102Y123721D01*
X767262Y123488D01*
X767416Y123251D01*
X767564Y123011D01*
X767706Y122767D01*
X767842Y122520D01*
X767972Y122270D01*
X768096Y122016D01*
X768213Y121759D01*
X768325Y121500D01*
X768429Y121238D01*
X768528Y120973D01*
X768620Y120706D01*
X768705Y120437D01*
X768783Y120166D01*
X768855Y119893D01*
X768921Y119619D01*
X768979Y119343D01*
X769031Y119065D01*
X769076Y118786D01*
X769114Y118507D01*
X769145Y118226D01*
X769169Y117945D01*
X769186Y117663D01*
X769197Y117381D01*
X769200Y117099D01*
X769197Y116817D01*
X769186Y116535D01*
X769169Y116253D01*
X769145Y115972D01*
X769114Y115691D01*
X769076Y115412D01*
X769031Y115133D01*
X768979Y114855D01*
X768921Y114579D01*
X768855Y114305D01*
X768783Y114032D01*
X768705Y113761D01*
X768620Y113492D01*
X768528Y113225D01*
X768429Y112960D01*
X768325Y112698D01*
X768213Y112439D01*
X768096Y112182D01*
X767972Y111928D01*
X767842Y111678D01*
X767706Y111431D01*
X767564Y111187D01*
X767416Y110947D01*
X767262Y110710D01*
X767102Y110477D01*
X766937Y110248D01*
X766766Y110024D01*
X766590Y109803D01*
X766408Y109588D01*
X766221Y109376D01*
X766029Y109169D01*
X765832Y108967D01*
X765630Y108770D01*
X765423Y108578D01*
X765211Y108391D01*
X764996Y108209D01*
X764775Y108033D01*
X764551Y107862D01*
X764322Y107697D01*
X764089Y107537D01*
X763852Y107383D01*
X763612Y107235D01*
X763368Y107093D01*
X763121Y106957D01*
X762871Y106827D01*
X762617Y106703D01*
X762360Y106586D01*
X762101Y106474D01*
X761839Y106370D01*
X761574Y106271D01*
X761307Y106179D01*
X761038Y106094D01*
X760767Y106016D01*
X760494Y105944D01*
X760220Y105878D01*
X759944Y105820D01*
X759666Y105768D01*
X759387Y105723D01*
X759108Y105685D01*
X758827Y105654D01*
X758546Y105630D01*
X758264Y105613D01*
X757982Y105602D01*
X757700Y105599D01*
X757418Y105602D01*
X757136Y105613D01*
X756854Y105630D01*
X756573Y105654D01*
X756292Y105685D01*
X756013Y105723D01*
X755734Y105768D01*
X755456Y105820D01*
X755180Y105878D01*
X754906Y105944D01*
X754633Y106016D01*
X754362Y106094D01*
X754093Y106179D01*
X753826Y106271D01*
X753561Y106370D01*
X753299Y106474D01*
X753040Y106586D01*
X752783Y106703D01*
X752529Y106827D01*
X752279Y106957D01*
X752032Y107093D01*
X751788Y107235D01*
X751548Y107383D01*
X751311Y107537D01*
X751078Y107697D01*
X750849Y107862D01*
X750625Y108033D01*
X750404Y108209D01*
X750189Y108391D01*
X749977Y108578D01*
X749770Y108770D01*
X749568Y108967D01*
X749371Y109169D01*
X749179Y109376D01*
X748992Y109588D01*
X748810Y109803D01*
X748634Y110024D01*
X748463Y110248D01*
X748298Y110477D01*
X748138Y110710D01*
X747984Y110947D01*
X747836Y111187D01*
X747694Y111431D01*
X747558Y111678D01*
X747428Y111928D01*
X747304Y112182D01*
X747187Y112439D01*
X747075Y112698D01*
X746971Y112960D01*
X746872Y113225D01*
X746780Y113492D01*
X746695Y113761D01*
X746617Y114032D01*
X746545Y114305D01*
X746479Y114579D01*
X746421Y114855D01*
X746369Y115133D01*
X746324Y115412D01*
X746286Y115691D01*
X746255Y115972D01*
X746231Y116253D01*
X746214Y116535D01*
X746203Y116817D01*
X746200Y117099D01*
X70000Y90000D02*
X70005Y90368D01*
X70018Y90736D01*
X70041Y91103D01*
X70072Y91470D01*
X70113Y91836D01*
X70162Y92201D01*
X70221Y92564D01*
X70288Y92926D01*
X70364Y93287D01*
X70450Y93645D01*
X70543Y94001D01*
X70646Y94354D01*
X70757Y94705D01*
X70877Y95053D01*
X71005Y95398D01*
X71142Y95740D01*
X71287Y96079D01*
X71440Y96413D01*
X71602Y96744D01*
X71771Y97071D01*
X71949Y97393D01*
X72134Y97712D01*
X72327Y98025D01*
X72528Y98334D01*
X72736Y98637D01*
X72952Y98935D01*
X73175Y99228D01*
X73405Y99516D01*
X73642Y99798D01*
X73886Y100073D01*
X74136Y100343D01*
X74393Y100607D01*
X74657Y100864D01*
X74927Y101114D01*
X75202Y101358D01*
X75484Y101595D01*
X75772Y101825D01*
X76065Y102048D01*
X76363Y102264D01*
X76666Y102472D01*
X76975Y102673D01*
X77288Y102866D01*
X77607Y103051D01*
X77929Y103229D01*
X78256Y103398D01*
X78587Y103560D01*
X78921Y103713D01*
X79260Y103858D01*
X79602Y103995D01*
X79947Y104123D01*
X80295Y104243D01*
X80646Y104354D01*
X80999Y104457D01*
X81355Y104550D01*
X81713Y104636D01*
X82074Y104712D01*
X82436Y104779D01*
X82799Y104838D01*
X83164Y104887D01*
X83530Y104928D01*
X83897Y104959D01*
X84264Y104982D01*
X84632Y104995D01*
X85000Y105000D01*
X85368Y104995D01*
X85736Y104982D01*
X86103Y104959D01*
X86470Y104928D01*
X86836Y104887D01*
X87201Y104838D01*
X87564Y104779D01*
X87926Y104712D01*
X88287Y104636D01*
X88645Y104550D01*
X89001Y104457D01*
X89354Y104354D01*
X89705Y104243D01*
X90053Y104123D01*
X90398Y103995D01*
X90740Y103858D01*
X91079Y103713D01*
X91413Y103560D01*
X91744Y103398D01*
X92071Y103229D01*
X92393Y103051D01*
X92712Y102866D01*
X93025Y102673D01*
X93334Y102472D01*
X93637Y102264D01*
X93935Y102048D01*
X94228Y101825D01*
X94516Y101595D01*
X94798Y101358D01*
X95073Y101114D01*
X95343Y100864D01*
X95607Y100607D01*
X95864Y100343D01*
X96114Y100073D01*
X96358Y99798D01*
X96595Y99516D01*
X96825Y99228D01*
X97048Y98935D01*
X97264Y98637D01*
X97472Y98334D01*
X97673Y98025D01*
X97866Y97712D01*
X98051Y97393D01*
X98229Y97071D01*
X98398Y96744D01*
X98560Y96413D01*
X98713Y96079D01*
X98858Y95740D01*
X98995Y95398D01*
X99123Y95053D01*
X99243Y94705D01*
X99354Y94354D01*
X99457Y94001D01*
X99550Y93645D01*
X99636Y93287D01*
X99712Y92926D01*
X99779Y92564D01*
X99838Y92201D01*
X99887Y91836D01*
X99928Y91470D01*
X99959Y91103D01*
X99982Y90736D01*
X99995Y90368D01*
X100000Y90000D01*
X99995Y89632D01*
X99982Y89264D01*
X99959Y88897D01*
X99928Y88530D01*
X99887Y88164D01*
X99838Y87799D01*
X99779Y87436D01*
X99712Y87074D01*
X99636Y86713D01*
X99550Y86355D01*
X99457Y85999D01*
X99354Y85646D01*
X99243Y85295D01*
X99123Y84947D01*
X98995Y84602D01*
X98858Y84260D01*
X98713Y83921D01*
X98560Y83587D01*
X98398Y83256D01*
X98229Y82929D01*
X98051Y82607D01*
X97866Y82288D01*
X97673Y81975D01*
X97472Y81666D01*
X97264Y81363D01*
X97048Y81065D01*
X96825Y80772D01*
X96595Y80484D01*
X96358Y80202D01*
X96114Y79927D01*
X95864Y79657D01*
X95607Y79393D01*
X95343Y79136D01*
X95073Y78886D01*
X94798Y78642D01*
X94516Y78405D01*
X94228Y78175D01*
X93935Y77952D01*
X93637Y77736D01*
X93334Y77528D01*
X93025Y77327D01*
X92712Y77134D01*
X92393Y76949D01*
X92071Y76771D01*
X91744Y76602D01*
X91413Y76440D01*
X91079Y76287D01*
X90740Y76142D01*
X90398Y76005D01*
X90053Y75877D01*
X89705Y75757D01*
X89354Y75646D01*
X89001Y75543D01*
X88645Y75450D01*
X88287Y75364D01*
X87926Y75288D01*
X87564Y75221D01*
X87201Y75162D01*
X86836Y75113D01*
X86470Y75072D01*
X86103Y75041D01*
X85736Y75018D01*
X85368Y75005D01*
X85000Y75000D01*
X84632Y75005D01*
X84264Y75018D01*
X83897Y75041D01*
X83530Y75072D01*
X83164Y75113D01*
X82799Y75162D01*
X82436Y75221D01*
X82074Y75288D01*
X81713Y75364D01*
X81355Y75450D01*
X80999Y75543D01*
X80646Y75646D01*
X80295Y75757D01*
X79947Y75877D01*
X79602Y76005D01*
X79260Y76142D01*
X78921Y76287D01*
X78587Y76440D01*
X78256Y76602D01*
X77929Y76771D01*
X77607Y76949D01*
X77288Y77134D01*
X76975Y77327D01*
X76666Y77528D01*
X76363Y77736D01*
X76065Y77952D01*
X75772Y78175D01*
X75484Y78405D01*
X75202Y78642D01*
X74927Y78886D01*
X74657Y79136D01*
X74393Y79393D01*
X74136Y79657D01*
X73886Y79927D01*
X73642Y80202D01*
X73405Y80484D01*
X73175Y80772D01*
X72952Y81065D01*
X72736Y81363D01*
X72528Y81666D01*
X72327Y81975D01*
X72134Y82288D01*
X71949Y82607D01*
X71771Y82929D01*
X71602Y83256D01*
X71440Y83587D01*
X71287Y83921D01*
X71142Y84260D01*
X71005Y84602D01*
X70877Y84947D01*
X70757Y85295D01*
X70646Y85646D01*
X70543Y85999D01*
X70450Y86355D01*
X70364Y86713D01*
X70288Y87074D01*
X70221Y87436D01*
X70162Y87799D01*
X70113Y88164D01*
X70072Y88530D01*
X70041Y88897D01*
X70018Y89264D01*
X70005Y89632D01*
X70000Y90000D01*
X810000Y90000D02*
X810005Y90368D01*
X810018Y90736D01*
X810041Y91103D01*
X810072Y91470D01*
X810113Y91836D01*
X810162Y92201D01*
X810221Y92564D01*
X810288Y92926D01*
X810364Y93287D01*
X810450Y93645D01*
X810543Y94001D01*
X810646Y94354D01*
X810757Y94705D01*
X810877Y95053D01*
X811005Y95398D01*
X811142Y95740D01*
X811287Y96079D01*
X811440Y96413D01*
X811602Y96744D01*
X811771Y97071D01*
X811949Y97393D01*
X812134Y97712D01*
X812327Y98025D01*
X812528Y98334D01*
X812736Y98637D01*
X812952Y98935D01*
X813175Y99228D01*
X813405Y99516D01*
X813642Y99798D01*
X813886Y100073D01*
X814136Y100343D01*
X814393Y100607D01*
X814657Y100864D01*
X814927Y101114D01*
X815202Y101358D01*
X815484Y101595D01*
X815772Y101825D01*
X816065Y102048D01*
X816363Y102264D01*
X816666Y102472D01*
X816975Y102673D01*
X817288Y102866D01*
X817607Y103051D01*
X817929Y103229D01*
X818256Y103398D01*
X818587Y103560D01*
X818921Y103713D01*
X819260Y103858D01*
X819602Y103995D01*
X819947Y104123D01*
X820295Y104243D01*
X820646Y104354D01*
X820999Y104457D01*
X821355Y104550D01*
X821713Y104636D01*
X822074Y104712D01*
X822436Y104779D01*
X822799Y104838D01*
X823164Y104887D01*
X823530Y104928D01*
X823897Y104959D01*
X824264Y104982D01*
X824632Y104995D01*
X825000Y105000D01*
X825368Y104995D01*
X825736Y104982D01*
X826103Y104959D01*
X826470Y104928D01*
X826836Y104887D01*
X827201Y104838D01*
X827564Y104779D01*
X827926Y104712D01*
X828287Y104636D01*
X828645Y104550D01*
X829001Y104457D01*
X829354Y104354D01*
X829705Y104243D01*
X830053Y104123D01*
X830398Y103995D01*
X830740Y103858D01*
X831079Y103713D01*
X831413Y103560D01*
X831744Y103398D01*
X832071Y103229D01*
X832393Y103051D01*
X832712Y102866D01*
X833025Y102673D01*
X833334Y102472D01*
X833637Y102264D01*
X833935Y102048D01*
X834228Y101825D01*
X834516Y101595D01*
X834798Y101358D01*
X835073Y101114D01*
X835343Y100864D01*
X835607Y100607D01*
X835864Y100343D01*
X836114Y100073D01*
X836358Y99798D01*
X836595Y99516D01*
X836825Y99228D01*
X837048Y98935D01*
X837264Y98637D01*
X837472Y98334D01*
X837673Y98025D01*
X837866Y97712D01*
X838051Y97393D01*
X838229Y97071D01*
X838398Y96744D01*
X838560Y96413D01*
X838713Y96079D01*
X838858Y95740D01*
X838995Y95398D01*
X839123Y95053D01*
X839243Y94705D01*
X839354Y94354D01*
X839457Y94001D01*
X839550Y93645D01*
X839636Y93287D01*
X839712Y92926D01*
X839779Y92564D01*
X839838Y92201D01*
X839887Y91836D01*
X839928Y91470D01*
X839959Y91103D01*
X839982Y90736D01*
X839995Y90368D01*
X840000Y90000D01*
X839995Y89632D01*
X839982Y89264D01*
X839959Y88897D01*
X839928Y88530D01*
X839887Y88164D01*
X839838Y87799D01*
X839779Y87436D01*
X839712Y87074D01*
X839636Y86713D01*
X839550Y86355D01*
X839457Y85999D01*
X839354Y85646D01*
X839243Y85295D01*
X839123Y84947D01*
X838995Y84602D01*
X838858Y84260D01*
X838713Y83921D01*
X838560Y83587D01*
X838398Y83256D01*
X838229Y82929D01*
X838051Y82607D01*
X837866Y82288D01*
X837673Y81975D01*
X837472Y81666D01*
X837264Y81363D01*
X837048Y81065D01*
X836825Y80772D01*
X836595Y80484D01*
X836358Y80202D01*
X836114Y79927D01*
X835864Y79657D01*
X835607Y79393D01*
X835343Y79136D01*
X835073Y78886D01*
X834798Y78642D01*
X834516Y78405D01*
X834228Y78175D01*
X833935Y77952D01*
X833637Y77736D01*
X833334Y77528D01*
X833025Y77327D01*
X832712Y77134D01*
X832393Y76949D01*
X832071Y76771D01*
X831744Y76602D01*
X831413Y76440D01*
X831079Y76287D01*
X830740Y76142D01*
X830398Y76005D01*
X830053Y75877D01*
X829705Y75757D01*
X829354Y75646D01*
X829001Y75543D01*
X828645Y75450D01*
X828287Y75364D01*
X827926Y75288D01*
X827564Y75221D01*
X827201Y75162D01*
X826836Y75113D01*
X826470Y75072D01*
X826103Y75041D01*
X825736Y75018D01*
X825368Y75005D01*
X825000Y75000D01*
X824632Y75005D01*
X824264Y75018D01*
X823897Y75041D01*
X823530Y75072D01*
X823164Y75113D01*
X822799Y75162D01*
X822436Y75221D01*
X822074Y75288D01*
X821713Y75364D01*
X821355Y75450D01*
X820999Y75543D01*
X820646Y75646D01*
X820295Y75757D01*
X819947Y75877D01*
X819602Y76005D01*
X819260Y76142D01*
X818921Y76287D01*
X818587Y76440D01*
X818256Y76602D01*
X817929Y76771D01*
X817607Y76949D01*
X817288Y77134D01*
X816975Y77327D01*
X816666Y77528D01*
X816363Y77736D01*
X816065Y77952D01*
X815772Y78175D01*
X815484Y78405D01*
X815202Y78642D01*
X814927Y78886D01*
X814657Y79136D01*
X814393Y79393D01*
X814136Y79657D01*
X813886Y79927D01*
X813642Y80202D01*
X813405Y80484D01*
X813175Y80772D01*
X812952Y81065D01*
X812736Y81363D01*
X812528Y81666D01*
X812327Y81975D01*
X812134Y82288D01*
X811949Y82607D01*
X811771Y82929D01*
X811602Y83256D01*
X811440Y83587D01*
X811287Y83921D01*
X811142Y84260D01*
X811005Y84602D01*
X810877Y84947D01*
X810757Y85295D01*
X810646Y85646D01*
X810543Y85999D01*
X810450Y86355D01*
X810364Y86713D01*
X810288Y87074D01*
X810221Y87436D01*
X810162Y87799D01*
X810113Y88164D01*
X810072Y88530D01*
X810041Y88897D01*
X810018Y89264D01*
X810005Y89632D01*
X810000Y90000D01*
X810000Y1000000D02*
X810005Y1000368D01*
X810018Y1000736D01*
X810041Y1001103D01*
X810072Y1001470D01*
X810113Y1001836D01*
X810162Y1002201D01*
X810221Y1002564D01*
X810288Y1002926D01*
X810364Y1003287D01*
X810450Y1003645D01*
X810543Y1004001D01*
X810646Y1004354D01*
X810757Y1004705D01*
X810877Y1005053D01*
X811005Y1005398D01*
X811142Y1005740D01*
X811287Y1006079D01*
X811440Y1006413D01*
X811602Y1006744D01*
X811771Y1007071D01*
X811949Y1007393D01*
X812134Y1007712D01*
X812327Y1008025D01*
X812528Y1008334D01*
X812736Y1008637D01*
X812952Y1008935D01*
X813175Y1009228D01*
X813405Y1009516D01*
X813642Y1009798D01*
X813886Y1010073D01*
X814136Y1010343D01*
X814393Y1010607D01*
X814657Y1010864D01*
X814927Y1011114D01*
X815202Y1011358D01*
X815484Y1011595D01*
X815772Y1011825D01*
X816065Y1012048D01*
X816363Y1012264D01*
X816666Y1012472D01*
X816975Y1012673D01*
X817288Y1012866D01*
X817607Y1013051D01*
X817929Y1013229D01*
X818256Y1013398D01*
X818587Y1013560D01*
X818921Y1013713D01*
X819260Y1013858D01*
X819602Y1013995D01*
X819947Y1014123D01*
X820295Y1014243D01*
X820646Y1014354D01*
X820999Y1014457D01*
X821355Y1014550D01*
X821713Y1014636D01*
X822074Y1014712D01*
X822436Y1014779D01*
X822799Y1014838D01*
X823164Y1014887D01*
X823530Y1014928D01*
X823897Y1014959D01*
X824264Y1014982D01*
X824632Y1014995D01*
X825000Y1015000D01*
X825368Y1014995D01*
X825736Y1014982D01*
X826103Y1014959D01*
X826470Y1014928D01*
X826836Y1014887D01*
X827201Y1014838D01*
X827564Y1014779D01*
X827926Y1014712D01*
X828287Y1014636D01*
X828645Y1014550D01*
X829001Y1014457D01*
X829354Y1014354D01*
X829705Y1014243D01*
X830053Y1014123D01*
X830398Y1013995D01*
X830740Y1013858D01*
X831079Y1013713D01*
X831413Y1013560D01*
X831744Y1013398D01*
X832071Y1013229D01*
X832393Y1013051D01*
X832712Y1012866D01*
X833025Y1012673D01*
X833334Y1012472D01*
X833637Y1012264D01*
X833935Y1012048D01*
X834228Y1011825D01*
X834516Y1011595D01*
X834798Y1011358D01*
X835073Y1011114D01*
X835343Y1010864D01*
X835607Y1010607D01*
X835864Y1010343D01*
X836114Y1010073D01*
X836358Y1009798D01*
X836595Y1009516D01*
X836825Y1009228D01*
X837048Y1008935D01*
X837264Y1008637D01*
X837472Y1008334D01*
X837673Y1008025D01*
X837866Y1007712D01*
X838051Y1007393D01*
X838229Y1007071D01*
X838398Y1006744D01*
X838560Y1006413D01*
X838713Y1006079D01*
X838858Y1005740D01*
X838995Y1005398D01*
X839123Y1005053D01*
X839243Y1004705D01*
X839354Y1004354D01*
X839457Y1004001D01*
X839550Y1003645D01*
X839636Y1003287D01*
X839712Y1002926D01*
X839779Y1002564D01*
X839838Y1002201D01*
X839887Y1001836D01*
X839928Y1001470D01*
X839959Y1001103D01*
X839982Y1000736D01*
X839995Y1000368D01*
X840000Y1000000D01*
X839995Y999632D01*
X839982Y999264D01*
X839959Y998897D01*
X839928Y998530D01*
X839887Y998164D01*
X839838Y997799D01*
X839779Y997436D01*
X839712Y997074D01*
X839636Y996713D01*
X839550Y996355D01*
X839457Y995999D01*
X839354Y995646D01*
X839243Y995295D01*
X839123Y994947D01*
X838995Y994602D01*
X838858Y994260D01*
X838713Y993921D01*
X838560Y993587D01*
X838398Y993256D01*
X838229Y992929D01*
X838051Y992607D01*
X837866Y992288D01*
X837673Y991975D01*
X837472Y991666D01*
X837264Y991363D01*
X837048Y991065D01*
X836825Y990772D01*
X836595Y990484D01*
X836358Y990202D01*
X836114Y989927D01*
X835864Y989657D01*
X835607Y989393D01*
X835343Y989136D01*
X835073Y988886D01*
X834798Y988642D01*
X834516Y988405D01*
X834228Y988175D01*
X833935Y987952D01*
X833637Y987736D01*
X833334Y987528D01*
X833025Y987327D01*
X832712Y987134D01*
X832393Y986949D01*
X832071Y986771D01*
X831744Y986602D01*
X831413Y986440D01*
X831079Y986287D01*
X830740Y986142D01*
X830398Y986005D01*
X830053Y985877D01*
X829705Y985757D01*
X829354Y985646D01*
X829001Y985543D01*
X828645Y985450D01*
X828287Y985364D01*
X827926Y985288D01*
X827564Y985221D01*
X827201Y985162D01*
X826836Y985113D01*
X826470Y985072D01*
X826103Y985041D01*
X825736Y985018D01*
X825368Y985005D01*
X825000Y985000D01*
X824632Y985005D01*
X824264Y985018D01*
X823897Y985041D01*
X823530Y985072D01*
X823164Y985113D01*
X822799Y985162D01*
X822436Y985221D01*
X822074Y985288D01*
X821713Y985364D01*
X821355Y985450D01*
X820999Y985543D01*
X820646Y985646D01*
X820295Y985757D01*
X819947Y985877D01*
X819602Y986005D01*
X819260Y986142D01*
X818921Y986287D01*
X818587Y986440D01*
X818256Y986602D01*
X817929Y986771D01*
X817607Y986949D01*
X817288Y987134D01*
X816975Y987327D01*
X816666Y987528D01*
X816363Y987736D01*
X816065Y987952D01*
X815772Y988175D01*
X815484Y988405D01*
X815202Y988642D01*
X814927Y988886D01*
X814657Y989136D01*
X814393Y989393D01*
X814136Y989657D01*
X813886Y989927D01*
X813642Y990202D01*
X813405Y990484D01*
X813175Y990772D01*
X812952Y991065D01*
X812736Y991363D01*
X812528Y991666D01*
X812327Y991975D01*
X812134Y992288D01*
X811949Y992607D01*
X811771Y992929D01*
X811602Y993256D01*
X811440Y993587D01*
X811287Y993921D01*
X811142Y994260D01*
X811005Y994602D01*
X810877Y994947D01*
X810757Y995295D01*
X810646Y995646D01*
X810543Y995999D01*
X810450Y996355D01*
X810364Y996713D01*
X810288Y997074D01*
X810221Y997436D01*
X810162Y997799D01*
X810113Y998164D01*
X810072Y998530D01*
X810041Y998897D01*
X810018Y999264D01*
X810005Y999632D01*
X810000Y1000000D01*
X70000Y1000000D02*
X70005Y1000368D01*
X70018Y1000736D01*
X70041Y1001103D01*
X70072Y1001470D01*
X70113Y1001836D01*
X70162Y1002201D01*
X70221Y1002564D01*
X70288Y1002926D01*
X70364Y1003287D01*
X70450Y1003645D01*
X70543Y1004001D01*
X70646Y1004354D01*
X70757Y1004705D01*
X70877Y1005053D01*
X71005Y1005398D01*
X71142Y1005740D01*
X71287Y1006079D01*
X71440Y1006413D01*
X71602Y1006744D01*
X71771Y1007071D01*
X71949Y1007393D01*
X72134Y1007712D01*
X72327Y1008025D01*
X72528Y1008334D01*
X72736Y1008637D01*
X72952Y1008935D01*
X73175Y1009228D01*
X73405Y1009516D01*
X73642Y1009798D01*
X73886Y1010073D01*
X74136Y1010343D01*
X74393Y1010607D01*
X74657Y1010864D01*
X74927Y1011114D01*
X75202Y1011358D01*
X75484Y1011595D01*
X75772Y1011825D01*
X76065Y1012048D01*
X76363Y1012264D01*
X76666Y1012472D01*
X76975Y1012673D01*
X77288Y1012866D01*
X77607Y1013051D01*
X77929Y1013229D01*
X78256Y1013398D01*
X78587Y1013560D01*
X78921Y1013713D01*
X79260Y1013858D01*
X79602Y1013995D01*
X79947Y1014123D01*
X80295Y1014243D01*
X80646Y1014354D01*
X80999Y1014457D01*
X81355Y1014550D01*
X81713Y1014636D01*
X82074Y1014712D01*
X82436Y1014779D01*
X82799Y1014838D01*
X83164Y1014887D01*
X83530Y1014928D01*
X83897Y1014959D01*
X84264Y1014982D01*
X84632Y1014995D01*
X85000Y1015000D01*
X85368Y1014995D01*
X85736Y1014982D01*
X86103Y1014959D01*
X86470Y1014928D01*
X86836Y1014887D01*
X87201Y1014838D01*
X87564Y1014779D01*
X87926Y1014712D01*
X88287Y1014636D01*
X88645Y1014550D01*
X89001Y1014457D01*
X89354Y1014354D01*
X89705Y1014243D01*
X90053Y1014123D01*
X90398Y1013995D01*
X90740Y1013858D01*
X91079Y1013713D01*
X91413Y1013560D01*
X91744Y1013398D01*
X92071Y1013229D01*
X92393Y1013051D01*
X92712Y1012866D01*
X93025Y1012673D01*
X93334Y1012472D01*
X93637Y1012264D01*
X93935Y1012048D01*
X94228Y1011825D01*
X94516Y1011595D01*
X94798Y1011358D01*
X95073Y1011114D01*
X95343Y1010864D01*
X95607Y1010607D01*
X95864Y1010343D01*
X96114Y1010073D01*
X96358Y1009798D01*
X96595Y1009516D01*
X96825Y1009228D01*
X97048Y1008935D01*
X97264Y1008637D01*
X97472Y1008334D01*
X97673Y1008025D01*
X97866Y1007712D01*
X98051Y1007393D01*
X98229Y1007071D01*
X98398Y1006744D01*
X98560Y1006413D01*
X98713Y1006079D01*
X98858Y1005740D01*
X98995Y1005398D01*
X99123Y1005053D01*
X99243Y1004705D01*
X99354Y1004354D01*
X99457Y1004001D01*
X99550Y1003645D01*
X99636Y1003287D01*
X99712Y1002926D01*
X99779Y1002564D01*
X99838Y1002201D01*
X99887Y1001836D01*
X99928Y1001470D01*
X99959Y1001103D01*
X99982Y1000736D01*
X99995Y1000368D01*
X100000Y1000000D01*
X99995Y999632D01*
X99982Y999264D01*
X99959Y998897D01*
X99928Y998530D01*
X99887Y998164D01*
X99838Y997799D01*
X99779Y997436D01*
X99712Y997074D01*
X99636Y996713D01*
X99550Y996355D01*
X99457Y995999D01*
X99354Y995646D01*
X99243Y995295D01*
X99123Y994947D01*
X98995Y994602D01*
X98858Y994260D01*
X98713Y993921D01*
X98560Y993587D01*
X98398Y993256D01*
X98229Y992929D01*
X98051Y992607D01*
X97866Y992288D01*
X97673Y991975D01*
X97472Y991666D01*
X97264Y991363D01*
X97048Y991065D01*
X96825Y990772D01*
X96595Y990484D01*
X96358Y990202D01*
X96114Y989927D01*
X95864Y989657D01*
X95607Y989393D01*
X95343Y989136D01*
X95073Y988886D01*
X94798Y988642D01*
X94516Y988405D01*
X94228Y988175D01*
X93935Y987952D01*
X93637Y987736D01*
X93334Y987528D01*
X93025Y987327D01*
X92712Y987134D01*
X92393Y986949D01*
X92071Y986771D01*
X91744Y986602D01*
X91413Y986440D01*
X91079Y986287D01*
X90740Y986142D01*
X90398Y986005D01*
X90053Y985877D01*
X89705Y985757D01*
X89354Y985646D01*
X89001Y985543D01*
X88645Y985450D01*
X88287Y985364D01*
X87926Y985288D01*
X87564Y985221D01*
X87201Y985162D01*
X86836Y985113D01*
X86470Y985072D01*
X86103Y985041D01*
X85736Y985018D01*
X85368Y985005D01*
X85000Y985000D01*
X84632Y985005D01*
X84264Y985018D01*
X83897Y985041D01*
X83530Y985072D01*
X83164Y985113D01*
X82799Y985162D01*
X82436Y985221D01*
X82074Y985288D01*
X81713Y985364D01*
X81355Y985450D01*
X80999Y985543D01*
X80646Y985646D01*
X80295Y985757D01*
X79947Y985877D01*
X79602Y986005D01*
X79260Y986142D01*
X78921Y986287D01*
X78587Y986440D01*
X78256Y986602D01*
X77929Y986771D01*
X77607Y986949D01*
X77288Y987134D01*
X76975Y987327D01*
X76666Y987528D01*
X76363Y987736D01*
X76065Y987952D01*
X75772Y988175D01*
X75484Y988405D01*
X75202Y988642D01*
X74927Y988886D01*
X74657Y989136D01*
X74393Y989393D01*
X74136Y989657D01*
X73886Y989927D01*
X73642Y990202D01*
X73405Y990484D01*
X73175Y990772D01*
X72952Y991065D01*
X72736Y991363D01*
X72528Y991666D01*
X72327Y991975D01*
X72134Y992288D01*
X71949Y992607D01*
X71771Y992929D01*
X71602Y993256D01*
X71440Y993587D01*
X71287Y993921D01*
X71142Y994260D01*
X71005Y994602D01*
X70877Y994947D01*
X70757Y995295D01*
X70646Y995646D01*
X70543Y995999D01*
X70450Y996355D01*
X70364Y996713D01*
X70288Y997074D01*
X70221Y997436D01*
X70162Y997799D01*
X70113Y998164D01*
X70072Y998530D01*
X70041Y998897D01*
X70018Y999264D01*
X70005Y999632D01*
X70000Y1000000D01*
M02*
