G04 EAGLE Gerber RS-274X export*
G75*
%MOMM*%
%FSLAX34Y34*%
%LPD*%
%INTop Layer*%
%IPPOS*%
%AMOC8*
5,1,8,0,0,1.08239X$1,22.5*%
G01*
%ADD10C,0.001000*%
%ADD11C,0.203200*%
%ADD12R,1.100000X1.000000*%
%ADD13C,1.508000*%
%ADD14C,0.000000*%
%ADD15P,1.429621X8X202.500000*%
%ADD16R,0.900000X0.900000*%
%ADD17C,0.222250*%
%ADD18R,15.000000X40.000000*%
%ADD19R,1.200000X1.200000*%
%ADD20R,1.000000X2.150000*%
%ADD21R,3.250000X2.150000*%
%ADD22P,2.336880X8X22.500000*%
%ADD23C,0.812800*%
%ADD24C,1.270000*%
%ADD25C,0.609600*%
%ADD26C,0.152400*%
%ADD27C,0.654800*%
%ADD28C,2.540000*%

G36*
X514234Y10547D02*
X514234Y10547D01*
X514272Y10545D01*
X514480Y10567D01*
X514688Y10584D01*
X514725Y10593D01*
X514763Y10597D01*
X514964Y10652D01*
X515166Y10702D01*
X515201Y10717D01*
X515238Y10728D01*
X515428Y10815D01*
X515620Y10897D01*
X515652Y10917D01*
X515687Y10933D01*
X515860Y11050D01*
X516036Y11162D01*
X516064Y11187D01*
X516096Y11209D01*
X516248Y11352D01*
X516404Y11491D01*
X516428Y11520D01*
X516456Y11546D01*
X516583Y11712D01*
X516714Y11875D01*
X516733Y11908D01*
X516756Y11938D01*
X516854Y12122D01*
X516958Y12303D01*
X516971Y12339D01*
X516989Y12373D01*
X517057Y12570D01*
X517129Y12766D01*
X517137Y12803D01*
X517149Y12839D01*
X517184Y13046D01*
X517224Y13250D01*
X517225Y13288D01*
X517232Y13326D01*
X517233Y13535D01*
X517239Y13743D01*
X517234Y13781D01*
X517235Y13819D01*
X517202Y14026D01*
X517175Y14232D01*
X517164Y14269D01*
X517158Y14306D01*
X517093Y14505D01*
X517032Y14704D01*
X517016Y14739D01*
X517004Y14775D01*
X516907Y14960D01*
X516816Y15148D01*
X516794Y15179D01*
X516776Y15213D01*
X516718Y15285D01*
X516530Y15550D01*
X516409Y15672D01*
X516351Y15746D01*
X503578Y28519D01*
X503491Y28593D01*
X503410Y28674D01*
X503303Y28752D01*
X503202Y28838D01*
X503104Y28897D01*
X503012Y28964D01*
X502893Y29024D01*
X502779Y29093D01*
X502673Y29135D01*
X502571Y29187D01*
X502444Y29227D01*
X502321Y29276D01*
X502210Y29301D01*
X502101Y29335D01*
X502007Y29345D01*
X501839Y29383D01*
X501515Y29401D01*
X501423Y29411D01*
X233888Y29411D01*
X231834Y30262D01*
X229834Y32263D01*
X224264Y37833D01*
X224177Y37907D01*
X224096Y37988D01*
X223989Y38066D01*
X223888Y38152D01*
X223790Y38211D01*
X223698Y38278D01*
X223579Y38338D01*
X223465Y38407D01*
X223359Y38449D01*
X223257Y38501D01*
X223130Y38541D01*
X223007Y38590D01*
X222896Y38615D01*
X222787Y38649D01*
X222693Y38659D01*
X222525Y38697D01*
X222201Y38715D01*
X222109Y38725D01*
X203118Y38725D01*
X202225Y39618D01*
X202225Y47380D01*
X202219Y47456D01*
X202221Y47532D01*
X202199Y47701D01*
X202185Y47872D01*
X202167Y47946D01*
X202157Y48021D01*
X202108Y48185D01*
X202067Y48351D01*
X202037Y48420D01*
X202015Y48494D01*
X201939Y48647D01*
X201872Y48804D01*
X201831Y48868D01*
X201798Y48937D01*
X201699Y49076D01*
X201607Y49220D01*
X201556Y49277D01*
X201512Y49339D01*
X201392Y49460D01*
X201278Y49588D01*
X201219Y49636D01*
X201165Y49690D01*
X201027Y49791D01*
X200894Y49898D01*
X200828Y49935D01*
X200767Y49980D01*
X200614Y50057D01*
X200466Y50142D01*
X200394Y50168D01*
X200326Y50203D01*
X200163Y50254D01*
X200003Y50313D01*
X199928Y50328D01*
X199856Y50351D01*
X199751Y50363D01*
X199519Y50408D01*
X199283Y50415D01*
X199178Y50427D01*
X174090Y50427D01*
X172410Y51123D01*
X170695Y52838D01*
X144338Y79195D01*
X142623Y80910D01*
X141927Y82590D01*
X141927Y93695D01*
X141918Y93809D01*
X141919Y93923D01*
X141898Y94055D01*
X141887Y94187D01*
X141860Y94298D01*
X141842Y94411D01*
X141801Y94537D01*
X141769Y94666D01*
X141724Y94771D01*
X141688Y94879D01*
X141626Y94997D01*
X141574Y95119D01*
X141513Y95215D01*
X141460Y95317D01*
X141401Y95390D01*
X141309Y95535D01*
X141093Y95777D01*
X141035Y95850D01*
X140530Y96354D01*
X140530Y105206D01*
X141570Y106245D01*
X141619Y106303D01*
X141675Y106356D01*
X141779Y106491D01*
X141889Y106621D01*
X141929Y106687D01*
X141975Y106747D01*
X142056Y106897D01*
X142144Y107044D01*
X142172Y107115D01*
X142208Y107182D01*
X142264Y107343D01*
X142327Y107502D01*
X142344Y107576D01*
X142368Y107648D01*
X142397Y107817D01*
X142434Y107984D01*
X142438Y108059D01*
X142451Y108135D01*
X142452Y108306D01*
X142462Y108476D01*
X142453Y108552D01*
X142454Y108628D01*
X142427Y108797D01*
X142409Y108967D01*
X142389Y109040D01*
X142377Y109115D01*
X142324Y109278D01*
X142279Y109442D01*
X142247Y109512D01*
X142223Y109584D01*
X142144Y109736D01*
X142073Y109891D01*
X142030Y109954D01*
X141995Y110022D01*
X141930Y110104D01*
X141798Y110300D01*
X141636Y110472D01*
X141570Y110555D01*
X140530Y111594D01*
X140530Y120446D01*
X142074Y121990D01*
X144261Y121990D01*
X144374Y121999D01*
X144488Y121998D01*
X144620Y122019D01*
X144752Y122030D01*
X144863Y122057D01*
X144976Y122075D01*
X145102Y122116D01*
X145231Y122148D01*
X145336Y122193D01*
X145444Y122229D01*
X145562Y122290D01*
X145685Y122343D01*
X145781Y122404D01*
X145882Y122457D01*
X145956Y122516D01*
X146101Y122608D01*
X146343Y122824D01*
X146415Y122882D01*
X146594Y123061D01*
X146673Y123153D01*
X146728Y123203D01*
X147228Y123773D01*
X147273Y123799D01*
X147650Y124117D01*
X147655Y124123D01*
X147660Y124127D01*
X185695Y162162D01*
X187742Y164209D01*
X187767Y164238D01*
X187796Y164264D01*
X187926Y164426D01*
X188062Y164585D01*
X188082Y164618D01*
X188106Y164648D01*
X188209Y164829D01*
X188317Y165008D01*
X188331Y165043D01*
X188350Y165076D01*
X188422Y165272D01*
X188500Y165466D01*
X188508Y165503D01*
X188521Y165539D01*
X188561Y165743D01*
X188606Y165947D01*
X188609Y165986D01*
X188616Y166023D01*
X188622Y166231D01*
X188634Y166440D01*
X188630Y166478D01*
X188631Y166516D01*
X188604Y166723D01*
X188582Y166931D01*
X188572Y166967D01*
X188567Y167005D01*
X188506Y167206D01*
X188451Y167406D01*
X188435Y167441D01*
X188424Y167478D01*
X188332Y167665D01*
X188245Y167855D01*
X188224Y167886D01*
X188207Y167921D01*
X188087Y168091D01*
X187970Y168264D01*
X187944Y168292D01*
X187922Y168323D01*
X187775Y168471D01*
X187632Y168624D01*
X187602Y168647D01*
X187575Y168674D01*
X187407Y168797D01*
X187241Y168924D01*
X187207Y168942D01*
X187176Y168964D01*
X186991Y169058D01*
X186806Y169157D01*
X186770Y169170D01*
X186736Y169187D01*
X186537Y169249D01*
X186339Y169317D01*
X186302Y169323D01*
X186265Y169335D01*
X186173Y169345D01*
X185853Y169400D01*
X185681Y169401D01*
X185588Y169411D01*
X151787Y169411D01*
X151673Y169402D01*
X151559Y169403D01*
X151428Y169382D01*
X151295Y169371D01*
X151185Y169344D01*
X151072Y169326D01*
X150945Y169285D01*
X150817Y169253D01*
X150712Y169208D01*
X150603Y169172D01*
X150485Y169110D01*
X150363Y169058D01*
X150267Y168997D01*
X150166Y168944D01*
X150092Y168885D01*
X149947Y168793D01*
X149705Y168577D01*
X149632Y168519D01*
X127067Y145953D01*
X127066Y145953D01*
X125066Y143952D01*
X123012Y143101D01*
X98730Y143101D01*
X98616Y143092D01*
X98502Y143093D01*
X98370Y143072D01*
X98238Y143061D01*
X98127Y143034D01*
X98014Y143016D01*
X97888Y142975D01*
X97759Y142943D01*
X97654Y142898D01*
X97546Y142862D01*
X97428Y142800D01*
X97306Y142748D01*
X97210Y142687D01*
X97168Y142665D01*
X86768Y142665D01*
X85875Y143558D01*
X85875Y153822D01*
X86768Y154715D01*
X97163Y154715D01*
X97260Y154666D01*
X97374Y154597D01*
X97480Y154555D01*
X97582Y154503D01*
X97708Y154463D01*
X97832Y154414D01*
X97943Y154389D01*
X98052Y154355D01*
X98146Y154345D01*
X98313Y154307D01*
X98638Y154289D01*
X98730Y154279D01*
X118323Y154279D01*
X118437Y154288D01*
X118551Y154287D01*
X118682Y154308D01*
X118815Y154319D01*
X118925Y154346D01*
X119038Y154364D01*
X119165Y154405D01*
X119293Y154437D01*
X119398Y154482D01*
X119507Y154518D01*
X119625Y154580D01*
X119747Y154632D01*
X119843Y154693D01*
X119944Y154746D01*
X120018Y154805D01*
X120163Y154897D01*
X120405Y155113D01*
X120478Y155171D01*
X143043Y177737D01*
X143044Y177737D01*
X145044Y179738D01*
X147098Y180589D01*
X291112Y180589D01*
X293166Y179738D01*
X309738Y163166D01*
X310589Y161112D01*
X310589Y93888D01*
X309738Y91834D01*
X308166Y90262D01*
X306112Y89411D01*
X291968Y89411D01*
X289914Y90262D01*
X287364Y92813D01*
X287277Y92887D01*
X287196Y92968D01*
X287089Y93046D01*
X286988Y93132D01*
X286890Y93191D01*
X286798Y93258D01*
X286679Y93318D01*
X286565Y93387D01*
X286459Y93429D01*
X286357Y93481D01*
X286230Y93521D01*
X286107Y93570D01*
X285996Y93595D01*
X285887Y93629D01*
X285793Y93639D01*
X285625Y93677D01*
X285301Y93695D01*
X285209Y93705D01*
X274934Y93705D01*
X272039Y94904D01*
X269824Y97119D01*
X268625Y100014D01*
X268625Y100289D01*
X268616Y100403D01*
X268617Y100517D01*
X268596Y100648D01*
X268585Y100781D01*
X268558Y100891D01*
X268540Y101004D01*
X268499Y101131D01*
X268467Y101259D01*
X268422Y101364D01*
X268386Y101473D01*
X268324Y101591D01*
X268272Y101713D01*
X268211Y101809D01*
X268158Y101910D01*
X268099Y101984D01*
X268007Y102129D01*
X267791Y102371D01*
X267733Y102444D01*
X261762Y108414D01*
X260911Y110468D01*
X260911Y129923D01*
X260902Y130037D01*
X260903Y130151D01*
X260882Y130282D01*
X260871Y130415D01*
X260844Y130525D01*
X260826Y130638D01*
X260785Y130765D01*
X260753Y130893D01*
X260708Y130998D01*
X260672Y131107D01*
X260610Y131225D01*
X260558Y131347D01*
X260497Y131443D01*
X260444Y131544D01*
X260385Y131618D01*
X260293Y131763D01*
X260077Y132005D01*
X260019Y132078D01*
X253578Y138519D01*
X253491Y138593D01*
X253410Y138674D01*
X253303Y138752D01*
X253202Y138838D01*
X253104Y138897D01*
X253012Y138964D01*
X252893Y139024D01*
X252779Y139093D01*
X252673Y139135D01*
X252571Y139187D01*
X252444Y139227D01*
X252321Y139276D01*
X252210Y139301D01*
X252101Y139335D01*
X252007Y139345D01*
X251839Y139383D01*
X251515Y139401D01*
X251423Y139411D01*
X218577Y139411D01*
X218463Y139402D01*
X218349Y139403D01*
X218218Y139382D01*
X218085Y139371D01*
X217975Y139344D01*
X217862Y139326D01*
X217735Y139285D01*
X217607Y139253D01*
X217502Y139208D01*
X217393Y139172D01*
X217275Y139110D01*
X217153Y139058D01*
X217057Y138997D01*
X216956Y138944D01*
X216882Y138885D01*
X216737Y138793D01*
X216495Y138577D01*
X216422Y138519D01*
X203481Y125578D01*
X203407Y125491D01*
X203326Y125410D01*
X203248Y125303D01*
X203162Y125202D01*
X203103Y125104D01*
X203036Y125012D01*
X202976Y124893D01*
X202907Y124779D01*
X202865Y124673D01*
X202813Y124571D01*
X202773Y124444D01*
X202724Y124321D01*
X202699Y124210D01*
X202665Y124101D01*
X202655Y124007D01*
X202617Y123839D01*
X202599Y123515D01*
X202589Y123423D01*
X202589Y122580D01*
X202598Y122466D01*
X202597Y122352D01*
X202618Y122220D01*
X202629Y122088D01*
X202656Y121977D01*
X202674Y121864D01*
X202715Y121738D01*
X202747Y121609D01*
X202792Y121504D01*
X202828Y121396D01*
X202890Y121278D01*
X202942Y121156D01*
X203003Y121060D01*
X203056Y120958D01*
X203115Y120885D01*
X203207Y120740D01*
X203423Y120498D01*
X203481Y120425D01*
X203525Y120382D01*
X203525Y97618D01*
X202632Y96725D01*
X191368Y96725D01*
X190475Y97618D01*
X190475Y120382D01*
X190519Y120425D01*
X190593Y120512D01*
X190674Y120592D01*
X190752Y120700D01*
X190838Y120801D01*
X190897Y120899D01*
X190964Y120991D01*
X191024Y121109D01*
X191093Y121224D01*
X191135Y121330D01*
X191187Y121432D01*
X191227Y121558D01*
X191276Y121682D01*
X191301Y121793D01*
X191335Y121902D01*
X191345Y121996D01*
X191383Y122163D01*
X191401Y122488D01*
X191411Y122580D01*
X191411Y128112D01*
X192262Y130166D01*
X211972Y149876D01*
X212090Y149951D01*
X212168Y150021D01*
X212252Y150083D01*
X212352Y150185D01*
X212458Y150280D01*
X212524Y150361D01*
X212596Y150436D01*
X212678Y150553D01*
X212768Y150664D01*
X212819Y150754D01*
X212879Y150840D01*
X212941Y150968D01*
X213012Y151092D01*
X213048Y151190D01*
X213093Y151284D01*
X213134Y151421D01*
X213183Y151555D01*
X213203Y151657D01*
X213233Y151758D01*
X213251Y151899D01*
X213278Y152039D01*
X213281Y152143D01*
X213294Y152247D01*
X213289Y152390D01*
X213293Y152532D01*
X213280Y152636D01*
X213276Y152740D01*
X213248Y152880D01*
X213229Y153021D01*
X213199Y153121D01*
X213178Y153224D01*
X213128Y153357D01*
X213087Y153494D01*
X213041Y153587D01*
X213004Y153685D01*
X212932Y153808D01*
X212870Y153937D01*
X212809Y154022D01*
X212757Y154112D01*
X212667Y154223D01*
X212584Y154339D01*
X212511Y154413D01*
X212445Y154494D01*
X212338Y154589D01*
X212238Y154690D01*
X212153Y154751D01*
X212075Y154821D01*
X211954Y154896D01*
X211839Y154980D01*
X211745Y155027D01*
X211657Y155083D01*
X211526Y155138D01*
X211398Y155203D01*
X211299Y155234D01*
X211202Y155275D01*
X211064Y155308D01*
X210928Y155351D01*
X210850Y155360D01*
X210723Y155390D01*
X210290Y155423D01*
X210250Y155427D01*
X193156Y155427D01*
X193043Y155418D01*
X192928Y155419D01*
X192797Y155398D01*
X192665Y155387D01*
X192554Y155360D01*
X192441Y155342D01*
X192315Y155301D01*
X192186Y155269D01*
X192081Y155224D01*
X191972Y155188D01*
X191854Y155126D01*
X191732Y155074D01*
X191636Y155013D01*
X191535Y154960D01*
X191461Y154901D01*
X191316Y154809D01*
X191074Y154593D01*
X191002Y154535D01*
X153406Y116939D01*
X153327Y116847D01*
X153272Y116797D01*
X153229Y116747D01*
X153219Y116734D01*
X153207Y116722D01*
X153120Y116603D01*
X153087Y116563D01*
X153064Y116526D01*
X152934Y116351D01*
X152926Y116337D01*
X152917Y116323D01*
X152813Y116119D01*
X152707Y115913D01*
X152702Y115898D01*
X152694Y115883D01*
X152625Y115664D01*
X152554Y115444D01*
X152551Y115428D01*
X152546Y115412D01*
X152539Y115353D01*
X152478Y114957D01*
X152479Y114817D01*
X152470Y114735D01*
X152470Y111594D01*
X151430Y110555D01*
X151381Y110497D01*
X151325Y110445D01*
X151221Y110309D01*
X151111Y110179D01*
X151071Y110113D01*
X151025Y110053D01*
X150944Y109903D01*
X150856Y109756D01*
X150828Y109686D01*
X150792Y109618D01*
X150736Y109457D01*
X150673Y109298D01*
X150656Y109224D01*
X150632Y109152D01*
X150603Y108983D01*
X150566Y108817D01*
X150562Y108740D01*
X150549Y108665D01*
X150548Y108495D01*
X150538Y108324D01*
X150547Y108248D01*
X150546Y108172D01*
X150573Y108003D01*
X150591Y107833D01*
X150611Y107760D01*
X150623Y107685D01*
X150676Y107522D01*
X150721Y107358D01*
X150753Y107289D01*
X150777Y107216D01*
X150856Y107064D01*
X150927Y106909D01*
X150970Y106846D01*
X151005Y106778D01*
X151070Y106696D01*
X151202Y106500D01*
X151365Y106327D01*
X151430Y106245D01*
X152470Y105206D01*
X152470Y96354D01*
X151965Y95850D01*
X151891Y95763D01*
X151810Y95683D01*
X151732Y95575D01*
X151646Y95474D01*
X151587Y95376D01*
X151520Y95284D01*
X151460Y95165D01*
X151391Y95051D01*
X151349Y94945D01*
X151297Y94843D01*
X151257Y94717D01*
X151208Y94593D01*
X151183Y94482D01*
X151149Y94373D01*
X151139Y94279D01*
X151101Y94112D01*
X151083Y93787D01*
X151073Y93695D01*
X151073Y86656D01*
X151077Y86599D01*
X151077Y86573D01*
X151082Y86532D01*
X151081Y86428D01*
X151102Y86297D01*
X151113Y86165D01*
X151140Y86054D01*
X151158Y85941D01*
X151199Y85815D01*
X151231Y85686D01*
X151276Y85581D01*
X151312Y85472D01*
X151374Y85354D01*
X151426Y85232D01*
X151487Y85136D01*
X151540Y85035D01*
X151599Y84961D01*
X151691Y84816D01*
X151907Y84574D01*
X151965Y84502D01*
X176002Y60465D01*
X176089Y60391D01*
X176169Y60310D01*
X176276Y60232D01*
X176377Y60146D01*
X176475Y60087D01*
X176568Y60020D01*
X176686Y59960D01*
X176800Y59891D01*
X176906Y59849D01*
X177008Y59797D01*
X177135Y59757D01*
X177258Y59708D01*
X177369Y59683D01*
X177479Y59649D01*
X177572Y59639D01*
X177740Y59601D01*
X178064Y59583D01*
X178156Y59573D01*
X199178Y59573D01*
X199254Y59579D01*
X199330Y59577D01*
X199499Y59599D01*
X199670Y59613D01*
X199744Y59631D01*
X199819Y59641D01*
X199983Y59690D01*
X200149Y59731D01*
X200218Y59761D01*
X200292Y59783D01*
X200445Y59859D01*
X200602Y59926D01*
X200666Y59967D01*
X200735Y60000D01*
X200874Y60099D01*
X201018Y60191D01*
X201075Y60242D01*
X201137Y60286D01*
X201258Y60406D01*
X201386Y60520D01*
X201434Y60579D01*
X201488Y60633D01*
X201589Y60771D01*
X201696Y60904D01*
X201733Y60970D01*
X201778Y61031D01*
X201855Y61184D01*
X201940Y61332D01*
X201966Y61404D01*
X202001Y61472D01*
X202052Y61635D01*
X202111Y61795D01*
X202126Y61870D01*
X202149Y61942D01*
X202161Y62047D01*
X202206Y62279D01*
X202209Y62365D01*
X203118Y63275D01*
X211364Y63275D01*
X211440Y63281D01*
X211516Y63279D01*
X211685Y63301D01*
X211856Y63315D01*
X211930Y63333D01*
X212005Y63343D01*
X212169Y63392D01*
X212335Y63433D01*
X212404Y63463D01*
X212478Y63485D01*
X212631Y63561D01*
X212788Y63628D01*
X212852Y63669D01*
X212921Y63702D01*
X213060Y63801D01*
X213204Y63893D01*
X213261Y63944D01*
X213323Y63988D01*
X213444Y64108D01*
X213572Y64222D01*
X213620Y64281D01*
X213674Y64335D01*
X213775Y64473D01*
X213882Y64606D01*
X213919Y64672D01*
X213964Y64733D01*
X214041Y64886D01*
X214126Y65034D01*
X214152Y65106D01*
X214187Y65174D01*
X214238Y65337D01*
X214297Y65497D01*
X214312Y65572D01*
X214335Y65644D01*
X214347Y65749D01*
X214392Y65981D01*
X214399Y66217D01*
X214411Y66322D01*
X214411Y95420D01*
X214402Y95534D01*
X214403Y95648D01*
X214382Y95780D01*
X214371Y95912D01*
X214344Y96023D01*
X214326Y96136D01*
X214285Y96262D01*
X214253Y96391D01*
X214208Y96496D01*
X214172Y96604D01*
X214110Y96722D01*
X214058Y96844D01*
X213997Y96940D01*
X213944Y97042D01*
X213885Y97115D01*
X213793Y97260D01*
X213577Y97502D01*
X213519Y97575D01*
X213475Y97618D01*
X213475Y120382D01*
X214368Y121275D01*
X225632Y121275D01*
X226525Y120382D01*
X226525Y97618D01*
X226481Y97575D01*
X226407Y97488D01*
X226326Y97408D01*
X226248Y97300D01*
X226162Y97199D01*
X226103Y97101D01*
X226036Y97009D01*
X225976Y96890D01*
X225907Y96776D01*
X225865Y96670D01*
X225813Y96568D01*
X225773Y96442D01*
X225724Y96318D01*
X225699Y96207D01*
X225665Y96098D01*
X225655Y96004D01*
X225617Y95837D01*
X225599Y95512D01*
X225589Y95420D01*
X225589Y66322D01*
X225595Y66246D01*
X225593Y66170D01*
X225615Y66001D01*
X225629Y65830D01*
X225647Y65756D01*
X225657Y65681D01*
X225706Y65517D01*
X225747Y65351D01*
X225777Y65282D01*
X225799Y65208D01*
X225875Y65055D01*
X225942Y64898D01*
X225983Y64834D01*
X226016Y64765D01*
X226115Y64626D01*
X226207Y64482D01*
X226258Y64425D01*
X226302Y64363D01*
X226422Y64242D01*
X226536Y64114D01*
X226595Y64066D01*
X226649Y64012D01*
X226787Y63911D01*
X226920Y63804D01*
X226986Y63767D01*
X227047Y63722D01*
X227200Y63645D01*
X227348Y63560D01*
X227420Y63534D01*
X227488Y63499D01*
X227651Y63448D01*
X227811Y63389D01*
X227886Y63374D01*
X227958Y63351D01*
X228063Y63339D01*
X228295Y63294D01*
X228531Y63287D01*
X228636Y63275D01*
X236882Y63275D01*
X237775Y62382D01*
X237775Y43636D01*
X237781Y43560D01*
X237779Y43484D01*
X237801Y43315D01*
X237815Y43144D01*
X237833Y43070D01*
X237843Y42995D01*
X237892Y42831D01*
X237933Y42665D01*
X237963Y42596D01*
X237985Y42522D01*
X238061Y42369D01*
X238128Y42212D01*
X238169Y42148D01*
X238202Y42079D01*
X238301Y41940D01*
X238393Y41796D01*
X238444Y41739D01*
X238488Y41677D01*
X238608Y41556D01*
X238722Y41428D01*
X238781Y41380D01*
X238835Y41326D01*
X238973Y41225D01*
X239106Y41118D01*
X239172Y41081D01*
X239233Y41036D01*
X239386Y40959D01*
X239534Y40874D01*
X239606Y40848D01*
X239674Y40813D01*
X239837Y40762D01*
X239997Y40703D01*
X240072Y40688D01*
X240144Y40665D01*
X240249Y40653D01*
X240481Y40608D01*
X240717Y40601D01*
X240822Y40589D01*
X315116Y40589D01*
X315305Y40604D01*
X315495Y40612D01*
X315551Y40624D01*
X315607Y40629D01*
X315792Y40674D01*
X315978Y40713D01*
X316031Y40734D01*
X316086Y40747D01*
X316261Y40822D01*
X316438Y40891D01*
X316487Y40919D01*
X316540Y40942D01*
X316700Y41044D01*
X316864Y41140D01*
X316908Y41176D01*
X316956Y41207D01*
X317097Y41334D01*
X317244Y41455D01*
X317281Y41498D01*
X317324Y41536D01*
X317443Y41684D01*
X317568Y41827D01*
X317598Y41875D01*
X317634Y41920D01*
X317727Y42084D01*
X317828Y42246D01*
X317849Y42299D01*
X317878Y42348D01*
X317944Y42526D01*
X318016Y42702D01*
X318029Y42757D01*
X318049Y42811D01*
X318086Y42998D01*
X318129Y43182D01*
X318133Y43239D01*
X318144Y43295D01*
X318150Y43485D01*
X318163Y43675D01*
X318157Y43731D01*
X318159Y43788D01*
X318134Y43977D01*
X318117Y44166D01*
X318102Y44221D01*
X318095Y44277D01*
X318040Y44459D01*
X317992Y44643D01*
X317969Y44695D01*
X317952Y44749D01*
X317869Y44920D01*
X317792Y45094D01*
X317760Y45142D01*
X317735Y45193D01*
X317626Y45347D01*
X317521Y45507D01*
X317483Y45549D01*
X317450Y45595D01*
X317317Y45730D01*
X317188Y45870D01*
X317151Y45897D01*
X317103Y45946D01*
X316763Y46193D01*
X316267Y46690D01*
X315932Y47269D01*
X315759Y47915D01*
X315759Y50203D01*
X323800Y50203D01*
X331841Y50203D01*
X331841Y47915D01*
X331668Y47269D01*
X331333Y46690D01*
X330823Y46180D01*
X330804Y46167D01*
X330644Y46065D01*
X330602Y46027D01*
X330555Y45995D01*
X330418Y45863D01*
X330276Y45736D01*
X330241Y45692D01*
X330200Y45653D01*
X330086Y45500D01*
X329966Y45352D01*
X329938Y45303D01*
X329904Y45257D01*
X329816Y45089D01*
X329722Y44924D01*
X329703Y44870D01*
X329676Y44820D01*
X329617Y44639D01*
X329551Y44461D01*
X329540Y44405D01*
X329522Y44351D01*
X329493Y44163D01*
X329456Y43977D01*
X329454Y43920D01*
X329446Y43864D01*
X329447Y43674D01*
X329441Y43484D01*
X329448Y43427D01*
X329449Y43371D01*
X329480Y43183D01*
X329505Y42995D01*
X329522Y42940D01*
X329531Y42884D01*
X329593Y42704D01*
X329648Y42522D01*
X329673Y42471D01*
X329691Y42418D01*
X329781Y42250D01*
X329865Y42079D01*
X329897Y42033D01*
X329924Y41983D01*
X330040Y41832D01*
X330150Y41677D01*
X330190Y41637D01*
X330225Y41591D01*
X330363Y41461D01*
X330497Y41326D01*
X330543Y41293D01*
X330584Y41254D01*
X330742Y41148D01*
X330896Y41036D01*
X330946Y41010D01*
X330994Y40978D01*
X331166Y40899D01*
X331336Y40813D01*
X331390Y40796D01*
X331442Y40773D01*
X331625Y40722D01*
X331806Y40665D01*
X331852Y40660D01*
X331918Y40642D01*
X332408Y40590D01*
X332453Y40592D01*
X332484Y40589D01*
X439151Y40589D01*
X439189Y40592D01*
X439227Y40590D01*
X439435Y40612D01*
X439643Y40629D01*
X439680Y40638D01*
X439718Y40642D01*
X439919Y40697D01*
X440121Y40747D01*
X440156Y40762D01*
X440193Y40773D01*
X440383Y40860D01*
X440575Y40942D01*
X440607Y40962D01*
X440642Y40978D01*
X440815Y41095D01*
X440991Y41207D01*
X441019Y41232D01*
X441051Y41254D01*
X441203Y41396D01*
X441359Y41536D01*
X441383Y41565D01*
X441411Y41591D01*
X441538Y41757D01*
X441669Y41920D01*
X441688Y41953D01*
X441711Y41983D01*
X441809Y42167D01*
X441913Y42348D01*
X441926Y42384D01*
X441944Y42418D01*
X442012Y42615D01*
X442084Y42811D01*
X442092Y42848D01*
X442104Y42884D01*
X442139Y43091D01*
X442179Y43295D01*
X442180Y43333D01*
X442187Y43371D01*
X442188Y43580D01*
X442194Y43788D01*
X442189Y43826D01*
X442190Y43864D01*
X442157Y44071D01*
X442130Y44277D01*
X442119Y44314D01*
X442113Y44351D01*
X442048Y44550D01*
X441987Y44749D01*
X441971Y44784D01*
X441959Y44820D01*
X441862Y45005D01*
X441771Y45193D01*
X441749Y45224D01*
X441731Y45258D01*
X441673Y45330D01*
X441485Y45595D01*
X441364Y45717D01*
X441306Y45791D01*
X432786Y54310D01*
X432728Y54359D01*
X432676Y54415D01*
X432541Y54519D01*
X432410Y54629D01*
X432345Y54669D01*
X432285Y54715D01*
X432134Y54796D01*
X431988Y54884D01*
X431917Y54912D01*
X431850Y54948D01*
X431688Y55004D01*
X431530Y55067D01*
X431455Y55084D01*
X431383Y55108D01*
X431215Y55137D01*
X431048Y55174D01*
X430972Y55178D01*
X430897Y55191D01*
X430726Y55192D01*
X430556Y55202D01*
X430480Y55194D01*
X430404Y55194D01*
X430235Y55167D01*
X430065Y55149D01*
X429992Y55129D01*
X429916Y55117D01*
X429754Y55064D01*
X429589Y55019D01*
X429520Y54987D01*
X429448Y54963D01*
X429296Y54884D01*
X429141Y54813D01*
X429078Y54770D01*
X429010Y54735D01*
X428928Y54670D01*
X428732Y54538D01*
X428559Y54376D01*
X428477Y54310D01*
X427005Y52838D01*
X425290Y51123D01*
X423610Y50427D01*
X404090Y50427D01*
X402410Y51123D01*
X400695Y52838D01*
X377700Y75833D01*
X377613Y75907D01*
X377533Y75988D01*
X377426Y76066D01*
X377325Y76152D01*
X377227Y76211D01*
X377134Y76278D01*
X377016Y76338D01*
X376902Y76407D01*
X376796Y76449D01*
X376694Y76501D01*
X376567Y76541D01*
X376444Y76590D01*
X376333Y76615D01*
X376223Y76649D01*
X376130Y76659D01*
X375962Y76697D01*
X375638Y76715D01*
X375546Y76725D01*
X371243Y76725D01*
X370350Y77618D01*
X370350Y86527D01*
X370347Y86565D01*
X370349Y86603D01*
X370327Y86811D01*
X370310Y87018D01*
X370301Y87056D01*
X370297Y87093D01*
X370242Y87295D01*
X370192Y87497D01*
X370177Y87532D01*
X370166Y87569D01*
X370079Y87759D01*
X369997Y87951D01*
X369977Y87983D01*
X369961Y88017D01*
X369844Y88191D01*
X369732Y88367D01*
X369707Y88395D01*
X369685Y88427D01*
X369542Y88579D01*
X369403Y88735D01*
X369374Y88759D01*
X369348Y88786D01*
X369182Y88914D01*
X369019Y89045D01*
X368986Y89063D01*
X368956Y89087D01*
X368772Y89185D01*
X368591Y89289D01*
X368555Y89302D01*
X368521Y89320D01*
X368324Y89388D01*
X368128Y89460D01*
X368091Y89467D01*
X368055Y89480D01*
X367848Y89515D01*
X367644Y89555D01*
X367606Y89556D01*
X367568Y89562D01*
X367359Y89564D01*
X367151Y89570D01*
X367113Y89565D01*
X367075Y89565D01*
X366868Y89533D01*
X366662Y89506D01*
X366625Y89495D01*
X366588Y89489D01*
X366389Y89424D01*
X366190Y89363D01*
X366155Y89346D01*
X366119Y89335D01*
X365934Y89238D01*
X365746Y89146D01*
X365715Y89124D01*
X365681Y89107D01*
X365609Y89049D01*
X365344Y88861D01*
X365222Y88740D01*
X365148Y88681D01*
X344555Y68088D01*
X342840Y66373D01*
X341160Y65677D01*
X333146Y65677D01*
X333032Y65668D01*
X332918Y65669D01*
X332787Y65648D01*
X332654Y65637D01*
X332543Y65610D01*
X332431Y65592D01*
X332304Y65551D01*
X332175Y65519D01*
X332071Y65474D01*
X331962Y65438D01*
X331844Y65376D01*
X331722Y65324D01*
X331626Y65263D01*
X331525Y65210D01*
X331451Y65151D01*
X331306Y65059D01*
X331064Y64843D01*
X330991Y64785D01*
X330830Y64623D01*
X330780Y64565D01*
X330725Y64513D01*
X330621Y64378D01*
X330510Y64247D01*
X330471Y64182D01*
X330424Y64121D01*
X330344Y63971D01*
X330256Y63825D01*
X330227Y63754D01*
X330191Y63687D01*
X330136Y63525D01*
X330072Y63367D01*
X330056Y63292D01*
X330031Y63220D01*
X330003Y63052D01*
X329966Y62885D01*
X329961Y62809D01*
X329948Y62734D01*
X329947Y62563D01*
X329938Y62393D01*
X329946Y62317D01*
X329945Y62240D01*
X329972Y62072D01*
X329990Y61902D01*
X330010Y61828D01*
X330022Y61753D01*
X330075Y61591D01*
X330121Y61426D01*
X330152Y61357D01*
X330176Y61284D01*
X330255Y61133D01*
X330326Y60978D01*
X330369Y60915D01*
X330404Y60847D01*
X330470Y60764D01*
X330602Y60569D01*
X330764Y60396D01*
X330829Y60314D01*
X331333Y59810D01*
X331668Y59231D01*
X331841Y58585D01*
X331841Y56297D01*
X323800Y56297D01*
X315759Y56297D01*
X315759Y58585D01*
X315932Y59231D01*
X316267Y59810D01*
X316771Y60314D01*
X316820Y60372D01*
X316875Y60424D01*
X316979Y60559D01*
X317090Y60690D01*
X317129Y60755D01*
X317176Y60815D01*
X317256Y60966D01*
X317345Y61112D01*
X317373Y61183D01*
X317409Y61250D01*
X317464Y61411D01*
X317528Y61570D01*
X317544Y61645D01*
X317569Y61717D01*
X317597Y61885D01*
X317634Y62052D01*
X317639Y62128D01*
X317652Y62203D01*
X317653Y62374D01*
X317662Y62544D01*
X317654Y62620D01*
X317655Y62696D01*
X317628Y62865D01*
X317610Y63035D01*
X317590Y63108D01*
X317578Y63184D01*
X317524Y63346D01*
X317479Y63511D01*
X317448Y63580D01*
X317424Y63652D01*
X317345Y63804D01*
X317274Y63959D01*
X317231Y64022D01*
X317196Y64090D01*
X317130Y64172D01*
X316998Y64368D01*
X316836Y64541D01*
X316775Y64617D01*
X316775Y75882D01*
X317668Y76775D01*
X329932Y76775D01*
X330991Y75715D01*
X331078Y75641D01*
X331158Y75560D01*
X331266Y75482D01*
X331367Y75396D01*
X331465Y75337D01*
X331557Y75270D01*
X331676Y75210D01*
X331790Y75141D01*
X331896Y75099D01*
X331998Y75047D01*
X332124Y75007D01*
X332248Y74958D01*
X332359Y74933D01*
X332468Y74899D01*
X332562Y74889D01*
X332729Y74851D01*
X333054Y74833D01*
X333146Y74823D01*
X337094Y74823D01*
X337207Y74832D01*
X337322Y74831D01*
X337453Y74852D01*
X337585Y74863D01*
X337696Y74890D01*
X337809Y74908D01*
X337935Y74949D01*
X338064Y74981D01*
X338169Y75026D01*
X338278Y75062D01*
X338396Y75124D01*
X338518Y75176D01*
X338614Y75237D01*
X338715Y75290D01*
X338789Y75349D01*
X338934Y75441D01*
X339176Y75657D01*
X339248Y75715D01*
X367410Y103877D01*
X368469Y104315D01*
X368663Y104415D01*
X368860Y104511D01*
X368883Y104528D01*
X368908Y104540D01*
X369084Y104670D01*
X369262Y104797D01*
X369282Y104817D01*
X369305Y104833D01*
X369454Y104986D01*
X369458Y104989D01*
X369527Y105059D01*
X369613Y105143D01*
X369616Y105147D01*
X371243Y106775D01*
X372650Y106775D01*
X372868Y106792D01*
X373086Y106806D01*
X373114Y106812D01*
X373142Y106815D01*
X373354Y106867D01*
X373567Y106916D01*
X373593Y106927D01*
X373620Y106933D01*
X373821Y107019D01*
X374024Y107102D01*
X374048Y107117D01*
X374074Y107128D01*
X374258Y107245D01*
X374445Y107360D01*
X374466Y107378D01*
X374490Y107393D01*
X374653Y107539D01*
X374819Y107681D01*
X374837Y107703D01*
X374858Y107722D01*
X374995Y107892D01*
X375031Y107935D01*
X375186Y108089D01*
X375241Y108155D01*
X375304Y108214D01*
X375364Y108299D01*
X375505Y108465D01*
X375620Y108655D01*
X376136Y109067D01*
X376309Y109229D01*
X376391Y109295D01*
X411834Y144738D01*
X413888Y145589D01*
X596423Y145589D01*
X596537Y145598D01*
X596651Y145597D01*
X596782Y145618D01*
X596915Y145629D01*
X597025Y145656D01*
X597138Y145674D01*
X597265Y145715D01*
X597393Y145747D01*
X597498Y145792D01*
X597607Y145828D01*
X597725Y145890D01*
X597847Y145942D01*
X597943Y146003D01*
X598044Y146056D01*
X598118Y146115D01*
X598263Y146207D01*
X598505Y146423D01*
X598578Y146481D01*
X636834Y184738D01*
X638888Y185589D01*
X671112Y185589D01*
X673166Y184738D01*
X686738Y171166D01*
X687589Y169112D01*
X687589Y152694D01*
X687598Y152580D01*
X687597Y152466D01*
X687618Y152335D01*
X687629Y152202D01*
X687656Y152091D01*
X687674Y151979D01*
X687715Y151852D01*
X687747Y151723D01*
X687792Y151619D01*
X687828Y151510D01*
X687890Y151392D01*
X687942Y151270D01*
X688003Y151174D01*
X688056Y151072D01*
X688115Y150999D01*
X688207Y150854D01*
X688423Y150612D01*
X688481Y150539D01*
X689845Y149175D01*
X689903Y149126D01*
X689956Y149070D01*
X690091Y148966D01*
X690221Y148856D01*
X690286Y148816D01*
X690347Y148770D01*
X690497Y148689D01*
X690644Y148601D01*
X690715Y148573D01*
X690782Y148537D01*
X690943Y148481D01*
X691102Y148418D01*
X691176Y148402D01*
X691248Y148377D01*
X691417Y148348D01*
X691584Y148311D01*
X691660Y148307D01*
X691735Y148294D01*
X691906Y148293D01*
X692076Y148284D01*
X692152Y148292D01*
X692228Y148291D01*
X692397Y148318D01*
X692567Y148336D01*
X692640Y148356D01*
X692715Y148368D01*
X692878Y148421D01*
X693042Y148466D01*
X693112Y148498D01*
X693184Y148522D01*
X693335Y148601D01*
X693491Y148672D01*
X693554Y148715D01*
X693622Y148750D01*
X693704Y148816D01*
X693900Y148948D01*
X694072Y149109D01*
X694155Y149175D01*
X696865Y151886D01*
X700197Y153266D01*
X703803Y153266D01*
X707135Y151886D01*
X709685Y149336D01*
X711281Y145481D01*
X711350Y145347D01*
X711410Y145209D01*
X711462Y145128D01*
X711507Y145042D01*
X711596Y144921D01*
X711677Y144795D01*
X711742Y144723D01*
X711799Y144645D01*
X711907Y144540D01*
X712008Y144429D01*
X712083Y144368D01*
X712153Y144300D01*
X712276Y144214D01*
X712287Y144205D01*
X712229Y144155D01*
X712150Y144099D01*
X712042Y143994D01*
X711928Y143896D01*
X711866Y143822D01*
X711797Y143754D01*
X711708Y143633D01*
X711611Y143518D01*
X711576Y143454D01*
X711504Y143357D01*
X711287Y142931D01*
X711281Y142921D01*
X709685Y139066D01*
X707135Y136516D01*
X703803Y135136D01*
X700197Y135136D01*
X696865Y136516D01*
X694155Y139227D01*
X694097Y139276D01*
X694045Y139332D01*
X693909Y139436D01*
X693779Y139546D01*
X693713Y139586D01*
X693653Y139632D01*
X693503Y139713D01*
X693356Y139801D01*
X693286Y139829D01*
X693218Y139865D01*
X693057Y139921D01*
X692898Y139984D01*
X692824Y140000D01*
X692752Y140025D01*
X692583Y140054D01*
X692417Y140091D01*
X692340Y140095D01*
X692265Y140108D01*
X692094Y140109D01*
X691924Y140118D01*
X691848Y140110D01*
X691772Y140111D01*
X691603Y140084D01*
X691433Y140066D01*
X691360Y140046D01*
X691285Y140034D01*
X691122Y139981D01*
X690958Y139936D01*
X690888Y139904D01*
X690816Y139880D01*
X690664Y139801D01*
X690509Y139730D01*
X690446Y139687D01*
X690378Y139652D01*
X690296Y139586D01*
X690100Y139454D01*
X689928Y139292D01*
X689845Y139227D01*
X687135Y136516D01*
X683803Y135136D01*
X680197Y135136D01*
X676865Y136516D01*
X674315Y139066D01*
X672935Y142398D01*
X672935Y146004D01*
X674315Y149336D01*
X675519Y150539D01*
X675593Y150626D01*
X675674Y150706D01*
X675752Y150814D01*
X675838Y150915D01*
X675897Y151013D01*
X675964Y151105D01*
X676024Y151224D01*
X676093Y151338D01*
X676135Y151444D01*
X676187Y151546D01*
X676227Y151673D01*
X676276Y151796D01*
X676301Y151907D01*
X676335Y152016D01*
X676345Y152110D01*
X676383Y152277D01*
X676401Y152602D01*
X676411Y152694D01*
X676411Y164423D01*
X676402Y164537D01*
X676403Y164651D01*
X676382Y164782D01*
X676371Y164915D01*
X676344Y165025D01*
X676326Y165138D01*
X676285Y165265D01*
X676253Y165393D01*
X676208Y165498D01*
X676172Y165607D01*
X676110Y165725D01*
X676058Y165847D01*
X675997Y165943D01*
X675944Y166044D01*
X675885Y166118D01*
X675793Y166263D01*
X675577Y166505D01*
X675519Y166578D01*
X668578Y173519D01*
X668491Y173593D01*
X668410Y173674D01*
X668303Y173752D01*
X668202Y173838D01*
X668104Y173897D01*
X668012Y173964D01*
X667893Y174024D01*
X667779Y174093D01*
X667673Y174135D01*
X667571Y174187D01*
X667444Y174227D01*
X667321Y174276D01*
X667210Y174301D01*
X667101Y174335D01*
X667007Y174345D01*
X666839Y174383D01*
X666515Y174401D01*
X666423Y174411D01*
X643577Y174411D01*
X643463Y174402D01*
X643349Y174403D01*
X643218Y174382D01*
X643085Y174371D01*
X642975Y174344D01*
X642862Y174326D01*
X642735Y174285D01*
X642607Y174253D01*
X642502Y174208D01*
X642393Y174172D01*
X642275Y174110D01*
X642153Y174058D01*
X642057Y173997D01*
X641956Y173944D01*
X641882Y173885D01*
X641737Y173793D01*
X641495Y173577D01*
X641422Y173519D01*
X603166Y135262D01*
X601112Y134411D01*
X418577Y134411D01*
X418463Y134402D01*
X418349Y134403D01*
X418218Y134382D01*
X418085Y134371D01*
X417975Y134344D01*
X417862Y134326D01*
X417735Y134285D01*
X417607Y134253D01*
X417502Y134208D01*
X417393Y134172D01*
X417275Y134110D01*
X417153Y134058D01*
X417057Y133997D01*
X416956Y133944D01*
X416882Y133885D01*
X416737Y133793D01*
X416495Y133577D01*
X416422Y133519D01*
X385292Y102389D01*
X385218Y102302D01*
X385137Y102221D01*
X385059Y102114D01*
X384973Y102013D01*
X384914Y101915D01*
X384847Y101823D01*
X384787Y101704D01*
X384718Y101590D01*
X384676Y101484D01*
X384624Y101382D01*
X384584Y101255D01*
X384535Y101132D01*
X384510Y101021D01*
X384476Y100912D01*
X384466Y100818D01*
X384428Y100650D01*
X384410Y100326D01*
X384400Y100234D01*
X384400Y94618D01*
X383686Y93905D01*
X383637Y93847D01*
X383581Y93795D01*
X383477Y93659D01*
X383367Y93529D01*
X383327Y93463D01*
X383281Y93403D01*
X383200Y93253D01*
X383112Y93106D01*
X383084Y93036D01*
X383048Y92968D01*
X382992Y92807D01*
X382929Y92648D01*
X382912Y92574D01*
X382888Y92502D01*
X382859Y92333D01*
X382822Y92167D01*
X382818Y92090D01*
X382805Y92015D01*
X382804Y91845D01*
X382794Y91674D01*
X382803Y91598D01*
X382802Y91522D01*
X382829Y91353D01*
X382847Y91183D01*
X382867Y91110D01*
X382879Y91035D01*
X382932Y90872D01*
X382977Y90708D01*
X383009Y90639D01*
X383033Y90566D01*
X383112Y90414D01*
X383183Y90259D01*
X383226Y90196D01*
X383261Y90128D01*
X383326Y90046D01*
X383458Y89850D01*
X383620Y89678D01*
X383686Y89595D01*
X384400Y88882D01*
X384400Y83329D01*
X384409Y83216D01*
X384408Y83101D01*
X384429Y82970D01*
X384440Y82838D01*
X384467Y82727D01*
X384485Y82614D01*
X384526Y82488D01*
X384558Y82359D01*
X384603Y82254D01*
X384639Y82145D01*
X384701Y82027D01*
X384753Y81905D01*
X384814Y81809D01*
X384867Y81708D01*
X384926Y81634D01*
X385018Y81489D01*
X385234Y81247D01*
X385292Y81175D01*
X406002Y60465D01*
X406089Y60391D01*
X406169Y60310D01*
X406276Y60232D01*
X406378Y60146D01*
X406475Y60087D01*
X406568Y60020D01*
X406686Y59960D01*
X406800Y59891D01*
X406906Y59849D01*
X407008Y59797D01*
X407135Y59757D01*
X407258Y59708D01*
X407369Y59683D01*
X407479Y59649D01*
X407572Y59639D01*
X407740Y59601D01*
X408064Y59583D01*
X408156Y59573D01*
X419544Y59573D01*
X419657Y59582D01*
X419772Y59581D01*
X419903Y59602D01*
X420035Y59613D01*
X420146Y59640D01*
X420259Y59658D01*
X420385Y59699D01*
X420514Y59731D01*
X420619Y59776D01*
X420728Y59812D01*
X420845Y59873D01*
X420968Y59926D01*
X421064Y59987D01*
X421165Y60040D01*
X421239Y60099D01*
X421384Y60191D01*
X421626Y60407D01*
X421698Y60465D01*
X423033Y61800D01*
X423107Y61887D01*
X423188Y61967D01*
X423266Y62074D01*
X423352Y62175D01*
X423411Y62273D01*
X423478Y62366D01*
X423538Y62484D01*
X423607Y62598D01*
X423649Y62704D01*
X423701Y62806D01*
X423741Y62933D01*
X423790Y63056D01*
X423815Y63168D01*
X423849Y63277D01*
X423859Y63370D01*
X423897Y63538D01*
X423915Y63862D01*
X423925Y63954D01*
X423925Y68882D01*
X424639Y69595D01*
X424688Y69653D01*
X424744Y69706D01*
X424848Y69841D01*
X424958Y69971D01*
X424998Y70037D01*
X425044Y70097D01*
X425125Y70247D01*
X425213Y70394D01*
X425241Y70465D01*
X425277Y70532D01*
X425333Y70693D01*
X425396Y70852D01*
X425413Y70926D01*
X425437Y70998D01*
X425466Y71167D01*
X425503Y71334D01*
X425507Y71410D01*
X425520Y71485D01*
X425521Y71656D01*
X425531Y71826D01*
X425522Y71902D01*
X425523Y71978D01*
X425496Y72147D01*
X425478Y72317D01*
X425458Y72390D01*
X425446Y72465D01*
X425393Y72628D01*
X425348Y72792D01*
X425316Y72862D01*
X425292Y72934D01*
X425213Y73086D01*
X425142Y73241D01*
X425099Y73304D01*
X425064Y73372D01*
X424999Y73454D01*
X424867Y73650D01*
X424705Y73822D01*
X424639Y73905D01*
X423925Y74618D01*
X423925Y85882D01*
X424818Y86775D01*
X429046Y86775D01*
X429159Y86784D01*
X429274Y86783D01*
X429405Y86804D01*
X429537Y86815D01*
X429648Y86842D01*
X429761Y86860D01*
X429887Y86901D01*
X430016Y86933D01*
X430121Y86978D01*
X430230Y87014D01*
X430348Y87076D01*
X430470Y87128D01*
X430566Y87189D01*
X430667Y87242D01*
X430741Y87301D01*
X430886Y87393D01*
X431128Y87609D01*
X431200Y87667D01*
X431553Y88020D01*
X431653Y88137D01*
X431717Y88197D01*
X432161Y88718D01*
X432268Y88784D01*
X432342Y88849D01*
X432971Y89109D01*
X433108Y89179D01*
X433190Y89210D01*
X433800Y89521D01*
X433924Y89542D01*
X434017Y89573D01*
X434697Y89573D01*
X434851Y89585D01*
X434939Y89582D01*
X435621Y89637D01*
X435744Y89608D01*
X436144Y89579D01*
X436204Y89573D01*
X465403Y89573D01*
X465479Y89579D01*
X465555Y89577D01*
X465724Y89599D01*
X465895Y89613D01*
X465969Y89631D01*
X466044Y89641D01*
X466208Y89690D01*
X466374Y89731D01*
X466443Y89761D01*
X466517Y89783D01*
X466670Y89859D01*
X466827Y89926D01*
X466891Y89967D01*
X466960Y90000D01*
X467099Y90099D01*
X467243Y90191D01*
X467300Y90242D01*
X467362Y90286D01*
X467483Y90406D01*
X467611Y90520D01*
X467659Y90579D01*
X467713Y90633D01*
X467814Y90771D01*
X467921Y90904D01*
X467958Y90970D01*
X468003Y91031D01*
X468080Y91184D01*
X468165Y91332D01*
X468191Y91404D01*
X468226Y91472D01*
X468277Y91635D01*
X468336Y91795D01*
X468351Y91870D01*
X468374Y91942D01*
X468386Y92047D01*
X468431Y92279D01*
X468438Y92515D01*
X468450Y92620D01*
X468450Y95382D01*
X468495Y95435D01*
X468550Y95487D01*
X468654Y95623D01*
X468765Y95753D01*
X468804Y95818D01*
X468851Y95879D01*
X468931Y96029D01*
X469020Y96175D01*
X469048Y96246D01*
X469084Y96313D01*
X469139Y96475D01*
X469203Y96633D01*
X469219Y96708D01*
X469244Y96780D01*
X469272Y96948D01*
X469309Y97115D01*
X469314Y97191D01*
X469327Y97266D01*
X469328Y97437D01*
X469337Y97608D01*
X469329Y97684D01*
X469330Y97760D01*
X469303Y97928D01*
X469285Y98098D01*
X469265Y98172D01*
X469253Y98247D01*
X469200Y98409D01*
X469154Y98574D01*
X469122Y98643D01*
X469099Y98716D01*
X469020Y98867D01*
X468949Y99022D01*
X468906Y99086D01*
X468871Y99153D01*
X468805Y99235D01*
X468673Y99432D01*
X468511Y99604D01*
X468446Y99686D01*
X467942Y100190D01*
X467607Y100769D01*
X467434Y101415D01*
X467434Y103703D01*
X475475Y103703D01*
X483516Y103703D01*
X483516Y101415D01*
X483343Y100769D01*
X483008Y100190D01*
X482504Y99686D01*
X482455Y99628D01*
X482400Y99576D01*
X482296Y99441D01*
X482185Y99310D01*
X482146Y99245D01*
X482099Y99185D01*
X482019Y99034D01*
X481930Y98888D01*
X481902Y98817D01*
X481866Y98750D01*
X481811Y98589D01*
X481747Y98430D01*
X481731Y98355D01*
X481706Y98283D01*
X481678Y98115D01*
X481641Y97948D01*
X481636Y97872D01*
X481623Y97797D01*
X481622Y97626D01*
X481613Y97456D01*
X481621Y97380D01*
X481620Y97304D01*
X481647Y97135D01*
X481665Y96965D01*
X481685Y96892D01*
X481697Y96816D01*
X481751Y96654D01*
X481796Y96489D01*
X481827Y96420D01*
X481851Y96348D01*
X481930Y96196D01*
X482001Y96041D01*
X482044Y95978D01*
X482079Y95910D01*
X482145Y95828D01*
X482277Y95632D01*
X482439Y95459D01*
X482500Y95383D01*
X482500Y92620D01*
X482506Y92544D01*
X482504Y92468D01*
X482526Y92299D01*
X482540Y92128D01*
X482558Y92054D01*
X482568Y91979D01*
X482617Y91815D01*
X482658Y91649D01*
X482688Y91580D01*
X482710Y91506D01*
X482786Y91353D01*
X482853Y91196D01*
X482894Y91132D01*
X482927Y91063D01*
X483026Y90924D01*
X483118Y90780D01*
X483169Y90723D01*
X483213Y90661D01*
X483333Y90540D01*
X483447Y90412D01*
X483506Y90364D01*
X483560Y90310D01*
X483698Y90209D01*
X483831Y90102D01*
X483897Y90065D01*
X483958Y90020D01*
X484111Y89943D01*
X484259Y89858D01*
X484331Y89832D01*
X484399Y89797D01*
X484562Y89746D01*
X484722Y89687D01*
X484797Y89672D01*
X484869Y89649D01*
X484974Y89637D01*
X485206Y89592D01*
X485442Y89585D01*
X485547Y89573D01*
X485910Y89573D01*
X487590Y88877D01*
X503877Y72590D01*
X504573Y70910D01*
X504573Y62106D01*
X504574Y62097D01*
X504573Y62087D01*
X504593Y61851D01*
X504613Y61615D01*
X504615Y61605D01*
X504616Y61595D01*
X504627Y61557D01*
X504731Y61136D01*
X504783Y61016D01*
X504799Y60961D01*
X504799Y59045D01*
X504068Y57282D01*
X502718Y55932D01*
X500955Y55201D01*
X499045Y55201D01*
X497282Y55932D01*
X495932Y57282D01*
X495201Y59045D01*
X495201Y60955D01*
X495203Y60958D01*
X495273Y61183D01*
X495347Y61410D01*
X495348Y61419D01*
X495351Y61429D01*
X495355Y61469D01*
X495420Y61897D01*
X495418Y62028D01*
X495427Y62106D01*
X495427Y66844D01*
X495418Y66957D01*
X495419Y67072D01*
X495398Y67203D01*
X495387Y67335D01*
X495360Y67446D01*
X495342Y67559D01*
X495301Y67685D01*
X495269Y67814D01*
X495224Y67919D01*
X495188Y68028D01*
X495126Y68146D01*
X495074Y68268D01*
X495013Y68364D01*
X494960Y68465D01*
X494901Y68539D01*
X494809Y68684D01*
X494593Y68926D01*
X494535Y68998D01*
X483998Y79535D01*
X483911Y79609D01*
X483831Y79690D01*
X483724Y79768D01*
X483622Y79854D01*
X483525Y79913D01*
X483432Y79980D01*
X483314Y80040D01*
X483200Y80109D01*
X483094Y80151D01*
X482992Y80203D01*
X482865Y80243D01*
X482742Y80292D01*
X482631Y80317D01*
X482521Y80351D01*
X482428Y80361D01*
X482260Y80399D01*
X481936Y80417D01*
X481844Y80427D01*
X476124Y80427D01*
X476020Y80419D01*
X475915Y80420D01*
X475819Y80402D01*
X475633Y80387D01*
X475500Y80354D01*
X474923Y80412D01*
X474721Y80416D01*
X474620Y80427D01*
X441022Y80427D01*
X440946Y80421D01*
X440870Y80423D01*
X440701Y80401D01*
X440530Y80387D01*
X440456Y80369D01*
X440381Y80359D01*
X440217Y80310D01*
X440051Y80269D01*
X439982Y80239D01*
X439908Y80217D01*
X439755Y80141D01*
X439598Y80074D01*
X439534Y80033D01*
X439465Y80000D01*
X439326Y79901D01*
X439182Y79809D01*
X439125Y79758D01*
X439063Y79714D01*
X438942Y79594D01*
X438814Y79480D01*
X438766Y79421D01*
X438712Y79367D01*
X438611Y79229D01*
X438504Y79096D01*
X438467Y79030D01*
X438422Y78969D01*
X438345Y78816D01*
X438260Y78668D01*
X438234Y78596D01*
X438199Y78528D01*
X438148Y78365D01*
X438089Y78205D01*
X438074Y78130D01*
X438051Y78058D01*
X438039Y77953D01*
X437994Y77721D01*
X437987Y77485D01*
X437975Y77380D01*
X437975Y74618D01*
X437261Y73905D01*
X437212Y73847D01*
X437156Y73795D01*
X437052Y73659D01*
X436942Y73529D01*
X436902Y73463D01*
X436856Y73403D01*
X436775Y73253D01*
X436687Y73106D01*
X436659Y73036D01*
X436623Y72968D01*
X436567Y72807D01*
X436504Y72648D01*
X436487Y72574D01*
X436463Y72502D01*
X436434Y72333D01*
X436397Y72167D01*
X436393Y72090D01*
X436380Y72015D01*
X436379Y71845D01*
X436369Y71674D01*
X436378Y71598D01*
X436377Y71522D01*
X436404Y71353D01*
X436422Y71183D01*
X436442Y71110D01*
X436454Y71035D01*
X436507Y70872D01*
X436552Y70708D01*
X436584Y70639D01*
X436608Y70566D01*
X436687Y70414D01*
X436758Y70259D01*
X436801Y70196D01*
X436836Y70128D01*
X436901Y70046D01*
X437033Y69850D01*
X437195Y69678D01*
X437261Y69595D01*
X437975Y68882D01*
X437975Y66191D01*
X437984Y66077D01*
X437983Y65963D01*
X438004Y65832D01*
X438015Y65699D01*
X438042Y65589D01*
X438060Y65476D01*
X438101Y65349D01*
X438133Y65221D01*
X438178Y65116D01*
X438214Y65007D01*
X438276Y64889D01*
X438328Y64767D01*
X438389Y64671D01*
X438442Y64570D01*
X438501Y64496D01*
X438593Y64351D01*
X438809Y64109D01*
X438867Y64036D01*
X461422Y41481D01*
X461509Y41407D01*
X461590Y41326D01*
X461697Y41248D01*
X461798Y41162D01*
X461896Y41103D01*
X461988Y41036D01*
X462107Y40976D01*
X462221Y40907D01*
X462327Y40865D01*
X462429Y40813D01*
X462556Y40773D01*
X462679Y40724D01*
X462790Y40699D01*
X462899Y40665D01*
X462993Y40655D01*
X463161Y40617D01*
X463485Y40599D01*
X463577Y40589D01*
X506112Y40589D01*
X508166Y39738D01*
X521422Y26481D01*
X521509Y26407D01*
X521590Y26326D01*
X521697Y26248D01*
X521798Y26162D01*
X521896Y26103D01*
X521988Y26036D01*
X522107Y25976D01*
X522221Y25907D01*
X522327Y25865D01*
X522429Y25813D01*
X522556Y25773D01*
X522679Y25724D01*
X522790Y25699D01*
X522899Y25665D01*
X522993Y25655D01*
X523161Y25617D01*
X523485Y25599D01*
X523577Y25589D01*
X557164Y25589D01*
X557240Y25595D01*
X557316Y25593D01*
X557485Y25615D01*
X557656Y25629D01*
X557730Y25647D01*
X557805Y25657D01*
X557969Y25706D01*
X558135Y25747D01*
X558204Y25777D01*
X558278Y25799D01*
X558431Y25875D01*
X558588Y25942D01*
X558652Y25983D01*
X558721Y26016D01*
X558860Y26115D01*
X559004Y26207D01*
X559061Y26258D01*
X559123Y26302D01*
X559244Y26422D01*
X559372Y26536D01*
X559420Y26595D01*
X559474Y26649D01*
X559575Y26787D01*
X559682Y26920D01*
X559719Y26986D01*
X559764Y27047D01*
X559841Y27200D01*
X559926Y27348D01*
X559952Y27420D01*
X559987Y27488D01*
X560038Y27651D01*
X560097Y27811D01*
X560112Y27886D01*
X560135Y27958D01*
X560147Y28063D01*
X560192Y28295D01*
X560199Y28531D01*
X560211Y28636D01*
X560211Y36631D01*
X560202Y36744D01*
X560203Y36859D01*
X560182Y36990D01*
X560171Y37123D01*
X560144Y37233D01*
X560126Y37346D01*
X560085Y37472D01*
X560053Y37601D01*
X560008Y37706D01*
X559972Y37815D01*
X559910Y37933D01*
X559858Y38055D01*
X559797Y38151D01*
X559744Y38252D01*
X559685Y38326D01*
X559593Y38471D01*
X559377Y38713D01*
X559319Y38786D01*
X557671Y40433D01*
X557671Y45811D01*
X557668Y45849D01*
X557670Y45887D01*
X557648Y46095D01*
X557631Y46303D01*
X557622Y46340D01*
X557618Y46378D01*
X557563Y46579D01*
X557513Y46781D01*
X557498Y46816D01*
X557487Y46853D01*
X557400Y47043D01*
X557318Y47235D01*
X557298Y47267D01*
X557282Y47302D01*
X557165Y47475D01*
X557053Y47651D01*
X557028Y47679D01*
X557006Y47711D01*
X556863Y47863D01*
X556724Y48019D01*
X556695Y48043D01*
X556669Y48071D01*
X556502Y48198D01*
X556340Y48329D01*
X556308Y48347D01*
X556277Y48371D01*
X556093Y48470D01*
X555912Y48573D01*
X555876Y48586D01*
X555842Y48604D01*
X555645Y48672D01*
X555449Y48744D01*
X555412Y48752D01*
X555376Y48764D01*
X555169Y48799D01*
X554965Y48839D01*
X554927Y48840D01*
X554889Y48847D01*
X554680Y48848D01*
X554472Y48854D01*
X554434Y48849D01*
X554396Y48850D01*
X554189Y48817D01*
X553983Y48790D01*
X553946Y48779D01*
X553909Y48773D01*
X553710Y48708D01*
X553511Y48647D01*
X553476Y48631D01*
X553440Y48619D01*
X553255Y48522D01*
X553067Y48431D01*
X553036Y48409D01*
X553002Y48391D01*
X552930Y48333D01*
X552665Y48145D01*
X552543Y48024D01*
X552469Y47966D01*
X549421Y44918D01*
X549347Y44830D01*
X549266Y44750D01*
X549188Y44643D01*
X549102Y44542D01*
X549043Y44444D01*
X548976Y44352D01*
X548916Y44233D01*
X548847Y44119D01*
X548805Y44013D01*
X548753Y43911D01*
X548713Y43785D01*
X548664Y43661D01*
X548639Y43549D01*
X548605Y43441D01*
X548595Y43347D01*
X548557Y43179D01*
X548539Y42855D01*
X548529Y42763D01*
X548529Y40433D01*
X543767Y35671D01*
X537033Y35671D01*
X532271Y40433D01*
X532271Y47905D01*
X532273Y47913D01*
X532309Y48079D01*
X532314Y48155D01*
X532327Y48231D01*
X532328Y48401D01*
X532337Y48571D01*
X532329Y48647D01*
X532330Y48724D01*
X532303Y48892D01*
X532285Y49062D01*
X532265Y49136D01*
X532253Y49211D01*
X532200Y49373D01*
X532155Y49538D01*
X532123Y49607D01*
X532099Y49680D01*
X532020Y49831D01*
X531949Y49986D01*
X531906Y50050D01*
X531871Y50118D01*
X531805Y50200D01*
X531674Y50396D01*
X531511Y50569D01*
X531446Y50651D01*
X516264Y65833D01*
X516177Y65907D01*
X516096Y65988D01*
X515989Y66066D01*
X515888Y66152D01*
X515790Y66211D01*
X515698Y66278D01*
X515579Y66338D01*
X515465Y66407D01*
X515359Y66449D01*
X515257Y66501D01*
X515130Y66541D01*
X515007Y66590D01*
X514896Y66615D01*
X514787Y66649D01*
X514693Y66659D01*
X514525Y66697D01*
X514201Y66715D01*
X514109Y66725D01*
X511968Y66725D01*
X511075Y67618D01*
X511075Y78882D01*
X511120Y78935D01*
X511175Y78987D01*
X511279Y79123D01*
X511390Y79253D01*
X511429Y79318D01*
X511476Y79379D01*
X511556Y79529D01*
X511645Y79675D01*
X511673Y79746D01*
X511709Y79813D01*
X511764Y79975D01*
X511828Y80133D01*
X511844Y80208D01*
X511869Y80280D01*
X511897Y80448D01*
X511934Y80615D01*
X511939Y80691D01*
X511952Y80766D01*
X511953Y80937D01*
X511962Y81108D01*
X511954Y81184D01*
X511955Y81260D01*
X511928Y81428D01*
X511910Y81598D01*
X511890Y81672D01*
X511878Y81747D01*
X511825Y81909D01*
X511779Y82074D01*
X511747Y82143D01*
X511724Y82216D01*
X511645Y82367D01*
X511574Y82522D01*
X511531Y82586D01*
X511496Y82653D01*
X511430Y82735D01*
X511298Y82932D01*
X511136Y83104D01*
X511071Y83186D01*
X510567Y83690D01*
X510232Y84269D01*
X510059Y84915D01*
X510059Y87203D01*
X518100Y87203D01*
X526141Y87203D01*
X526141Y84915D01*
X525968Y84269D01*
X525633Y83690D01*
X525129Y83186D01*
X525080Y83128D01*
X525025Y83076D01*
X524921Y82941D01*
X524810Y82810D01*
X524771Y82745D01*
X524724Y82685D01*
X524644Y82534D01*
X524555Y82388D01*
X524527Y82317D01*
X524491Y82250D01*
X524436Y82089D01*
X524372Y81930D01*
X524356Y81855D01*
X524331Y81783D01*
X524303Y81615D01*
X524266Y81448D01*
X524261Y81372D01*
X524248Y81297D01*
X524247Y81126D01*
X524238Y80956D01*
X524246Y80880D01*
X524245Y80804D01*
X524272Y80635D01*
X524290Y80465D01*
X524310Y80392D01*
X524322Y80316D01*
X524376Y80154D01*
X524421Y79989D01*
X524452Y79920D01*
X524476Y79848D01*
X524555Y79696D01*
X524626Y79541D01*
X524669Y79478D01*
X524704Y79410D01*
X524770Y79328D01*
X524902Y79132D01*
X525064Y78959D01*
X525125Y78883D01*
X525125Y74041D01*
X525134Y73927D01*
X525133Y73813D01*
X525154Y73682D01*
X525165Y73549D01*
X525192Y73439D01*
X525210Y73326D01*
X525251Y73199D01*
X525283Y73071D01*
X525328Y72966D01*
X525364Y72857D01*
X525426Y72739D01*
X525478Y72617D01*
X525539Y72521D01*
X525592Y72420D01*
X525651Y72346D01*
X525743Y72201D01*
X525959Y71959D01*
X526017Y71886D01*
X541145Y56758D01*
X541203Y56709D01*
X541256Y56654D01*
X541391Y56550D01*
X541521Y56439D01*
X541587Y56400D01*
X541647Y56353D01*
X541797Y56273D01*
X541944Y56184D01*
X542015Y56156D01*
X542082Y56120D01*
X542243Y56065D01*
X542402Y56001D01*
X542476Y55985D01*
X542548Y55960D01*
X542717Y55931D01*
X542884Y55894D01*
X542960Y55890D01*
X543035Y55877D01*
X543206Y55876D01*
X543376Y55867D01*
X543452Y55875D01*
X543528Y55874D01*
X543697Y55901D01*
X543867Y55919D01*
X543940Y55939D01*
X544015Y55951D01*
X544178Y56004D01*
X544342Y56050D01*
X544412Y56081D01*
X544484Y56105D01*
X544635Y56184D01*
X544791Y56255D01*
X544854Y56298D01*
X544922Y56333D01*
X545004Y56399D01*
X545200Y56531D01*
X545372Y56693D01*
X545455Y56758D01*
X553434Y64738D01*
X555488Y65589D01*
X584428Y65589D01*
X584504Y65595D01*
X584580Y65593D01*
X584749Y65615D01*
X584920Y65629D01*
X584994Y65647D01*
X585069Y65657D01*
X585233Y65706D01*
X585399Y65747D01*
X585468Y65777D01*
X585542Y65799D01*
X585695Y65875D01*
X585852Y65942D01*
X585916Y65983D01*
X585985Y66016D01*
X586124Y66115D01*
X586268Y66207D01*
X586325Y66258D01*
X586387Y66302D01*
X586508Y66422D01*
X586636Y66536D01*
X586684Y66595D01*
X586738Y66649D01*
X586839Y66787D01*
X586873Y66829D01*
X588368Y68325D01*
X601632Y68325D01*
X602525Y67432D01*
X602525Y54168D01*
X600811Y52455D01*
X600762Y52397D01*
X600706Y52345D01*
X600602Y52209D01*
X600492Y52079D01*
X600452Y52013D01*
X600406Y51953D01*
X600325Y51803D01*
X600237Y51656D01*
X600209Y51586D01*
X600173Y51518D01*
X600117Y51357D01*
X600054Y51198D01*
X600037Y51124D01*
X600013Y51052D01*
X599984Y50883D01*
X599947Y50717D01*
X599943Y50640D01*
X599930Y50565D01*
X599929Y50394D01*
X599919Y50224D01*
X599928Y50148D01*
X599927Y50072D01*
X599954Y49903D01*
X599972Y49733D01*
X599992Y49660D01*
X600004Y49585D01*
X600057Y49422D01*
X600102Y49258D01*
X600134Y49188D01*
X600158Y49116D01*
X600237Y48964D01*
X600308Y48809D01*
X600351Y48746D01*
X600386Y48678D01*
X600451Y48596D01*
X600583Y48400D01*
X600746Y48227D01*
X600811Y48145D01*
X602525Y46432D01*
X602525Y33168D01*
X601632Y32275D01*
X588368Y32275D01*
X587325Y33319D01*
X587238Y33393D01*
X587158Y33474D01*
X587050Y33552D01*
X586949Y33638D01*
X586851Y33697D01*
X586759Y33764D01*
X586640Y33824D01*
X586526Y33893D01*
X586420Y33935D01*
X586318Y33987D01*
X586192Y34027D01*
X586068Y34076D01*
X585957Y34101D01*
X585848Y34135D01*
X585754Y34145D01*
X585587Y34183D01*
X585262Y34201D01*
X585170Y34211D01*
X574436Y34211D01*
X574360Y34205D01*
X574284Y34207D01*
X574115Y34185D01*
X573944Y34171D01*
X573870Y34153D01*
X573795Y34143D01*
X573631Y34094D01*
X573465Y34053D01*
X573396Y34023D01*
X573322Y34001D01*
X573169Y33925D01*
X573012Y33858D01*
X572948Y33817D01*
X572879Y33784D01*
X572740Y33685D01*
X572596Y33593D01*
X572539Y33542D01*
X572477Y33498D01*
X572356Y33378D01*
X572228Y33264D01*
X572180Y33205D01*
X572126Y33151D01*
X572025Y33013D01*
X571918Y32880D01*
X571881Y32814D01*
X571836Y32753D01*
X571759Y32600D01*
X571674Y32452D01*
X571648Y32380D01*
X571613Y32312D01*
X571562Y32149D01*
X571503Y31989D01*
X571488Y31914D01*
X571465Y31842D01*
X571453Y31737D01*
X571408Y31505D01*
X571401Y31269D01*
X571389Y31164D01*
X571389Y18888D01*
X570538Y16834D01*
X569449Y15746D01*
X569425Y15717D01*
X569396Y15691D01*
X569265Y15529D01*
X569130Y15370D01*
X569110Y15337D01*
X569086Y15307D01*
X568983Y15126D01*
X568875Y14947D01*
X568861Y14912D01*
X568842Y14879D01*
X568770Y14683D01*
X568692Y14489D01*
X568684Y14452D01*
X568671Y14416D01*
X568631Y14212D01*
X568585Y14008D01*
X568583Y13969D01*
X568576Y13932D01*
X568570Y13724D01*
X568558Y13515D01*
X568562Y13477D01*
X568561Y13439D01*
X568588Y13233D01*
X568610Y13024D01*
X568620Y12988D01*
X568625Y12950D01*
X568685Y12750D01*
X568741Y12549D01*
X568756Y12514D01*
X568768Y12477D01*
X568859Y12290D01*
X568946Y12100D01*
X568968Y12069D01*
X568984Y12034D01*
X569105Y11864D01*
X569222Y11691D01*
X569248Y11663D01*
X569270Y11632D01*
X569417Y11484D01*
X569560Y11331D01*
X569590Y11308D01*
X569617Y11281D01*
X569785Y11158D01*
X569951Y11031D01*
X569985Y11013D01*
X570015Y10991D01*
X570202Y10897D01*
X570386Y10798D01*
X570422Y10786D01*
X570456Y10768D01*
X570655Y10705D01*
X570852Y10638D01*
X570890Y10632D01*
X570926Y10620D01*
X571019Y10610D01*
X571339Y10555D01*
X571511Y10554D01*
X571604Y10544D01*
X886693Y10544D01*
X886769Y10550D01*
X886845Y10548D01*
X887014Y10570D01*
X887185Y10584D01*
X887259Y10602D01*
X887334Y10612D01*
X887498Y10661D01*
X887664Y10702D01*
X887733Y10732D01*
X887807Y10754D01*
X887960Y10830D01*
X888117Y10897D01*
X888181Y10938D01*
X888250Y10971D01*
X888389Y11070D01*
X888533Y11162D01*
X888590Y11213D01*
X888652Y11257D01*
X888773Y11377D01*
X888901Y11491D01*
X888949Y11550D01*
X889003Y11604D01*
X889104Y11742D01*
X889211Y11875D01*
X889248Y11941D01*
X889293Y12002D01*
X889370Y12155D01*
X889455Y12303D01*
X889481Y12375D01*
X889516Y12443D01*
X889567Y12606D01*
X889626Y12766D01*
X889641Y12841D01*
X889664Y12913D01*
X889676Y13018D01*
X889721Y13250D01*
X889728Y13486D01*
X889740Y13591D01*
X889740Y1062775D01*
X889734Y1062851D01*
X889736Y1062927D01*
X889714Y1063096D01*
X889700Y1063267D01*
X889682Y1063341D01*
X889672Y1063416D01*
X889623Y1063580D01*
X889582Y1063746D01*
X889552Y1063815D01*
X889530Y1063889D01*
X889454Y1064042D01*
X889387Y1064199D01*
X889346Y1064263D01*
X889313Y1064332D01*
X889214Y1064471D01*
X889122Y1064615D01*
X889071Y1064672D01*
X889027Y1064734D01*
X888907Y1064855D01*
X888793Y1064983D01*
X888734Y1065031D01*
X888680Y1065085D01*
X888542Y1065186D01*
X888409Y1065293D01*
X888343Y1065330D01*
X888282Y1065375D01*
X888129Y1065452D01*
X887981Y1065537D01*
X887909Y1065563D01*
X887841Y1065598D01*
X887678Y1065649D01*
X887518Y1065708D01*
X887443Y1065723D01*
X887371Y1065746D01*
X887266Y1065758D01*
X887034Y1065803D01*
X886798Y1065810D01*
X886693Y1065822D01*
X17879Y1065822D01*
X17803Y1065816D01*
X17727Y1065818D01*
X17558Y1065796D01*
X17387Y1065782D01*
X17313Y1065764D01*
X17238Y1065754D01*
X17074Y1065705D01*
X16908Y1065664D01*
X16839Y1065634D01*
X16765Y1065612D01*
X16612Y1065536D01*
X16455Y1065469D01*
X16391Y1065428D01*
X16322Y1065395D01*
X16183Y1065296D01*
X16039Y1065204D01*
X15982Y1065153D01*
X15920Y1065109D01*
X15799Y1064989D01*
X15671Y1064875D01*
X15623Y1064816D01*
X15569Y1064762D01*
X15468Y1064624D01*
X15361Y1064491D01*
X15324Y1064425D01*
X15279Y1064364D01*
X15202Y1064211D01*
X15117Y1064063D01*
X15091Y1063991D01*
X15056Y1063923D01*
X15005Y1063760D01*
X14946Y1063600D01*
X14931Y1063525D01*
X14908Y1063453D01*
X14896Y1063348D01*
X14851Y1063116D01*
X14844Y1062880D01*
X14832Y1062775D01*
X14832Y13591D01*
X14838Y13515D01*
X14836Y13439D01*
X14858Y13270D01*
X14872Y13099D01*
X14890Y13025D01*
X14900Y12950D01*
X14949Y12786D01*
X14990Y12620D01*
X15020Y12551D01*
X15042Y12477D01*
X15118Y12324D01*
X15185Y12167D01*
X15226Y12103D01*
X15259Y12034D01*
X15358Y11895D01*
X15450Y11751D01*
X15501Y11694D01*
X15545Y11632D01*
X15665Y11511D01*
X15779Y11383D01*
X15838Y11335D01*
X15892Y11281D01*
X16030Y11180D01*
X16163Y11073D01*
X16229Y11036D01*
X16290Y10991D01*
X16443Y10914D01*
X16591Y10829D01*
X16663Y10803D01*
X16731Y10768D01*
X16894Y10717D01*
X17054Y10658D01*
X17129Y10643D01*
X17201Y10620D01*
X17306Y10608D01*
X17538Y10563D01*
X17774Y10556D01*
X17879Y10544D01*
X514196Y10544D01*
X514234Y10547D01*
G37*
%LPC*%
G36*
X90334Y164815D02*
X90334Y164815D01*
X87406Y166028D01*
X85238Y168196D01*
X84025Y171124D01*
X84025Y244256D01*
X85224Y247151D01*
X87439Y249366D01*
X88228Y249692D01*
X88237Y249697D01*
X88246Y249700D01*
X88457Y249810D01*
X88667Y249918D01*
X88675Y249923D01*
X88683Y249928D01*
X88715Y249953D01*
X89064Y250210D01*
X89155Y250304D01*
X89217Y250353D01*
X155539Y316676D01*
X158434Y317875D01*
X355476Y317875D01*
X355590Y317884D01*
X355704Y317883D01*
X355835Y317904D01*
X355968Y317915D01*
X356078Y317942D01*
X356191Y317960D01*
X356318Y318001D01*
X356446Y318033D01*
X356551Y318078D01*
X356660Y318114D01*
X356778Y318176D01*
X356900Y318228D01*
X356996Y318289D01*
X357097Y318342D01*
X357171Y318401D01*
X357316Y318493D01*
X357558Y318709D01*
X357631Y318767D01*
X422219Y383355D01*
X422268Y383413D01*
X422323Y383465D01*
X422427Y383601D01*
X422538Y383731D01*
X422577Y383796D01*
X422624Y383857D01*
X422704Y384007D01*
X422793Y384154D01*
X422821Y384225D01*
X422857Y384292D01*
X422912Y384453D01*
X422976Y384612D01*
X422992Y384686D01*
X423017Y384758D01*
X423046Y384927D01*
X423083Y385093D01*
X423087Y385169D01*
X423100Y385245D01*
X423101Y385415D01*
X423110Y385586D01*
X423102Y385662D01*
X423103Y385738D01*
X423076Y385907D01*
X423058Y386077D01*
X423038Y386150D01*
X423026Y386225D01*
X422972Y386388D01*
X422927Y386552D01*
X422896Y386621D01*
X422872Y386694D01*
X422793Y386845D01*
X422722Y387001D01*
X422679Y387064D01*
X422644Y387131D01*
X422578Y387214D01*
X422446Y387410D01*
X422284Y387582D01*
X422219Y387665D01*
X274900Y534983D01*
X274814Y535057D01*
X274733Y535138D01*
X274626Y535216D01*
X274524Y535302D01*
X274427Y535361D01*
X274334Y535428D01*
X274216Y535488D01*
X274102Y535557D01*
X273996Y535599D01*
X273894Y535651D01*
X273767Y535691D01*
X273644Y535740D01*
X273533Y535765D01*
X273423Y535799D01*
X273330Y535809D01*
X273162Y535847D01*
X272838Y535865D01*
X272746Y535875D01*
X193768Y535875D01*
X192875Y536768D01*
X192875Y938032D01*
X193768Y938925D01*
X345032Y938925D01*
X345925Y938032D01*
X345925Y536768D01*
X345032Y535875D01*
X321598Y535875D01*
X321560Y535872D01*
X321522Y535874D01*
X321314Y535852D01*
X321107Y535835D01*
X321069Y535826D01*
X321032Y535822D01*
X320830Y535767D01*
X320628Y535717D01*
X320593Y535702D01*
X320556Y535691D01*
X320366Y535604D01*
X320174Y535522D01*
X320142Y535502D01*
X320107Y535486D01*
X319934Y535369D01*
X319758Y535257D01*
X319730Y535232D01*
X319698Y535210D01*
X319546Y535067D01*
X319390Y534928D01*
X319366Y534899D01*
X319339Y534873D01*
X319211Y534707D01*
X319080Y534544D01*
X319062Y534511D01*
X319038Y534481D01*
X318940Y534297D01*
X318836Y534116D01*
X318823Y534080D01*
X318805Y534046D01*
X318737Y533849D01*
X318665Y533653D01*
X318658Y533616D01*
X318645Y533580D01*
X318610Y533373D01*
X318570Y533169D01*
X318569Y533131D01*
X318563Y533093D01*
X318561Y532884D01*
X318555Y532676D01*
X318560Y532638D01*
X318560Y532600D01*
X318592Y532393D01*
X318619Y532187D01*
X318630Y532150D01*
X318636Y532113D01*
X318701Y531914D01*
X318762Y531715D01*
X318778Y531680D01*
X318790Y531644D01*
X318887Y531459D01*
X318979Y531271D01*
X319001Y531240D01*
X319018Y531206D01*
X319076Y531134D01*
X319264Y530869D01*
X319385Y530747D01*
X319444Y530673D01*
X420573Y429544D01*
X420602Y429519D01*
X420628Y429490D01*
X420790Y429359D01*
X420949Y429224D01*
X420982Y429204D01*
X421012Y429180D01*
X421192Y429078D01*
X421372Y428969D01*
X421407Y428955D01*
X421440Y428936D01*
X421636Y428864D01*
X421830Y428786D01*
X421867Y428778D01*
X421903Y428765D01*
X422108Y428725D01*
X422312Y428680D01*
X422350Y428677D01*
X422387Y428670D01*
X422595Y428664D01*
X422804Y428652D01*
X422842Y428656D01*
X422880Y428655D01*
X423087Y428682D01*
X423295Y428704D01*
X423331Y428714D01*
X423369Y428719D01*
X423569Y428780D01*
X423770Y428835D01*
X423805Y428851D01*
X423842Y428862D01*
X424029Y428953D01*
X424219Y429041D01*
X424251Y429062D01*
X424285Y429079D01*
X424455Y429199D01*
X424628Y429316D01*
X424656Y429342D01*
X424687Y429364D01*
X424836Y429511D01*
X424988Y429654D01*
X425011Y429684D01*
X425038Y429711D01*
X425161Y429879D01*
X425288Y430045D01*
X425306Y430079D01*
X425328Y430110D01*
X425422Y430296D01*
X425521Y430480D01*
X425533Y430516D01*
X425551Y430550D01*
X425613Y430749D01*
X425681Y430947D01*
X425687Y430984D01*
X425699Y431020D01*
X425709Y431113D01*
X425764Y431433D01*
X425765Y431605D01*
X425775Y431698D01*
X425775Y802830D01*
X427941Y808058D01*
X461942Y842059D01*
X467170Y844225D01*
X472830Y844225D01*
X478058Y842059D01*
X482059Y838058D01*
X484225Y832830D01*
X484225Y827170D01*
X482059Y821942D01*
X455117Y795000D01*
X455043Y794913D01*
X454962Y794833D01*
X454884Y794726D01*
X454798Y794625D01*
X454739Y794527D01*
X454672Y794434D01*
X454612Y794316D01*
X454543Y794202D01*
X454501Y794096D01*
X454449Y793994D01*
X454409Y793867D01*
X454360Y793744D01*
X454335Y793633D01*
X454301Y793523D01*
X454291Y793430D01*
X454253Y793262D01*
X454235Y792938D01*
X454225Y792846D01*
X454225Y387170D01*
X452059Y381942D01*
X448058Y377941D01*
X442830Y375775D01*
X438174Y375775D01*
X438060Y375766D01*
X437946Y375767D01*
X437815Y375746D01*
X437682Y375735D01*
X437572Y375708D01*
X437459Y375690D01*
X437332Y375649D01*
X437204Y375617D01*
X437099Y375572D01*
X436990Y375536D01*
X436872Y375474D01*
X436750Y375422D01*
X436654Y375361D01*
X436553Y375308D01*
X436479Y375249D01*
X436334Y375157D01*
X436092Y374941D01*
X436019Y374883D01*
X364461Y303324D01*
X361566Y302125D01*
X352298Y302125D01*
X352222Y302119D01*
X352146Y302121D01*
X351977Y302099D01*
X351806Y302085D01*
X351732Y302067D01*
X351657Y302057D01*
X351493Y302008D01*
X351327Y301967D01*
X351258Y301937D01*
X351184Y301915D01*
X351031Y301839D01*
X350874Y301772D01*
X350810Y301731D01*
X350741Y301698D01*
X350602Y301599D01*
X350458Y301507D01*
X350401Y301456D01*
X350339Y301412D01*
X350218Y301292D01*
X350090Y301178D01*
X350042Y301119D01*
X349988Y301065D01*
X349887Y300927D01*
X349780Y300794D01*
X349743Y300728D01*
X349698Y300667D01*
X349621Y300514D01*
X349536Y300366D01*
X349510Y300294D01*
X349475Y300226D01*
X349424Y300063D01*
X349365Y299903D01*
X349350Y299828D01*
X349327Y299756D01*
X349315Y299651D01*
X349270Y299419D01*
X349263Y299183D01*
X349251Y299078D01*
X349251Y259434D01*
X349260Y259320D01*
X349259Y259206D01*
X349280Y259075D01*
X349291Y258942D01*
X349318Y258832D01*
X349336Y258719D01*
X349377Y258593D01*
X349409Y258464D01*
X349454Y258359D01*
X349490Y258250D01*
X349552Y258132D01*
X349604Y258010D01*
X349665Y257914D01*
X349718Y257813D01*
X349777Y257739D01*
X349869Y257594D01*
X350085Y257352D01*
X350143Y257279D01*
X352320Y255103D01*
X352320Y244897D01*
X345103Y237680D01*
X334897Y237680D01*
X327680Y244897D01*
X327680Y255103D01*
X332609Y260031D01*
X332683Y260119D01*
X332764Y260199D01*
X332842Y260306D01*
X332928Y260407D01*
X332987Y260505D01*
X333054Y260597D01*
X333114Y260716D01*
X333183Y260830D01*
X333225Y260936D01*
X333277Y261038D01*
X333317Y261165D01*
X333366Y261288D01*
X333391Y261399D01*
X333425Y261508D01*
X333435Y261602D01*
X333473Y261770D01*
X333491Y262094D01*
X333501Y262186D01*
X333501Y299078D01*
X333495Y299154D01*
X333497Y299230D01*
X333475Y299399D01*
X333461Y299570D01*
X333443Y299644D01*
X333433Y299719D01*
X333384Y299883D01*
X333343Y300049D01*
X333313Y300118D01*
X333291Y300192D01*
X333215Y300345D01*
X333148Y300502D01*
X333107Y300566D01*
X333074Y300635D01*
X332975Y300774D01*
X332883Y300918D01*
X332832Y300975D01*
X332788Y301037D01*
X332668Y301158D01*
X332554Y301286D01*
X332495Y301334D01*
X332441Y301388D01*
X332303Y301489D01*
X332170Y301596D01*
X332104Y301633D01*
X332043Y301678D01*
X331890Y301755D01*
X331742Y301840D01*
X331670Y301866D01*
X331602Y301901D01*
X331439Y301952D01*
X331279Y302011D01*
X331204Y302026D01*
X331132Y302049D01*
X331027Y302061D01*
X330795Y302106D01*
X330559Y302113D01*
X330454Y302125D01*
X164524Y302125D01*
X164410Y302116D01*
X164296Y302117D01*
X164165Y302096D01*
X164032Y302085D01*
X163922Y302058D01*
X163809Y302040D01*
X163682Y301999D01*
X163554Y301967D01*
X163449Y301922D01*
X163340Y301886D01*
X163222Y301824D01*
X163100Y301772D01*
X163004Y301711D01*
X162903Y301658D01*
X162829Y301599D01*
X162684Y301507D01*
X162442Y301291D01*
X162369Y301233D01*
X100667Y239531D01*
X100593Y239444D01*
X100512Y239363D01*
X100434Y239256D01*
X100348Y239155D01*
X100289Y239057D01*
X100222Y238965D01*
X100162Y238846D01*
X100093Y238732D01*
X100051Y238626D01*
X99999Y238524D01*
X99959Y238397D01*
X99910Y238274D01*
X99885Y238163D01*
X99851Y238054D01*
X99841Y237960D01*
X99803Y237792D01*
X99785Y237468D01*
X99775Y237376D01*
X99775Y171124D01*
X98562Y168196D01*
X96394Y166028D01*
X93466Y164815D01*
X90334Y164815D01*
G37*
%LPD*%
%LPC*%
G36*
X641095Y743495D02*
X641095Y743495D01*
X641095Y939941D01*
X710335Y939941D01*
X710981Y939768D01*
X711560Y939433D01*
X712033Y938960D01*
X712368Y938381D01*
X712541Y937735D01*
X712541Y743495D01*
X641095Y743495D01*
G37*
%LPD*%
%LPC*%
G36*
X641095Y731305D02*
X641095Y731305D01*
X712541Y731305D01*
X712541Y537065D01*
X712368Y536419D01*
X712033Y535840D01*
X711560Y535367D01*
X710981Y535032D01*
X710335Y534859D01*
X641095Y534859D01*
X641095Y731305D01*
G37*
%LPD*%
%LPC*%
G36*
X557459Y743495D02*
X557459Y743495D01*
X557459Y937735D01*
X557632Y938381D01*
X557967Y938960D01*
X558440Y939433D01*
X559019Y939768D01*
X559665Y939941D01*
X628905Y939941D01*
X628905Y743495D01*
X557459Y743495D01*
G37*
%LPD*%
%LPC*%
G36*
X559665Y534859D02*
X559665Y534859D01*
X559019Y535032D01*
X558440Y535367D01*
X557967Y535840D01*
X557632Y536419D01*
X557459Y537065D01*
X557459Y731305D01*
X628905Y731305D01*
X628905Y534859D01*
X559665Y534859D01*
G37*
%LPD*%
%LPC*%
G36*
X815964Y50412D02*
X815964Y50412D01*
X804697Y54834D01*
X795233Y62381D01*
X788415Y72382D01*
X784847Y83948D01*
X784847Y96052D01*
X788415Y107619D01*
X791698Y112434D01*
X795233Y117619D01*
X804697Y125166D01*
X815964Y129588D01*
X828034Y130493D01*
X832547Y129463D01*
X839835Y127799D01*
X850318Y121747D01*
X858550Y112874D01*
X863802Y101969D01*
X865606Y90000D01*
X863802Y78031D01*
X858550Y67126D01*
X850318Y58253D01*
X839835Y52201D01*
X828034Y49507D01*
X815964Y50412D01*
G37*
%LPD*%
%LPC*%
G36*
X75964Y960412D02*
X75964Y960412D01*
X64697Y964834D01*
X55233Y972381D01*
X48415Y982381D01*
X44847Y993948D01*
X44847Y1006052D01*
X48415Y1017619D01*
X50389Y1020514D01*
X54544Y1026609D01*
X54545Y1026609D01*
X55233Y1027619D01*
X64697Y1035166D01*
X75964Y1039588D01*
X88034Y1040493D01*
X99835Y1037799D01*
X110318Y1031747D01*
X118550Y1022874D01*
X123802Y1011969D01*
X125606Y1000000D01*
X123802Y988031D01*
X118550Y977126D01*
X110318Y968253D01*
X99835Y962201D01*
X88034Y959507D01*
X75964Y960412D01*
G37*
%LPD*%
%LPC*%
G36*
X815964Y960412D02*
X815964Y960412D01*
X804697Y964834D01*
X795233Y972381D01*
X788415Y982381D01*
X784847Y993948D01*
X784847Y1006052D01*
X788415Y1017619D01*
X790389Y1020514D01*
X794544Y1026609D01*
X794545Y1026609D01*
X795233Y1027619D01*
X804697Y1035166D01*
X815964Y1039588D01*
X828034Y1040493D01*
X839835Y1037799D01*
X850318Y1031747D01*
X858550Y1022874D01*
X863802Y1011969D01*
X865606Y1000000D01*
X863802Y988031D01*
X858550Y977126D01*
X850318Y968253D01*
X839835Y962201D01*
X828034Y959507D01*
X815964Y960412D01*
G37*
%LPD*%
%LPC*%
G36*
X75964Y50412D02*
X75964Y50412D01*
X64697Y54834D01*
X55233Y62381D01*
X48415Y72381D01*
X44847Y83948D01*
X44847Y96052D01*
X48415Y107619D01*
X51698Y112434D01*
X55233Y117619D01*
X64697Y125166D01*
X75964Y129588D01*
X88034Y130493D01*
X92547Y129463D01*
X99835Y127799D01*
X110318Y121747D01*
X118550Y112874D01*
X123802Y101969D01*
X125606Y90000D01*
X123802Y78031D01*
X118550Y67126D01*
X110318Y58253D01*
X99835Y52201D01*
X88034Y49507D01*
X75964Y50412D01*
G37*
%LPD*%
%LPC*%
G36*
X223598Y390686D02*
X223598Y390686D01*
X222110Y392174D01*
X222110Y398609D01*
X222094Y398798D01*
X222086Y398988D01*
X222075Y399044D01*
X222070Y399101D01*
X222024Y399285D01*
X221985Y399471D01*
X221965Y399524D01*
X221951Y399580D01*
X221876Y399754D01*
X221808Y399932D01*
X221779Y399981D01*
X221757Y400033D01*
X221655Y400193D01*
X221559Y400357D01*
X221522Y400401D01*
X221492Y400449D01*
X221365Y400591D01*
X221244Y400737D01*
X221201Y400775D01*
X221163Y400817D01*
X221015Y400936D01*
X220872Y401061D01*
X220823Y401091D01*
X220779Y401127D01*
X220614Y401221D01*
X220453Y401321D01*
X220400Y401343D01*
X220350Y401371D01*
X220172Y401437D01*
X219997Y401510D01*
X219941Y401523D01*
X219888Y401543D01*
X219701Y401579D01*
X219517Y401623D01*
X219460Y401626D01*
X219404Y401637D01*
X219214Y401643D01*
X219024Y401656D01*
X218968Y401651D01*
X218911Y401653D01*
X218722Y401628D01*
X218533Y401610D01*
X218478Y401596D01*
X218421Y401588D01*
X218240Y401533D01*
X218056Y401485D01*
X218004Y401462D01*
X217949Y401446D01*
X217778Y401362D01*
X217605Y401285D01*
X217557Y401254D01*
X217506Y401229D01*
X217351Y401119D01*
X217192Y401015D01*
X217150Y400976D01*
X217104Y400943D01*
X216969Y400810D01*
X216829Y400682D01*
X216801Y400645D01*
X216759Y400603D01*
X213074Y398475D01*
X208929Y398475D01*
X205203Y400627D01*
X205049Y400700D01*
X204898Y400781D01*
X204826Y400805D01*
X204757Y400838D01*
X204593Y400885D01*
X204431Y400941D01*
X204356Y400953D01*
X204283Y400974D01*
X204113Y400995D01*
X203945Y401023D01*
X203869Y401024D01*
X203793Y401033D01*
X203623Y401025D01*
X203451Y401026D01*
X203376Y401015D01*
X203301Y401011D01*
X203133Y400976D01*
X202964Y400950D01*
X202892Y400926D01*
X202818Y400910D01*
X202658Y400849D01*
X202496Y400795D01*
X202428Y400760D01*
X202357Y400733D01*
X202210Y400647D01*
X202058Y400568D01*
X202011Y400530D01*
X201932Y400484D01*
X201552Y400169D01*
X201537Y400152D01*
X201525Y400142D01*
X199858Y398475D01*
X195783Y398475D01*
X192796Y400200D01*
X191072Y403186D01*
X191072Y411684D01*
X191062Y411797D01*
X191063Y411912D01*
X191043Y412043D01*
X191032Y412175D01*
X191004Y412286D01*
X190987Y412399D01*
X190945Y412525D01*
X190913Y412654D01*
X190868Y412759D01*
X190832Y412868D01*
X190771Y412985D01*
X190719Y413108D01*
X190657Y413204D01*
X190604Y413305D01*
X190546Y413379D01*
X190453Y413524D01*
X190237Y413766D01*
X190179Y413838D01*
X188475Y415542D01*
X188475Y417647D01*
X190179Y419351D01*
X190253Y419438D01*
X190334Y419518D01*
X190413Y419626D01*
X190499Y419727D01*
X190558Y419825D01*
X190625Y419917D01*
X190685Y420035D01*
X190753Y420149D01*
X190796Y420256D01*
X190847Y420357D01*
X190887Y420484D01*
X190936Y420608D01*
X190961Y420719D01*
X190995Y420828D01*
X191006Y420921D01*
X191043Y421089D01*
X191061Y421413D01*
X191072Y421506D01*
X191072Y425436D01*
X192560Y426925D01*
X194665Y426925D01*
X196153Y425436D01*
X196153Y422183D01*
X196159Y422107D01*
X196157Y422031D01*
X196179Y421861D01*
X196193Y421691D01*
X196211Y421617D01*
X196221Y421541D01*
X196271Y421378D01*
X196312Y421212D01*
X196342Y421142D01*
X196364Y421069D01*
X196439Y420916D01*
X196506Y420759D01*
X196547Y420694D01*
X196581Y420626D01*
X196680Y420487D01*
X196771Y420343D01*
X196822Y420286D01*
X196866Y420224D01*
X196986Y420102D01*
X197100Y419975D01*
X197159Y419927D01*
X197213Y419873D01*
X197351Y419772D01*
X197484Y419665D01*
X197550Y419627D01*
X197612Y419582D01*
X197764Y419505D01*
X197913Y419421D01*
X197984Y419394D01*
X198052Y419360D01*
X198215Y419309D01*
X198375Y419249D01*
X198450Y419235D01*
X198523Y419212D01*
X198628Y419200D01*
X198859Y419155D01*
X199096Y419147D01*
X199200Y419135D01*
X199858Y419135D01*
X201525Y417468D01*
X201655Y417358D01*
X201780Y417240D01*
X201843Y417198D01*
X201901Y417149D01*
X202047Y417061D01*
X202189Y416965D01*
X202258Y416933D01*
X202323Y416894D01*
X202482Y416831D01*
X202638Y416759D01*
X202711Y416739D01*
X202781Y416711D01*
X202948Y416674D01*
X203113Y416629D01*
X203189Y416621D01*
X203263Y416604D01*
X203434Y416595D01*
X203604Y416577D01*
X203680Y416581D01*
X203756Y416577D01*
X203926Y416595D01*
X204096Y416604D01*
X204171Y416621D01*
X204246Y416629D01*
X204411Y416674D01*
X204578Y416711D01*
X204633Y416735D01*
X204722Y416760D01*
X205170Y416965D01*
X205189Y416978D01*
X205203Y416984D01*
X208929Y419135D01*
X213074Y419135D01*
X216730Y417024D01*
X216738Y417014D01*
X216896Y416849D01*
X217052Y416683D01*
X217067Y416672D01*
X217080Y416658D01*
X217263Y416522D01*
X217443Y416383D01*
X217460Y416374D01*
X217475Y416363D01*
X217678Y416257D01*
X217878Y416150D01*
X217896Y416144D01*
X217913Y416135D01*
X218129Y416064D01*
X218345Y415990D01*
X218363Y415987D01*
X218381Y415981D01*
X218605Y415946D01*
X218831Y415907D01*
X218850Y415907D01*
X218869Y415904D01*
X219095Y415906D01*
X219324Y415904D01*
X219343Y415907D01*
X219362Y415907D01*
X219586Y415945D01*
X219812Y415981D01*
X219830Y415987D01*
X219848Y415990D01*
X220063Y416064D01*
X220280Y416135D01*
X220297Y416144D01*
X220315Y416150D01*
X220515Y416257D01*
X220718Y416363D01*
X220730Y416373D01*
X220750Y416383D01*
X221141Y416684D01*
X221204Y416751D01*
X221251Y416788D01*
X223598Y419135D01*
X232866Y419135D01*
X235853Y417411D01*
X237577Y414424D01*
X237577Y403186D01*
X235853Y400200D01*
X232866Y398475D01*
X231142Y398475D01*
X230239Y398475D01*
X230163Y398469D01*
X230086Y398471D01*
X229917Y398449D01*
X229747Y398435D01*
X229673Y398417D01*
X229597Y398407D01*
X229434Y398358D01*
X229268Y398317D01*
X229198Y398287D01*
X229125Y398265D01*
X228972Y398189D01*
X228815Y398122D01*
X228750Y398081D01*
X228682Y398048D01*
X228543Y397949D01*
X228399Y397857D01*
X228342Y397806D01*
X228280Y397762D01*
X228158Y397642D01*
X228031Y397528D01*
X227983Y397469D01*
X227929Y397415D01*
X227828Y397277D01*
X227721Y397144D01*
X227683Y397078D01*
X227638Y397017D01*
X227561Y396864D01*
X227477Y396716D01*
X227450Y396644D01*
X227416Y396576D01*
X227365Y396413D01*
X227305Y396253D01*
X227291Y396178D01*
X227268Y396106D01*
X227256Y396001D01*
X227210Y395769D01*
X227203Y395533D01*
X227191Y395428D01*
X227191Y392174D01*
X225703Y390686D01*
X223598Y390686D01*
G37*
%LPD*%
%LPC*%
G36*
X623507Y103058D02*
X623507Y103058D01*
X618347Y105196D01*
X614397Y109146D01*
X612259Y114306D01*
X612259Y119892D01*
X614397Y125052D01*
X618347Y129002D01*
X623507Y131140D01*
X629093Y131140D01*
X634253Y129002D01*
X638203Y125052D01*
X640341Y119892D01*
X640341Y114306D01*
X638203Y109146D01*
X634253Y105196D01*
X629093Y103058D01*
X623507Y103058D01*
G37*
%LPD*%
%LPC*%
G36*
X754907Y103058D02*
X754907Y103058D01*
X749747Y105196D01*
X745797Y109146D01*
X743659Y114306D01*
X743659Y119892D01*
X745797Y125052D01*
X749747Y129002D01*
X754907Y131140D01*
X760493Y131140D01*
X765653Y129002D01*
X769603Y125052D01*
X771741Y119892D01*
X771741Y114306D01*
X769603Y109146D01*
X765653Y105196D01*
X760493Y103058D01*
X754907Y103058D01*
G37*
%LPD*%
%LPC*%
G36*
X664897Y237680D02*
X664897Y237680D01*
X657680Y244897D01*
X657680Y255103D01*
X664897Y262320D01*
X675103Y262320D01*
X682320Y255103D01*
X682320Y244897D01*
X675103Y237680D01*
X664897Y237680D01*
G37*
%LPD*%
%LPC*%
G36*
X655196Y135136D02*
X655196Y135136D01*
X651864Y136516D01*
X649314Y139066D01*
X647934Y142398D01*
X647934Y146004D01*
X649314Y149336D01*
X651864Y151886D01*
X655196Y153266D01*
X658802Y153266D01*
X662134Y151886D01*
X664684Y149336D01*
X666064Y146004D01*
X666064Y142398D01*
X664684Y139066D01*
X662134Y136516D01*
X658802Y135136D01*
X655196Y135136D01*
G37*
%LPD*%
%LPC*%
G36*
X723131Y134859D02*
X723131Y134859D01*
X721718Y135579D01*
X720434Y136512D01*
X719312Y137634D01*
X718379Y138918D01*
X717659Y140331D01*
X717169Y141840D01*
X717107Y142232D01*
X717071Y142378D01*
X717045Y142526D01*
X717013Y142617D01*
X716990Y142711D01*
X716932Y142850D01*
X716882Y142991D01*
X716836Y143076D01*
X716798Y143166D01*
X716718Y143293D01*
X716646Y143424D01*
X716587Y143501D01*
X716535Y143583D01*
X716435Y143695D01*
X716343Y143814D01*
X716272Y143880D01*
X716208Y143952D01*
X716092Y144047D01*
X715982Y144149D01*
X715904Y144201D01*
X715945Y144235D01*
X716067Y144323D01*
X716136Y144391D01*
X716211Y144452D01*
X716310Y144565D01*
X716417Y144671D01*
X716473Y144750D01*
X716537Y144822D01*
X716617Y144950D01*
X716705Y145071D01*
X716748Y145158D01*
X716800Y145240D01*
X716858Y145378D01*
X716925Y145513D01*
X716945Y145584D01*
X716991Y145695D01*
X717104Y146160D01*
X717107Y146170D01*
X717169Y146562D01*
X717659Y148071D01*
X718379Y149484D01*
X719312Y150768D01*
X720434Y151890D01*
X721718Y152823D01*
X723131Y153543D01*
X723954Y153810D01*
X723954Y144201D01*
X723954Y134592D01*
X723131Y134859D01*
G37*
%LPD*%
%LPC*%
G36*
X403301Y253301D02*
X403301Y253301D01*
X403301Y263336D01*
X405524Y263336D01*
X413336Y255524D01*
X413336Y253301D01*
X403301Y253301D01*
G37*
%LPD*%
%LPC*%
G36*
X733301Y253301D02*
X733301Y253301D01*
X733301Y263336D01*
X735524Y263336D01*
X743336Y255524D01*
X743336Y253301D01*
X733301Y253301D01*
G37*
%LPD*%
%LPC*%
G36*
X386664Y253301D02*
X386664Y253301D01*
X386664Y255524D01*
X394476Y263336D01*
X396699Y263336D01*
X396699Y253301D01*
X386664Y253301D01*
G37*
%LPD*%
%LPC*%
G36*
X716664Y253301D02*
X716664Y253301D01*
X716664Y255524D01*
X724476Y263336D01*
X726699Y263336D01*
X726699Y253301D01*
X716664Y253301D01*
G37*
%LPD*%
%LPC*%
G36*
X733301Y236664D02*
X733301Y236664D01*
X733301Y246699D01*
X743336Y246699D01*
X743336Y244476D01*
X735524Y236664D01*
X733301Y236664D01*
G37*
%LPD*%
%LPC*%
G36*
X403301Y236664D02*
X403301Y236664D01*
X403301Y246699D01*
X413336Y246699D01*
X413336Y244476D01*
X405524Y236664D01*
X403301Y236664D01*
G37*
%LPD*%
%LPC*%
G36*
X394476Y236664D02*
X394476Y236664D01*
X386664Y244476D01*
X386664Y246699D01*
X396699Y246699D01*
X396699Y236664D01*
X394476Y236664D01*
G37*
%LPD*%
%LPC*%
G36*
X724476Y236664D02*
X724476Y236664D01*
X716664Y244476D01*
X716664Y246699D01*
X726699Y246699D01*
X726699Y236664D01*
X724476Y236664D01*
G37*
%LPD*%
%LPC*%
G36*
X246047Y112047D02*
X246047Y112047D01*
X246047Y122291D01*
X248335Y122291D01*
X248981Y122118D01*
X249560Y121783D01*
X250033Y121310D01*
X250368Y120731D01*
X250541Y120085D01*
X250541Y112047D01*
X246047Y112047D01*
G37*
%LPD*%
%LPC*%
G36*
X246047Y95709D02*
X246047Y95709D01*
X246047Y105953D01*
X250541Y105953D01*
X250541Y97915D01*
X250368Y97269D01*
X250033Y96690D01*
X249560Y96217D01*
X248981Y95882D01*
X248335Y95709D01*
X246047Y95709D01*
G37*
%LPD*%
%LPC*%
G36*
X235459Y112047D02*
X235459Y112047D01*
X235459Y120085D01*
X235632Y120731D01*
X235967Y121310D01*
X236440Y121783D01*
X237019Y122118D01*
X237665Y122291D01*
X239953Y122291D01*
X239953Y112047D01*
X235459Y112047D01*
G37*
%LPD*%
%LPC*%
G36*
X237665Y95709D02*
X237665Y95709D01*
X237019Y95882D01*
X236440Y96217D01*
X235967Y96690D01*
X235632Y97269D01*
X235459Y97915D01*
X235459Y105953D01*
X239953Y105953D01*
X239953Y95709D01*
X237665Y95709D01*
G37*
%LPD*%
%LPC*%
G36*
X730048Y147248D02*
X730048Y147248D01*
X730048Y153810D01*
X730871Y153543D01*
X732284Y152823D01*
X733568Y151890D01*
X734690Y150768D01*
X735623Y149484D01*
X736343Y148071D01*
X736610Y147248D01*
X730048Y147248D01*
G37*
%LPD*%
%LPC*%
G36*
X730048Y141154D02*
X730048Y141154D01*
X736610Y141154D01*
X736343Y140331D01*
X735623Y138918D01*
X734690Y137634D01*
X733568Y136512D01*
X732284Y135579D01*
X730871Y134859D01*
X730048Y134592D01*
X730048Y141154D01*
G37*
%LPD*%
%LPC*%
G36*
X478522Y109797D02*
X478522Y109797D01*
X478522Y114291D01*
X481310Y114291D01*
X481956Y114118D01*
X482535Y113783D01*
X483008Y113310D01*
X483343Y112731D01*
X483516Y112085D01*
X483516Y109797D01*
X478522Y109797D01*
G37*
%LPD*%
%LPC*%
G36*
X521147Y93297D02*
X521147Y93297D01*
X521147Y97791D01*
X523935Y97791D01*
X524581Y97618D01*
X525160Y97283D01*
X525633Y96810D01*
X525968Y96231D01*
X526141Y95585D01*
X526141Y93297D01*
X521147Y93297D01*
G37*
%LPD*%
%LPC*%
G36*
X467434Y109797D02*
X467434Y109797D01*
X467434Y112085D01*
X467607Y112731D01*
X467942Y113310D01*
X468415Y113783D01*
X468994Y114118D01*
X469640Y114291D01*
X472428Y114291D01*
X472428Y109797D01*
X467434Y109797D01*
G37*
%LPD*%
%LPC*%
G36*
X510059Y93297D02*
X510059Y93297D01*
X510059Y95585D01*
X510232Y96231D01*
X510567Y96810D01*
X511040Y97283D01*
X511619Y97618D01*
X512265Y97791D01*
X515053Y97791D01*
X515053Y93297D01*
X510059Y93297D01*
G37*
%LPD*%
%LPC*%
G36*
X634999Y737399D02*
X634999Y737399D01*
X634999Y737401D01*
X635001Y737401D01*
X635001Y737399D01*
X634999Y737399D01*
G37*
%LPD*%
D10*
X12286Y7998D02*
X892286Y7998D01*
X892286Y1068368D01*
X12286Y1068368D01*
X12286Y7998D01*
D11*
X191016Y416595D02*
X198805Y416595D01*
X193612Y424384D02*
X193612Y404911D01*
X193614Y404789D01*
X193620Y404666D01*
X193629Y404544D01*
X193643Y404423D01*
X193660Y404302D01*
X193681Y404181D01*
X193706Y404061D01*
X193734Y403942D01*
X193767Y403824D01*
X193803Y403707D01*
X193842Y403592D01*
X193886Y403477D01*
X193932Y403364D01*
X193983Y403253D01*
X194037Y403143D01*
X194094Y403035D01*
X194154Y402928D01*
X194218Y402824D01*
X194286Y402722D01*
X194356Y402622D01*
X194429Y402524D01*
X194506Y402428D01*
X194585Y402335D01*
X194668Y402245D01*
X194753Y402157D01*
X194841Y402072D01*
X194931Y401989D01*
X195024Y401910D01*
X195120Y401833D01*
X195218Y401760D01*
X195318Y401690D01*
X195420Y401622D01*
X195524Y401558D01*
X195631Y401498D01*
X195739Y401441D01*
X195849Y401387D01*
X195960Y401336D01*
X196073Y401290D01*
X196188Y401246D01*
X196303Y401207D01*
X196420Y401171D01*
X196538Y401138D01*
X196657Y401110D01*
X196777Y401085D01*
X196898Y401064D01*
X197019Y401047D01*
X197140Y401033D01*
X197262Y401024D01*
X197385Y401018D01*
X197507Y401016D01*
X198805Y401016D01*
X205809Y406209D02*
X205809Y411402D01*
X205811Y411545D01*
X205817Y411688D01*
X205827Y411831D01*
X205841Y411973D01*
X205858Y412115D01*
X205880Y412257D01*
X205905Y412398D01*
X205935Y412538D01*
X205968Y412677D01*
X206005Y412815D01*
X206046Y412952D01*
X206090Y413088D01*
X206139Y413223D01*
X206191Y413356D01*
X206246Y413488D01*
X206306Y413618D01*
X206369Y413747D01*
X206435Y413874D01*
X206505Y413999D01*
X206578Y414121D01*
X206655Y414242D01*
X206735Y414361D01*
X206818Y414477D01*
X206904Y414592D01*
X206993Y414703D01*
X207086Y414813D01*
X207181Y414919D01*
X207280Y415023D01*
X207381Y415124D01*
X207485Y415223D01*
X207591Y415318D01*
X207701Y415411D01*
X207812Y415500D01*
X207927Y415586D01*
X208043Y415669D01*
X208162Y415749D01*
X208283Y415826D01*
X208406Y415899D01*
X208530Y415969D01*
X208657Y416035D01*
X208786Y416098D01*
X208916Y416158D01*
X209048Y416213D01*
X209181Y416265D01*
X209316Y416314D01*
X209452Y416358D01*
X209589Y416399D01*
X209727Y416436D01*
X209866Y416469D01*
X210006Y416499D01*
X210147Y416524D01*
X210289Y416546D01*
X210431Y416563D01*
X210573Y416577D01*
X210716Y416587D01*
X210859Y416593D01*
X211002Y416595D01*
X211145Y416593D01*
X211288Y416587D01*
X211431Y416577D01*
X211573Y416563D01*
X211715Y416546D01*
X211857Y416524D01*
X211998Y416499D01*
X212138Y416469D01*
X212277Y416436D01*
X212415Y416399D01*
X212552Y416358D01*
X212688Y416314D01*
X212823Y416265D01*
X212956Y416213D01*
X213088Y416158D01*
X213218Y416098D01*
X213347Y416035D01*
X213474Y415969D01*
X213599Y415899D01*
X213721Y415826D01*
X213842Y415749D01*
X213961Y415669D01*
X214077Y415586D01*
X214192Y415500D01*
X214303Y415411D01*
X214413Y415318D01*
X214519Y415223D01*
X214623Y415124D01*
X214724Y415023D01*
X214823Y414919D01*
X214918Y414813D01*
X215011Y414703D01*
X215100Y414592D01*
X215186Y414477D01*
X215269Y414361D01*
X215349Y414242D01*
X215426Y414121D01*
X215499Y413999D01*
X215569Y413874D01*
X215635Y413747D01*
X215698Y413618D01*
X215758Y413488D01*
X215813Y413356D01*
X215865Y413223D01*
X215914Y413088D01*
X215958Y412952D01*
X215999Y412815D01*
X216036Y412677D01*
X216069Y412538D01*
X216099Y412398D01*
X216124Y412257D01*
X216146Y412115D01*
X216163Y411973D01*
X216177Y411831D01*
X216187Y411688D01*
X216193Y411545D01*
X216195Y411402D01*
X216194Y411402D02*
X216194Y406209D01*
X216195Y406209D02*
X216193Y406066D01*
X216187Y405923D01*
X216177Y405780D01*
X216163Y405638D01*
X216146Y405496D01*
X216124Y405354D01*
X216099Y405213D01*
X216069Y405073D01*
X216036Y404934D01*
X215999Y404796D01*
X215958Y404659D01*
X215914Y404523D01*
X215865Y404388D01*
X215813Y404255D01*
X215758Y404123D01*
X215698Y403993D01*
X215635Y403864D01*
X215569Y403737D01*
X215499Y403612D01*
X215426Y403490D01*
X215349Y403369D01*
X215269Y403250D01*
X215186Y403134D01*
X215100Y403019D01*
X215011Y402908D01*
X214918Y402798D01*
X214823Y402692D01*
X214724Y402588D01*
X214623Y402487D01*
X214519Y402388D01*
X214413Y402293D01*
X214303Y402200D01*
X214192Y402111D01*
X214077Y402025D01*
X213961Y401942D01*
X213842Y401862D01*
X213721Y401785D01*
X213598Y401712D01*
X213474Y401642D01*
X213347Y401576D01*
X213218Y401513D01*
X213088Y401453D01*
X212956Y401398D01*
X212823Y401346D01*
X212688Y401297D01*
X212552Y401253D01*
X212415Y401212D01*
X212277Y401175D01*
X212138Y401142D01*
X211998Y401112D01*
X211857Y401087D01*
X211715Y401065D01*
X211573Y401048D01*
X211431Y401034D01*
X211288Y401024D01*
X211145Y401018D01*
X211002Y401016D01*
X210859Y401018D01*
X210716Y401024D01*
X210573Y401034D01*
X210431Y401048D01*
X210289Y401065D01*
X210147Y401087D01*
X210006Y401112D01*
X209866Y401142D01*
X209727Y401175D01*
X209589Y401212D01*
X209452Y401253D01*
X209316Y401297D01*
X209181Y401346D01*
X209048Y401398D01*
X208916Y401453D01*
X208786Y401513D01*
X208657Y401576D01*
X208530Y401642D01*
X208405Y401712D01*
X208283Y401785D01*
X208162Y401862D01*
X208043Y401942D01*
X207927Y402025D01*
X207812Y402111D01*
X207701Y402200D01*
X207591Y402293D01*
X207485Y402388D01*
X207381Y402487D01*
X207280Y402588D01*
X207181Y402692D01*
X207086Y402798D01*
X206993Y402908D01*
X206904Y403019D01*
X206818Y403134D01*
X206735Y403250D01*
X206655Y403369D01*
X206578Y403490D01*
X206505Y403613D01*
X206435Y403737D01*
X206369Y403864D01*
X206306Y403993D01*
X206246Y404123D01*
X206191Y404255D01*
X206139Y404388D01*
X206090Y404523D01*
X206046Y404659D01*
X206005Y404796D01*
X205968Y404934D01*
X205935Y405073D01*
X205905Y405213D01*
X205880Y405354D01*
X205858Y405496D01*
X205841Y405638D01*
X205827Y405780D01*
X205817Y405923D01*
X205811Y406066D01*
X205809Y406209D01*
X224651Y416595D02*
X224651Y393227D01*
X224651Y416595D02*
X231142Y416595D01*
X231264Y416593D01*
X231387Y416587D01*
X231509Y416578D01*
X231630Y416564D01*
X231751Y416547D01*
X231872Y416526D01*
X231992Y416501D01*
X232111Y416473D01*
X232229Y416440D01*
X232346Y416404D01*
X232461Y416365D01*
X232576Y416321D01*
X232689Y416275D01*
X232800Y416224D01*
X232910Y416170D01*
X233018Y416113D01*
X233125Y416053D01*
X233229Y415989D01*
X233331Y415921D01*
X233431Y415851D01*
X233529Y415778D01*
X233625Y415701D01*
X233718Y415622D01*
X233808Y415539D01*
X233896Y415454D01*
X233981Y415366D01*
X234064Y415276D01*
X234143Y415183D01*
X234220Y415087D01*
X234293Y414989D01*
X234363Y414889D01*
X234431Y414787D01*
X234495Y414683D01*
X234555Y414576D01*
X234612Y414468D01*
X234666Y414358D01*
X234717Y414247D01*
X234763Y414134D01*
X234807Y414019D01*
X234846Y413904D01*
X234882Y413787D01*
X234915Y413669D01*
X234943Y413550D01*
X234968Y413430D01*
X234989Y413309D01*
X235006Y413188D01*
X235020Y413067D01*
X235029Y412945D01*
X235035Y412822D01*
X235037Y412700D01*
X235036Y412700D02*
X235036Y404911D01*
X235037Y404911D02*
X235035Y404789D01*
X235029Y404666D01*
X235020Y404544D01*
X235006Y404423D01*
X234989Y404302D01*
X234968Y404181D01*
X234943Y404061D01*
X234915Y403942D01*
X234882Y403824D01*
X234846Y403707D01*
X234807Y403592D01*
X234763Y403477D01*
X234717Y403364D01*
X234666Y403253D01*
X234612Y403143D01*
X234555Y403035D01*
X234495Y402928D01*
X234431Y402824D01*
X234363Y402722D01*
X234293Y402622D01*
X234220Y402524D01*
X234143Y402428D01*
X234064Y402335D01*
X233981Y402245D01*
X233896Y402157D01*
X233808Y402072D01*
X233718Y401989D01*
X233625Y401910D01*
X233529Y401833D01*
X233431Y401760D01*
X233331Y401690D01*
X233229Y401622D01*
X233125Y401558D01*
X233018Y401498D01*
X232910Y401441D01*
X232800Y401387D01*
X232689Y401336D01*
X232576Y401290D01*
X232461Y401246D01*
X232346Y401207D01*
X232229Y401171D01*
X232111Y401138D01*
X231992Y401110D01*
X231872Y401085D01*
X231751Y401064D01*
X231630Y401047D01*
X231509Y401033D01*
X231387Y401024D01*
X231264Y401018D01*
X231142Y401016D01*
X224651Y401016D01*
D12*
X518100Y90250D03*
X518100Y73250D03*
X377375Y100250D03*
X377375Y83250D03*
X430950Y80250D03*
X430950Y63250D03*
X323800Y53250D03*
X323800Y70250D03*
X475475Y106750D03*
X475475Y89750D03*
D13*
X656999Y144201D03*
X682000Y144201D03*
X702000Y144201D03*
X727001Y144201D03*
D14*
X614800Y117099D02*
X614803Y117381D01*
X614814Y117663D01*
X614831Y117945D01*
X614855Y118226D01*
X614886Y118507D01*
X614924Y118786D01*
X614969Y119065D01*
X615021Y119343D01*
X615079Y119619D01*
X615145Y119893D01*
X615217Y120166D01*
X615295Y120437D01*
X615380Y120706D01*
X615472Y120973D01*
X615571Y121238D01*
X615675Y121500D01*
X615787Y121759D01*
X615904Y122016D01*
X616028Y122270D01*
X616158Y122520D01*
X616294Y122767D01*
X616436Y123011D01*
X616584Y123251D01*
X616738Y123488D01*
X616898Y123721D01*
X617063Y123950D01*
X617234Y124174D01*
X617410Y124395D01*
X617592Y124610D01*
X617779Y124822D01*
X617971Y125029D01*
X618168Y125231D01*
X618370Y125428D01*
X618577Y125620D01*
X618789Y125807D01*
X619004Y125989D01*
X619225Y126165D01*
X619449Y126336D01*
X619678Y126501D01*
X619911Y126661D01*
X620148Y126815D01*
X620388Y126963D01*
X620632Y127105D01*
X620879Y127241D01*
X621129Y127371D01*
X621383Y127495D01*
X621640Y127612D01*
X621899Y127724D01*
X622161Y127828D01*
X622426Y127927D01*
X622693Y128019D01*
X622962Y128104D01*
X623233Y128182D01*
X623506Y128254D01*
X623780Y128320D01*
X624056Y128378D01*
X624334Y128430D01*
X624613Y128475D01*
X624892Y128513D01*
X625173Y128544D01*
X625454Y128568D01*
X625736Y128585D01*
X626018Y128596D01*
X626300Y128599D01*
X626582Y128596D01*
X626864Y128585D01*
X627146Y128568D01*
X627427Y128544D01*
X627708Y128513D01*
X627987Y128475D01*
X628266Y128430D01*
X628544Y128378D01*
X628820Y128320D01*
X629094Y128254D01*
X629367Y128182D01*
X629638Y128104D01*
X629907Y128019D01*
X630174Y127927D01*
X630439Y127828D01*
X630701Y127724D01*
X630960Y127612D01*
X631217Y127495D01*
X631471Y127371D01*
X631721Y127241D01*
X631968Y127105D01*
X632212Y126963D01*
X632452Y126815D01*
X632689Y126661D01*
X632922Y126501D01*
X633151Y126336D01*
X633375Y126165D01*
X633596Y125989D01*
X633811Y125807D01*
X634023Y125620D01*
X634230Y125428D01*
X634432Y125231D01*
X634629Y125029D01*
X634821Y124822D01*
X635008Y124610D01*
X635190Y124395D01*
X635366Y124174D01*
X635537Y123950D01*
X635702Y123721D01*
X635862Y123488D01*
X636016Y123251D01*
X636164Y123011D01*
X636306Y122767D01*
X636442Y122520D01*
X636572Y122270D01*
X636696Y122016D01*
X636813Y121759D01*
X636925Y121500D01*
X637029Y121238D01*
X637128Y120973D01*
X637220Y120706D01*
X637305Y120437D01*
X637383Y120166D01*
X637455Y119893D01*
X637521Y119619D01*
X637579Y119343D01*
X637631Y119065D01*
X637676Y118786D01*
X637714Y118507D01*
X637745Y118226D01*
X637769Y117945D01*
X637786Y117663D01*
X637797Y117381D01*
X637800Y117099D01*
X637797Y116817D01*
X637786Y116535D01*
X637769Y116253D01*
X637745Y115972D01*
X637714Y115691D01*
X637676Y115412D01*
X637631Y115133D01*
X637579Y114855D01*
X637521Y114579D01*
X637455Y114305D01*
X637383Y114032D01*
X637305Y113761D01*
X637220Y113492D01*
X637128Y113225D01*
X637029Y112960D01*
X636925Y112698D01*
X636813Y112439D01*
X636696Y112182D01*
X636572Y111928D01*
X636442Y111678D01*
X636306Y111431D01*
X636164Y111187D01*
X636016Y110947D01*
X635862Y110710D01*
X635702Y110477D01*
X635537Y110248D01*
X635366Y110024D01*
X635190Y109803D01*
X635008Y109588D01*
X634821Y109376D01*
X634629Y109169D01*
X634432Y108967D01*
X634230Y108770D01*
X634023Y108578D01*
X633811Y108391D01*
X633596Y108209D01*
X633375Y108033D01*
X633151Y107862D01*
X632922Y107697D01*
X632689Y107537D01*
X632452Y107383D01*
X632212Y107235D01*
X631968Y107093D01*
X631721Y106957D01*
X631471Y106827D01*
X631217Y106703D01*
X630960Y106586D01*
X630701Y106474D01*
X630439Y106370D01*
X630174Y106271D01*
X629907Y106179D01*
X629638Y106094D01*
X629367Y106016D01*
X629094Y105944D01*
X628820Y105878D01*
X628544Y105820D01*
X628266Y105768D01*
X627987Y105723D01*
X627708Y105685D01*
X627427Y105654D01*
X627146Y105630D01*
X626864Y105613D01*
X626582Y105602D01*
X626300Y105599D01*
X626018Y105602D01*
X625736Y105613D01*
X625454Y105630D01*
X625173Y105654D01*
X624892Y105685D01*
X624613Y105723D01*
X624334Y105768D01*
X624056Y105820D01*
X623780Y105878D01*
X623506Y105944D01*
X623233Y106016D01*
X622962Y106094D01*
X622693Y106179D01*
X622426Y106271D01*
X622161Y106370D01*
X621899Y106474D01*
X621640Y106586D01*
X621383Y106703D01*
X621129Y106827D01*
X620879Y106957D01*
X620632Y107093D01*
X620388Y107235D01*
X620148Y107383D01*
X619911Y107537D01*
X619678Y107697D01*
X619449Y107862D01*
X619225Y108033D01*
X619004Y108209D01*
X618789Y108391D01*
X618577Y108578D01*
X618370Y108770D01*
X618168Y108967D01*
X617971Y109169D01*
X617779Y109376D01*
X617592Y109588D01*
X617410Y109803D01*
X617234Y110024D01*
X617063Y110248D01*
X616898Y110477D01*
X616738Y110710D01*
X616584Y110947D01*
X616436Y111187D01*
X616294Y111431D01*
X616158Y111678D01*
X616028Y111928D01*
X615904Y112182D01*
X615787Y112439D01*
X615675Y112698D01*
X615571Y112960D01*
X615472Y113225D01*
X615380Y113492D01*
X615295Y113761D01*
X615217Y114032D01*
X615145Y114305D01*
X615079Y114579D01*
X615021Y114855D01*
X614969Y115133D01*
X614924Y115412D01*
X614886Y115691D01*
X614855Y115972D01*
X614831Y116253D01*
X614814Y116535D01*
X614803Y116817D01*
X614800Y117099D01*
X746200Y117099D02*
X746203Y117381D01*
X746214Y117663D01*
X746231Y117945D01*
X746255Y118226D01*
X746286Y118507D01*
X746324Y118786D01*
X746369Y119065D01*
X746421Y119343D01*
X746479Y119619D01*
X746545Y119893D01*
X746617Y120166D01*
X746695Y120437D01*
X746780Y120706D01*
X746872Y120973D01*
X746971Y121238D01*
X747075Y121500D01*
X747187Y121759D01*
X747304Y122016D01*
X747428Y122270D01*
X747558Y122520D01*
X747694Y122767D01*
X747836Y123011D01*
X747984Y123251D01*
X748138Y123488D01*
X748298Y123721D01*
X748463Y123950D01*
X748634Y124174D01*
X748810Y124395D01*
X748992Y124610D01*
X749179Y124822D01*
X749371Y125029D01*
X749568Y125231D01*
X749770Y125428D01*
X749977Y125620D01*
X750189Y125807D01*
X750404Y125989D01*
X750625Y126165D01*
X750849Y126336D01*
X751078Y126501D01*
X751311Y126661D01*
X751548Y126815D01*
X751788Y126963D01*
X752032Y127105D01*
X752279Y127241D01*
X752529Y127371D01*
X752783Y127495D01*
X753040Y127612D01*
X753299Y127724D01*
X753561Y127828D01*
X753826Y127927D01*
X754093Y128019D01*
X754362Y128104D01*
X754633Y128182D01*
X754906Y128254D01*
X755180Y128320D01*
X755456Y128378D01*
X755734Y128430D01*
X756013Y128475D01*
X756292Y128513D01*
X756573Y128544D01*
X756854Y128568D01*
X757136Y128585D01*
X757418Y128596D01*
X757700Y128599D01*
X757982Y128596D01*
X758264Y128585D01*
X758546Y128568D01*
X758827Y128544D01*
X759108Y128513D01*
X759387Y128475D01*
X759666Y128430D01*
X759944Y128378D01*
X760220Y128320D01*
X760494Y128254D01*
X760767Y128182D01*
X761038Y128104D01*
X761307Y128019D01*
X761574Y127927D01*
X761839Y127828D01*
X762101Y127724D01*
X762360Y127612D01*
X762617Y127495D01*
X762871Y127371D01*
X763121Y127241D01*
X763368Y127105D01*
X763612Y126963D01*
X763852Y126815D01*
X764089Y126661D01*
X764322Y126501D01*
X764551Y126336D01*
X764775Y126165D01*
X764996Y125989D01*
X765211Y125807D01*
X765423Y125620D01*
X765630Y125428D01*
X765832Y125231D01*
X766029Y125029D01*
X766221Y124822D01*
X766408Y124610D01*
X766590Y124395D01*
X766766Y124174D01*
X766937Y123950D01*
X767102Y123721D01*
X767262Y123488D01*
X767416Y123251D01*
X767564Y123011D01*
X767706Y122767D01*
X767842Y122520D01*
X767972Y122270D01*
X768096Y122016D01*
X768213Y121759D01*
X768325Y121500D01*
X768429Y121238D01*
X768528Y120973D01*
X768620Y120706D01*
X768705Y120437D01*
X768783Y120166D01*
X768855Y119893D01*
X768921Y119619D01*
X768979Y119343D01*
X769031Y119065D01*
X769076Y118786D01*
X769114Y118507D01*
X769145Y118226D01*
X769169Y117945D01*
X769186Y117663D01*
X769197Y117381D01*
X769200Y117099D01*
X769197Y116817D01*
X769186Y116535D01*
X769169Y116253D01*
X769145Y115972D01*
X769114Y115691D01*
X769076Y115412D01*
X769031Y115133D01*
X768979Y114855D01*
X768921Y114579D01*
X768855Y114305D01*
X768783Y114032D01*
X768705Y113761D01*
X768620Y113492D01*
X768528Y113225D01*
X768429Y112960D01*
X768325Y112698D01*
X768213Y112439D01*
X768096Y112182D01*
X767972Y111928D01*
X767842Y111678D01*
X767706Y111431D01*
X767564Y111187D01*
X767416Y110947D01*
X767262Y110710D01*
X767102Y110477D01*
X766937Y110248D01*
X766766Y110024D01*
X766590Y109803D01*
X766408Y109588D01*
X766221Y109376D01*
X766029Y109169D01*
X765832Y108967D01*
X765630Y108770D01*
X765423Y108578D01*
X765211Y108391D01*
X764996Y108209D01*
X764775Y108033D01*
X764551Y107862D01*
X764322Y107697D01*
X764089Y107537D01*
X763852Y107383D01*
X763612Y107235D01*
X763368Y107093D01*
X763121Y106957D01*
X762871Y106827D01*
X762617Y106703D01*
X762360Y106586D01*
X762101Y106474D01*
X761839Y106370D01*
X761574Y106271D01*
X761307Y106179D01*
X761038Y106094D01*
X760767Y106016D01*
X760494Y105944D01*
X760220Y105878D01*
X759944Y105820D01*
X759666Y105768D01*
X759387Y105723D01*
X759108Y105685D01*
X758827Y105654D01*
X758546Y105630D01*
X758264Y105613D01*
X757982Y105602D01*
X757700Y105599D01*
X757418Y105602D01*
X757136Y105613D01*
X756854Y105630D01*
X756573Y105654D01*
X756292Y105685D01*
X756013Y105723D01*
X755734Y105768D01*
X755456Y105820D01*
X755180Y105878D01*
X754906Y105944D01*
X754633Y106016D01*
X754362Y106094D01*
X754093Y106179D01*
X753826Y106271D01*
X753561Y106370D01*
X753299Y106474D01*
X753040Y106586D01*
X752783Y106703D01*
X752529Y106827D01*
X752279Y106957D01*
X752032Y107093D01*
X751788Y107235D01*
X751548Y107383D01*
X751311Y107537D01*
X751078Y107697D01*
X750849Y107862D01*
X750625Y108033D01*
X750404Y108209D01*
X750189Y108391D01*
X749977Y108578D01*
X749770Y108770D01*
X749568Y108967D01*
X749371Y109169D01*
X749179Y109376D01*
X748992Y109588D01*
X748810Y109803D01*
X748634Y110024D01*
X748463Y110248D01*
X748298Y110477D01*
X748138Y110710D01*
X747984Y110947D01*
X747836Y111187D01*
X747694Y111431D01*
X747558Y111678D01*
X747428Y111928D01*
X747304Y112182D01*
X747187Y112439D01*
X747075Y112698D01*
X746971Y112960D01*
X746872Y113225D01*
X746780Y113492D01*
X746695Y113761D01*
X746617Y114032D01*
X746545Y114305D01*
X746479Y114579D01*
X746421Y114855D01*
X746369Y115133D01*
X746324Y115412D01*
X746286Y115691D01*
X746255Y115972D01*
X746231Y116253D01*
X746214Y116535D01*
X746203Y116817D01*
X746200Y117099D01*
D15*
X565800Y43800D03*
X540400Y43800D03*
D16*
X91900Y148690D03*
X91900Y172690D03*
D17*
X283166Y120154D02*
X283166Y113486D01*
X283166Y120154D02*
X289834Y120154D01*
X289834Y113486D01*
X283166Y113486D01*
X283166Y115598D02*
X289834Y115598D01*
X289834Y117710D02*
X283166Y117710D01*
X283166Y119822D02*
X289834Y119822D01*
X283166Y104914D02*
X283166Y98246D01*
X283166Y104914D02*
X289834Y104914D01*
X289834Y98246D01*
X283166Y98246D01*
X283166Y100358D02*
X289834Y100358D01*
X289834Y102470D02*
X283166Y102470D01*
X283166Y104582D02*
X289834Y104582D01*
X143166Y112686D02*
X143166Y119354D01*
X149834Y119354D01*
X149834Y112686D01*
X143166Y112686D01*
X143166Y114798D02*
X149834Y114798D01*
X149834Y116910D02*
X143166Y116910D01*
X143166Y119022D02*
X149834Y119022D01*
X143166Y104114D02*
X143166Y97446D01*
X143166Y104114D02*
X149834Y104114D01*
X149834Y97446D01*
X143166Y97446D01*
X143166Y99558D02*
X149834Y99558D01*
X149834Y101670D02*
X143166Y101670D01*
X143166Y103782D02*
X149834Y103782D01*
D18*
X269400Y737400D03*
X635000Y737400D03*
D19*
X595000Y60800D03*
X595000Y39800D03*
D20*
X243000Y109000D03*
X220000Y109000D03*
X197000Y109000D03*
D21*
X220000Y51000D03*
D22*
X400000Y250000D03*
X340000Y250000D03*
X670000Y250000D03*
X730000Y250000D03*
D14*
X70000Y90000D02*
X70005Y90368D01*
X70018Y90736D01*
X70041Y91103D01*
X70072Y91470D01*
X70113Y91836D01*
X70162Y92201D01*
X70221Y92564D01*
X70288Y92926D01*
X70364Y93287D01*
X70450Y93645D01*
X70543Y94001D01*
X70646Y94354D01*
X70757Y94705D01*
X70877Y95053D01*
X71005Y95398D01*
X71142Y95740D01*
X71287Y96079D01*
X71440Y96413D01*
X71602Y96744D01*
X71771Y97071D01*
X71949Y97393D01*
X72134Y97712D01*
X72327Y98025D01*
X72528Y98334D01*
X72736Y98637D01*
X72952Y98935D01*
X73175Y99228D01*
X73405Y99516D01*
X73642Y99798D01*
X73886Y100073D01*
X74136Y100343D01*
X74393Y100607D01*
X74657Y100864D01*
X74927Y101114D01*
X75202Y101358D01*
X75484Y101595D01*
X75772Y101825D01*
X76065Y102048D01*
X76363Y102264D01*
X76666Y102472D01*
X76975Y102673D01*
X77288Y102866D01*
X77607Y103051D01*
X77929Y103229D01*
X78256Y103398D01*
X78587Y103560D01*
X78921Y103713D01*
X79260Y103858D01*
X79602Y103995D01*
X79947Y104123D01*
X80295Y104243D01*
X80646Y104354D01*
X80999Y104457D01*
X81355Y104550D01*
X81713Y104636D01*
X82074Y104712D01*
X82436Y104779D01*
X82799Y104838D01*
X83164Y104887D01*
X83530Y104928D01*
X83897Y104959D01*
X84264Y104982D01*
X84632Y104995D01*
X85000Y105000D01*
X85368Y104995D01*
X85736Y104982D01*
X86103Y104959D01*
X86470Y104928D01*
X86836Y104887D01*
X87201Y104838D01*
X87564Y104779D01*
X87926Y104712D01*
X88287Y104636D01*
X88645Y104550D01*
X89001Y104457D01*
X89354Y104354D01*
X89705Y104243D01*
X90053Y104123D01*
X90398Y103995D01*
X90740Y103858D01*
X91079Y103713D01*
X91413Y103560D01*
X91744Y103398D01*
X92071Y103229D01*
X92393Y103051D01*
X92712Y102866D01*
X93025Y102673D01*
X93334Y102472D01*
X93637Y102264D01*
X93935Y102048D01*
X94228Y101825D01*
X94516Y101595D01*
X94798Y101358D01*
X95073Y101114D01*
X95343Y100864D01*
X95607Y100607D01*
X95864Y100343D01*
X96114Y100073D01*
X96358Y99798D01*
X96595Y99516D01*
X96825Y99228D01*
X97048Y98935D01*
X97264Y98637D01*
X97472Y98334D01*
X97673Y98025D01*
X97866Y97712D01*
X98051Y97393D01*
X98229Y97071D01*
X98398Y96744D01*
X98560Y96413D01*
X98713Y96079D01*
X98858Y95740D01*
X98995Y95398D01*
X99123Y95053D01*
X99243Y94705D01*
X99354Y94354D01*
X99457Y94001D01*
X99550Y93645D01*
X99636Y93287D01*
X99712Y92926D01*
X99779Y92564D01*
X99838Y92201D01*
X99887Y91836D01*
X99928Y91470D01*
X99959Y91103D01*
X99982Y90736D01*
X99995Y90368D01*
X100000Y90000D01*
X99995Y89632D01*
X99982Y89264D01*
X99959Y88897D01*
X99928Y88530D01*
X99887Y88164D01*
X99838Y87799D01*
X99779Y87436D01*
X99712Y87074D01*
X99636Y86713D01*
X99550Y86355D01*
X99457Y85999D01*
X99354Y85646D01*
X99243Y85295D01*
X99123Y84947D01*
X98995Y84602D01*
X98858Y84260D01*
X98713Y83921D01*
X98560Y83587D01*
X98398Y83256D01*
X98229Y82929D01*
X98051Y82607D01*
X97866Y82288D01*
X97673Y81975D01*
X97472Y81666D01*
X97264Y81363D01*
X97048Y81065D01*
X96825Y80772D01*
X96595Y80484D01*
X96358Y80202D01*
X96114Y79927D01*
X95864Y79657D01*
X95607Y79393D01*
X95343Y79136D01*
X95073Y78886D01*
X94798Y78642D01*
X94516Y78405D01*
X94228Y78175D01*
X93935Y77952D01*
X93637Y77736D01*
X93334Y77528D01*
X93025Y77327D01*
X92712Y77134D01*
X92393Y76949D01*
X92071Y76771D01*
X91744Y76602D01*
X91413Y76440D01*
X91079Y76287D01*
X90740Y76142D01*
X90398Y76005D01*
X90053Y75877D01*
X89705Y75757D01*
X89354Y75646D01*
X89001Y75543D01*
X88645Y75450D01*
X88287Y75364D01*
X87926Y75288D01*
X87564Y75221D01*
X87201Y75162D01*
X86836Y75113D01*
X86470Y75072D01*
X86103Y75041D01*
X85736Y75018D01*
X85368Y75005D01*
X85000Y75000D01*
X84632Y75005D01*
X84264Y75018D01*
X83897Y75041D01*
X83530Y75072D01*
X83164Y75113D01*
X82799Y75162D01*
X82436Y75221D01*
X82074Y75288D01*
X81713Y75364D01*
X81355Y75450D01*
X80999Y75543D01*
X80646Y75646D01*
X80295Y75757D01*
X79947Y75877D01*
X79602Y76005D01*
X79260Y76142D01*
X78921Y76287D01*
X78587Y76440D01*
X78256Y76602D01*
X77929Y76771D01*
X77607Y76949D01*
X77288Y77134D01*
X76975Y77327D01*
X76666Y77528D01*
X76363Y77736D01*
X76065Y77952D01*
X75772Y78175D01*
X75484Y78405D01*
X75202Y78642D01*
X74927Y78886D01*
X74657Y79136D01*
X74393Y79393D01*
X74136Y79657D01*
X73886Y79927D01*
X73642Y80202D01*
X73405Y80484D01*
X73175Y80772D01*
X72952Y81065D01*
X72736Y81363D01*
X72528Y81666D01*
X72327Y81975D01*
X72134Y82288D01*
X71949Y82607D01*
X71771Y82929D01*
X71602Y83256D01*
X71440Y83587D01*
X71287Y83921D01*
X71142Y84260D01*
X71005Y84602D01*
X70877Y84947D01*
X70757Y85295D01*
X70646Y85646D01*
X70543Y85999D01*
X70450Y86355D01*
X70364Y86713D01*
X70288Y87074D01*
X70221Y87436D01*
X70162Y87799D01*
X70113Y88164D01*
X70072Y88530D01*
X70041Y88897D01*
X70018Y89264D01*
X70005Y89632D01*
X70000Y90000D01*
X810000Y90000D02*
X810005Y90368D01*
X810018Y90736D01*
X810041Y91103D01*
X810072Y91470D01*
X810113Y91836D01*
X810162Y92201D01*
X810221Y92564D01*
X810288Y92926D01*
X810364Y93287D01*
X810450Y93645D01*
X810543Y94001D01*
X810646Y94354D01*
X810757Y94705D01*
X810877Y95053D01*
X811005Y95398D01*
X811142Y95740D01*
X811287Y96079D01*
X811440Y96413D01*
X811602Y96744D01*
X811771Y97071D01*
X811949Y97393D01*
X812134Y97712D01*
X812327Y98025D01*
X812528Y98334D01*
X812736Y98637D01*
X812952Y98935D01*
X813175Y99228D01*
X813405Y99516D01*
X813642Y99798D01*
X813886Y100073D01*
X814136Y100343D01*
X814393Y100607D01*
X814657Y100864D01*
X814927Y101114D01*
X815202Y101358D01*
X815484Y101595D01*
X815772Y101825D01*
X816065Y102048D01*
X816363Y102264D01*
X816666Y102472D01*
X816975Y102673D01*
X817288Y102866D01*
X817607Y103051D01*
X817929Y103229D01*
X818256Y103398D01*
X818587Y103560D01*
X818921Y103713D01*
X819260Y103858D01*
X819602Y103995D01*
X819947Y104123D01*
X820295Y104243D01*
X820646Y104354D01*
X820999Y104457D01*
X821355Y104550D01*
X821713Y104636D01*
X822074Y104712D01*
X822436Y104779D01*
X822799Y104838D01*
X823164Y104887D01*
X823530Y104928D01*
X823897Y104959D01*
X824264Y104982D01*
X824632Y104995D01*
X825000Y105000D01*
X825368Y104995D01*
X825736Y104982D01*
X826103Y104959D01*
X826470Y104928D01*
X826836Y104887D01*
X827201Y104838D01*
X827564Y104779D01*
X827926Y104712D01*
X828287Y104636D01*
X828645Y104550D01*
X829001Y104457D01*
X829354Y104354D01*
X829705Y104243D01*
X830053Y104123D01*
X830398Y103995D01*
X830740Y103858D01*
X831079Y103713D01*
X831413Y103560D01*
X831744Y103398D01*
X832071Y103229D01*
X832393Y103051D01*
X832712Y102866D01*
X833025Y102673D01*
X833334Y102472D01*
X833637Y102264D01*
X833935Y102048D01*
X834228Y101825D01*
X834516Y101595D01*
X834798Y101358D01*
X835073Y101114D01*
X835343Y100864D01*
X835607Y100607D01*
X835864Y100343D01*
X836114Y100073D01*
X836358Y99798D01*
X836595Y99516D01*
X836825Y99228D01*
X837048Y98935D01*
X837264Y98637D01*
X837472Y98334D01*
X837673Y98025D01*
X837866Y97712D01*
X838051Y97393D01*
X838229Y97071D01*
X838398Y96744D01*
X838560Y96413D01*
X838713Y96079D01*
X838858Y95740D01*
X838995Y95398D01*
X839123Y95053D01*
X839243Y94705D01*
X839354Y94354D01*
X839457Y94001D01*
X839550Y93645D01*
X839636Y93287D01*
X839712Y92926D01*
X839779Y92564D01*
X839838Y92201D01*
X839887Y91836D01*
X839928Y91470D01*
X839959Y91103D01*
X839982Y90736D01*
X839995Y90368D01*
X840000Y90000D01*
X839995Y89632D01*
X839982Y89264D01*
X839959Y88897D01*
X839928Y88530D01*
X839887Y88164D01*
X839838Y87799D01*
X839779Y87436D01*
X839712Y87074D01*
X839636Y86713D01*
X839550Y86355D01*
X839457Y85999D01*
X839354Y85646D01*
X839243Y85295D01*
X839123Y84947D01*
X838995Y84602D01*
X838858Y84260D01*
X838713Y83921D01*
X838560Y83587D01*
X838398Y83256D01*
X838229Y82929D01*
X838051Y82607D01*
X837866Y82288D01*
X837673Y81975D01*
X837472Y81666D01*
X837264Y81363D01*
X837048Y81065D01*
X836825Y80772D01*
X836595Y80484D01*
X836358Y80202D01*
X836114Y79927D01*
X835864Y79657D01*
X835607Y79393D01*
X835343Y79136D01*
X835073Y78886D01*
X834798Y78642D01*
X834516Y78405D01*
X834228Y78175D01*
X833935Y77952D01*
X833637Y77736D01*
X833334Y77528D01*
X833025Y77327D01*
X832712Y77134D01*
X832393Y76949D01*
X832071Y76771D01*
X831744Y76602D01*
X831413Y76440D01*
X831079Y76287D01*
X830740Y76142D01*
X830398Y76005D01*
X830053Y75877D01*
X829705Y75757D01*
X829354Y75646D01*
X829001Y75543D01*
X828645Y75450D01*
X828287Y75364D01*
X827926Y75288D01*
X827564Y75221D01*
X827201Y75162D01*
X826836Y75113D01*
X826470Y75072D01*
X826103Y75041D01*
X825736Y75018D01*
X825368Y75005D01*
X825000Y75000D01*
X824632Y75005D01*
X824264Y75018D01*
X823897Y75041D01*
X823530Y75072D01*
X823164Y75113D01*
X822799Y75162D01*
X822436Y75221D01*
X822074Y75288D01*
X821713Y75364D01*
X821355Y75450D01*
X820999Y75543D01*
X820646Y75646D01*
X820295Y75757D01*
X819947Y75877D01*
X819602Y76005D01*
X819260Y76142D01*
X818921Y76287D01*
X818587Y76440D01*
X818256Y76602D01*
X817929Y76771D01*
X817607Y76949D01*
X817288Y77134D01*
X816975Y77327D01*
X816666Y77528D01*
X816363Y77736D01*
X816065Y77952D01*
X815772Y78175D01*
X815484Y78405D01*
X815202Y78642D01*
X814927Y78886D01*
X814657Y79136D01*
X814393Y79393D01*
X814136Y79657D01*
X813886Y79927D01*
X813642Y80202D01*
X813405Y80484D01*
X813175Y80772D01*
X812952Y81065D01*
X812736Y81363D01*
X812528Y81666D01*
X812327Y81975D01*
X812134Y82288D01*
X811949Y82607D01*
X811771Y82929D01*
X811602Y83256D01*
X811440Y83587D01*
X811287Y83921D01*
X811142Y84260D01*
X811005Y84602D01*
X810877Y84947D01*
X810757Y85295D01*
X810646Y85646D01*
X810543Y85999D01*
X810450Y86355D01*
X810364Y86713D01*
X810288Y87074D01*
X810221Y87436D01*
X810162Y87799D01*
X810113Y88164D01*
X810072Y88530D01*
X810041Y88897D01*
X810018Y89264D01*
X810005Y89632D01*
X810000Y90000D01*
X810000Y1000000D02*
X810005Y1000368D01*
X810018Y1000736D01*
X810041Y1001103D01*
X810072Y1001470D01*
X810113Y1001836D01*
X810162Y1002201D01*
X810221Y1002564D01*
X810288Y1002926D01*
X810364Y1003287D01*
X810450Y1003645D01*
X810543Y1004001D01*
X810646Y1004354D01*
X810757Y1004705D01*
X810877Y1005053D01*
X811005Y1005398D01*
X811142Y1005740D01*
X811287Y1006079D01*
X811440Y1006413D01*
X811602Y1006744D01*
X811771Y1007071D01*
X811949Y1007393D01*
X812134Y1007712D01*
X812327Y1008025D01*
X812528Y1008334D01*
X812736Y1008637D01*
X812952Y1008935D01*
X813175Y1009228D01*
X813405Y1009516D01*
X813642Y1009798D01*
X813886Y1010073D01*
X814136Y1010343D01*
X814393Y1010607D01*
X814657Y1010864D01*
X814927Y1011114D01*
X815202Y1011358D01*
X815484Y1011595D01*
X815772Y1011825D01*
X816065Y1012048D01*
X816363Y1012264D01*
X816666Y1012472D01*
X816975Y1012673D01*
X817288Y1012866D01*
X817607Y1013051D01*
X817929Y1013229D01*
X818256Y1013398D01*
X818587Y1013560D01*
X818921Y1013713D01*
X819260Y1013858D01*
X819602Y1013995D01*
X819947Y1014123D01*
X820295Y1014243D01*
X820646Y1014354D01*
X820999Y1014457D01*
X821355Y1014550D01*
X821713Y1014636D01*
X822074Y1014712D01*
X822436Y1014779D01*
X822799Y1014838D01*
X823164Y1014887D01*
X823530Y1014928D01*
X823897Y1014959D01*
X824264Y1014982D01*
X824632Y1014995D01*
X825000Y1015000D01*
X825368Y1014995D01*
X825736Y1014982D01*
X826103Y1014959D01*
X826470Y1014928D01*
X826836Y1014887D01*
X827201Y1014838D01*
X827564Y1014779D01*
X827926Y1014712D01*
X828287Y1014636D01*
X828645Y1014550D01*
X829001Y1014457D01*
X829354Y1014354D01*
X829705Y1014243D01*
X830053Y1014123D01*
X830398Y1013995D01*
X830740Y1013858D01*
X831079Y1013713D01*
X831413Y1013560D01*
X831744Y1013398D01*
X832071Y1013229D01*
X832393Y1013051D01*
X832712Y1012866D01*
X833025Y1012673D01*
X833334Y1012472D01*
X833637Y1012264D01*
X833935Y1012048D01*
X834228Y1011825D01*
X834516Y1011595D01*
X834798Y1011358D01*
X835073Y1011114D01*
X835343Y1010864D01*
X835607Y1010607D01*
X835864Y1010343D01*
X836114Y1010073D01*
X836358Y1009798D01*
X836595Y1009516D01*
X836825Y1009228D01*
X837048Y1008935D01*
X837264Y1008637D01*
X837472Y1008334D01*
X837673Y1008025D01*
X837866Y1007712D01*
X838051Y1007393D01*
X838229Y1007071D01*
X838398Y1006744D01*
X838560Y1006413D01*
X838713Y1006079D01*
X838858Y1005740D01*
X838995Y1005398D01*
X839123Y1005053D01*
X839243Y1004705D01*
X839354Y1004354D01*
X839457Y1004001D01*
X839550Y1003645D01*
X839636Y1003287D01*
X839712Y1002926D01*
X839779Y1002564D01*
X839838Y1002201D01*
X839887Y1001836D01*
X839928Y1001470D01*
X839959Y1001103D01*
X839982Y1000736D01*
X839995Y1000368D01*
X840000Y1000000D01*
X839995Y999632D01*
X839982Y999264D01*
X839959Y998897D01*
X839928Y998530D01*
X839887Y998164D01*
X839838Y997799D01*
X839779Y997436D01*
X839712Y997074D01*
X839636Y996713D01*
X839550Y996355D01*
X839457Y995999D01*
X839354Y995646D01*
X839243Y995295D01*
X839123Y994947D01*
X838995Y994602D01*
X838858Y994260D01*
X838713Y993921D01*
X838560Y993587D01*
X838398Y993256D01*
X838229Y992929D01*
X838051Y992607D01*
X837866Y992288D01*
X837673Y991975D01*
X837472Y991666D01*
X837264Y991363D01*
X837048Y991065D01*
X836825Y990772D01*
X836595Y990484D01*
X836358Y990202D01*
X836114Y989927D01*
X835864Y989657D01*
X835607Y989393D01*
X835343Y989136D01*
X835073Y988886D01*
X834798Y988642D01*
X834516Y988405D01*
X834228Y988175D01*
X833935Y987952D01*
X833637Y987736D01*
X833334Y987528D01*
X833025Y987327D01*
X832712Y987134D01*
X832393Y986949D01*
X832071Y986771D01*
X831744Y986602D01*
X831413Y986440D01*
X831079Y986287D01*
X830740Y986142D01*
X830398Y986005D01*
X830053Y985877D01*
X829705Y985757D01*
X829354Y985646D01*
X829001Y985543D01*
X828645Y985450D01*
X828287Y985364D01*
X827926Y985288D01*
X827564Y985221D01*
X827201Y985162D01*
X826836Y985113D01*
X826470Y985072D01*
X826103Y985041D01*
X825736Y985018D01*
X825368Y985005D01*
X825000Y985000D01*
X824632Y985005D01*
X824264Y985018D01*
X823897Y985041D01*
X823530Y985072D01*
X823164Y985113D01*
X822799Y985162D01*
X822436Y985221D01*
X822074Y985288D01*
X821713Y985364D01*
X821355Y985450D01*
X820999Y985543D01*
X820646Y985646D01*
X820295Y985757D01*
X819947Y985877D01*
X819602Y986005D01*
X819260Y986142D01*
X818921Y986287D01*
X818587Y986440D01*
X818256Y986602D01*
X817929Y986771D01*
X817607Y986949D01*
X817288Y987134D01*
X816975Y987327D01*
X816666Y987528D01*
X816363Y987736D01*
X816065Y987952D01*
X815772Y988175D01*
X815484Y988405D01*
X815202Y988642D01*
X814927Y988886D01*
X814657Y989136D01*
X814393Y989393D01*
X814136Y989657D01*
X813886Y989927D01*
X813642Y990202D01*
X813405Y990484D01*
X813175Y990772D01*
X812952Y991065D01*
X812736Y991363D01*
X812528Y991666D01*
X812327Y991975D01*
X812134Y992288D01*
X811949Y992607D01*
X811771Y992929D01*
X811602Y993256D01*
X811440Y993587D01*
X811287Y993921D01*
X811142Y994260D01*
X811005Y994602D01*
X810877Y994947D01*
X810757Y995295D01*
X810646Y995646D01*
X810543Y995999D01*
X810450Y996355D01*
X810364Y996713D01*
X810288Y997074D01*
X810221Y997436D01*
X810162Y997799D01*
X810113Y998164D01*
X810072Y998530D01*
X810041Y998897D01*
X810018Y999264D01*
X810005Y999632D01*
X810000Y1000000D01*
X70000Y1000000D02*
X70005Y1000368D01*
X70018Y1000736D01*
X70041Y1001103D01*
X70072Y1001470D01*
X70113Y1001836D01*
X70162Y1002201D01*
X70221Y1002564D01*
X70288Y1002926D01*
X70364Y1003287D01*
X70450Y1003645D01*
X70543Y1004001D01*
X70646Y1004354D01*
X70757Y1004705D01*
X70877Y1005053D01*
X71005Y1005398D01*
X71142Y1005740D01*
X71287Y1006079D01*
X71440Y1006413D01*
X71602Y1006744D01*
X71771Y1007071D01*
X71949Y1007393D01*
X72134Y1007712D01*
X72327Y1008025D01*
X72528Y1008334D01*
X72736Y1008637D01*
X72952Y1008935D01*
X73175Y1009228D01*
X73405Y1009516D01*
X73642Y1009798D01*
X73886Y1010073D01*
X74136Y1010343D01*
X74393Y1010607D01*
X74657Y1010864D01*
X74927Y1011114D01*
X75202Y1011358D01*
X75484Y1011595D01*
X75772Y1011825D01*
X76065Y1012048D01*
X76363Y1012264D01*
X76666Y1012472D01*
X76975Y1012673D01*
X77288Y1012866D01*
X77607Y1013051D01*
X77929Y1013229D01*
X78256Y1013398D01*
X78587Y1013560D01*
X78921Y1013713D01*
X79260Y1013858D01*
X79602Y1013995D01*
X79947Y1014123D01*
X80295Y1014243D01*
X80646Y1014354D01*
X80999Y1014457D01*
X81355Y1014550D01*
X81713Y1014636D01*
X82074Y1014712D01*
X82436Y1014779D01*
X82799Y1014838D01*
X83164Y1014887D01*
X83530Y1014928D01*
X83897Y1014959D01*
X84264Y1014982D01*
X84632Y1014995D01*
X85000Y1015000D01*
X85368Y1014995D01*
X85736Y1014982D01*
X86103Y1014959D01*
X86470Y1014928D01*
X86836Y1014887D01*
X87201Y1014838D01*
X87564Y1014779D01*
X87926Y1014712D01*
X88287Y1014636D01*
X88645Y1014550D01*
X89001Y1014457D01*
X89354Y1014354D01*
X89705Y1014243D01*
X90053Y1014123D01*
X90398Y1013995D01*
X90740Y1013858D01*
X91079Y1013713D01*
X91413Y1013560D01*
X91744Y1013398D01*
X92071Y1013229D01*
X92393Y1013051D01*
X92712Y1012866D01*
X93025Y1012673D01*
X93334Y1012472D01*
X93637Y1012264D01*
X93935Y1012048D01*
X94228Y1011825D01*
X94516Y1011595D01*
X94798Y1011358D01*
X95073Y1011114D01*
X95343Y1010864D01*
X95607Y1010607D01*
X95864Y1010343D01*
X96114Y1010073D01*
X96358Y1009798D01*
X96595Y1009516D01*
X96825Y1009228D01*
X97048Y1008935D01*
X97264Y1008637D01*
X97472Y1008334D01*
X97673Y1008025D01*
X97866Y1007712D01*
X98051Y1007393D01*
X98229Y1007071D01*
X98398Y1006744D01*
X98560Y1006413D01*
X98713Y1006079D01*
X98858Y1005740D01*
X98995Y1005398D01*
X99123Y1005053D01*
X99243Y1004705D01*
X99354Y1004354D01*
X99457Y1004001D01*
X99550Y1003645D01*
X99636Y1003287D01*
X99712Y1002926D01*
X99779Y1002564D01*
X99838Y1002201D01*
X99887Y1001836D01*
X99928Y1001470D01*
X99959Y1001103D01*
X99982Y1000736D01*
X99995Y1000368D01*
X100000Y1000000D01*
X99995Y999632D01*
X99982Y999264D01*
X99959Y998897D01*
X99928Y998530D01*
X99887Y998164D01*
X99838Y997799D01*
X99779Y997436D01*
X99712Y997074D01*
X99636Y996713D01*
X99550Y996355D01*
X99457Y995999D01*
X99354Y995646D01*
X99243Y995295D01*
X99123Y994947D01*
X98995Y994602D01*
X98858Y994260D01*
X98713Y993921D01*
X98560Y993587D01*
X98398Y993256D01*
X98229Y992929D01*
X98051Y992607D01*
X97866Y992288D01*
X97673Y991975D01*
X97472Y991666D01*
X97264Y991363D01*
X97048Y991065D01*
X96825Y990772D01*
X96595Y990484D01*
X96358Y990202D01*
X96114Y989927D01*
X95864Y989657D01*
X95607Y989393D01*
X95343Y989136D01*
X95073Y988886D01*
X94798Y988642D01*
X94516Y988405D01*
X94228Y988175D01*
X93935Y987952D01*
X93637Y987736D01*
X93334Y987528D01*
X93025Y987327D01*
X92712Y987134D01*
X92393Y986949D01*
X92071Y986771D01*
X91744Y986602D01*
X91413Y986440D01*
X91079Y986287D01*
X90740Y986142D01*
X90398Y986005D01*
X90053Y985877D01*
X89705Y985757D01*
X89354Y985646D01*
X89001Y985543D01*
X88645Y985450D01*
X88287Y985364D01*
X87926Y985288D01*
X87564Y985221D01*
X87201Y985162D01*
X86836Y985113D01*
X86470Y985072D01*
X86103Y985041D01*
X85736Y985018D01*
X85368Y985005D01*
X85000Y985000D01*
X84632Y985005D01*
X84264Y985018D01*
X83897Y985041D01*
X83530Y985072D01*
X83164Y985113D01*
X82799Y985162D01*
X82436Y985221D01*
X82074Y985288D01*
X81713Y985364D01*
X81355Y985450D01*
X80999Y985543D01*
X80646Y985646D01*
X80295Y985757D01*
X79947Y985877D01*
X79602Y986005D01*
X79260Y986142D01*
X78921Y986287D01*
X78587Y986440D01*
X78256Y986602D01*
X77929Y986771D01*
X77607Y986949D01*
X77288Y987134D01*
X76975Y987327D01*
X76666Y987528D01*
X76363Y987736D01*
X76065Y987952D01*
X75772Y988175D01*
X75484Y988405D01*
X75202Y988642D01*
X74927Y988886D01*
X74657Y989136D01*
X74393Y989393D01*
X74136Y989657D01*
X73886Y989927D01*
X73642Y990202D01*
X73405Y990484D01*
X73175Y990772D01*
X72952Y991065D01*
X72736Y991363D01*
X72528Y991666D01*
X72327Y991975D01*
X72134Y992288D01*
X71949Y992607D01*
X71771Y992929D01*
X71602Y993256D01*
X71440Y993587D01*
X71287Y993921D01*
X71142Y994260D01*
X71005Y994602D01*
X70877Y994947D01*
X70757Y995295D01*
X70646Y995646D01*
X70543Y995999D01*
X70450Y996355D01*
X70364Y996713D01*
X70288Y997074D01*
X70221Y997436D01*
X70162Y997799D01*
X70113Y998164D01*
X70072Y998530D01*
X70041Y998897D01*
X70018Y999264D01*
X70005Y999632D01*
X70000Y1000000D01*
D23*
X266500Y133500D02*
X266500Y111580D01*
D24*
X276500Y101580D02*
X286500Y101580D01*
D23*
X276500Y101580D02*
X266500Y111580D01*
X266500Y133500D02*
X255000Y145000D01*
X215000Y145000D01*
X197000Y127000D01*
X197000Y109000D01*
X290000Y175000D02*
X305000Y160000D01*
X305000Y95000D01*
X293080Y95000D01*
X286500Y101580D01*
X290000Y175000D02*
X148210Y175000D01*
X121900Y148690D01*
X91900Y148690D01*
D25*
X146500Y83500D02*
X175000Y55000D01*
X146500Y83500D02*
X146500Y100780D01*
X175000Y55000D02*
X220000Y55000D01*
D23*
X220000Y109000D01*
D26*
X220000Y55000D02*
X220000Y51000D01*
D25*
X380000Y80000D02*
X405000Y55000D01*
X422700Y55000D02*
X430950Y63250D01*
X422700Y55000D02*
X405000Y55000D01*
D26*
X380000Y80000D02*
X377375Y83250D01*
D23*
X435000Y60000D02*
X460000Y35000D01*
D25*
X435000Y60000D02*
X430950Y63250D01*
D23*
X235000Y35000D02*
X220000Y50000D01*
X235000Y35000D02*
X460000Y35000D01*
D26*
X220000Y50000D02*
X220000Y51000D01*
D23*
X460000Y35000D02*
X505000Y35000D01*
X520000Y20000D02*
X565800Y20000D01*
X565800Y43800D01*
X520000Y20000D02*
X505000Y35000D01*
X565800Y43800D02*
X569800Y39800D01*
X595000Y39800D01*
D25*
X520000Y70000D02*
X518100Y73250D01*
D23*
X556600Y60000D02*
X595000Y60000D01*
D26*
X595000Y60800D01*
D23*
X556600Y60000D02*
X540400Y43800D01*
X540400Y49600D01*
X520000Y70000D01*
D25*
X370000Y100000D02*
X340250Y70250D01*
X323800Y70250D01*
X370000Y100000D02*
X375000Y100000D01*
D26*
X377375Y100250D01*
D23*
X415000Y140000D02*
X600000Y140000D01*
X415000Y140000D02*
X380000Y105000D01*
X377375Y100250D01*
X600000Y140000D02*
X640000Y180000D01*
X670000Y180000D01*
X682000Y168000D02*
X682000Y144201D01*
X682000Y168000D02*
X670000Y180000D01*
D25*
X475000Y85000D02*
X435000Y85000D01*
X430950Y80250D01*
X475000Y85000D02*
X475475Y89750D01*
D27*
X500000Y60000D03*
D25*
X500000Y70000D01*
X485000Y85000D02*
X475000Y85000D01*
X485000Y85000D02*
X500000Y70000D01*
D27*
X470000Y830000D03*
D28*
X440000Y800000D01*
X440000Y390000D01*
D27*
X440000Y390000D03*
D28*
X269400Y560600D02*
X269400Y737400D01*
X269400Y560600D02*
X440000Y390000D01*
D24*
X360000Y310000D01*
X341376Y310000D01*
X160000Y310000D01*
X92295Y242295D01*
X91900Y242690D01*
X91900Y172690D01*
X341376Y251460D02*
X341376Y310000D01*
D26*
X341376Y251460D02*
X340000Y250000D01*
D25*
X190000Y160000D02*
X150000Y120000D01*
X190000Y160000D02*
X265000Y160000D01*
X286071Y138929D01*
X150000Y120000D02*
X146500Y116020D01*
X286500Y116820D02*
X286500Y138020D01*
D26*
X286071Y138929D01*
M02*
