G04 EAGLE Gerber RS-274X export*
G75*
%MOMM*%
%FSLAX34Y34*%
%LPD*%
%INSlot drills/holes*%
%IPPOS*%
%AMOC8*
5,1,8,0,0,1.08239X$1,22.5*%
G01*
%ADD10C,0.001000*%
%ADD11C,0.000000*%


D10*
X12286Y7998D02*
X892286Y7998D01*
X892286Y1068368D01*
X12286Y1068368D01*
X12286Y7998D01*
D11*
X614800Y117099D02*
X614803Y117381D01*
X614814Y117663D01*
X614831Y117945D01*
X614855Y118226D01*
X614886Y118507D01*
X614924Y118786D01*
X614969Y119065D01*
X615021Y119343D01*
X615079Y119619D01*
X615145Y119893D01*
X615217Y120166D01*
X615295Y120437D01*
X615380Y120706D01*
X615472Y120973D01*
X615571Y121238D01*
X615675Y121500D01*
X615787Y121759D01*
X615904Y122016D01*
X616028Y122270D01*
X616158Y122520D01*
X616294Y122767D01*
X616436Y123011D01*
X616584Y123251D01*
X616738Y123488D01*
X616898Y123721D01*
X617063Y123950D01*
X617234Y124174D01*
X617410Y124395D01*
X617592Y124610D01*
X617779Y124822D01*
X617971Y125029D01*
X618168Y125231D01*
X618370Y125428D01*
X618577Y125620D01*
X618789Y125807D01*
X619004Y125989D01*
X619225Y126165D01*
X619449Y126336D01*
X619678Y126501D01*
X619911Y126661D01*
X620148Y126815D01*
X620388Y126963D01*
X620632Y127105D01*
X620879Y127241D01*
X621129Y127371D01*
X621383Y127495D01*
X621640Y127612D01*
X621899Y127724D01*
X622161Y127828D01*
X622426Y127927D01*
X622693Y128019D01*
X622962Y128104D01*
X623233Y128182D01*
X623506Y128254D01*
X623780Y128320D01*
X624056Y128378D01*
X624334Y128430D01*
X624613Y128475D01*
X624892Y128513D01*
X625173Y128544D01*
X625454Y128568D01*
X625736Y128585D01*
X626018Y128596D01*
X626300Y128599D01*
X626582Y128596D01*
X626864Y128585D01*
X627146Y128568D01*
X627427Y128544D01*
X627708Y128513D01*
X627987Y128475D01*
X628266Y128430D01*
X628544Y128378D01*
X628820Y128320D01*
X629094Y128254D01*
X629367Y128182D01*
X629638Y128104D01*
X629907Y128019D01*
X630174Y127927D01*
X630439Y127828D01*
X630701Y127724D01*
X630960Y127612D01*
X631217Y127495D01*
X631471Y127371D01*
X631721Y127241D01*
X631968Y127105D01*
X632212Y126963D01*
X632452Y126815D01*
X632689Y126661D01*
X632922Y126501D01*
X633151Y126336D01*
X633375Y126165D01*
X633596Y125989D01*
X633811Y125807D01*
X634023Y125620D01*
X634230Y125428D01*
X634432Y125231D01*
X634629Y125029D01*
X634821Y124822D01*
X635008Y124610D01*
X635190Y124395D01*
X635366Y124174D01*
X635537Y123950D01*
X635702Y123721D01*
X635862Y123488D01*
X636016Y123251D01*
X636164Y123011D01*
X636306Y122767D01*
X636442Y122520D01*
X636572Y122270D01*
X636696Y122016D01*
X636813Y121759D01*
X636925Y121500D01*
X637029Y121238D01*
X637128Y120973D01*
X637220Y120706D01*
X637305Y120437D01*
X637383Y120166D01*
X637455Y119893D01*
X637521Y119619D01*
X637579Y119343D01*
X637631Y119065D01*
X637676Y118786D01*
X637714Y118507D01*
X637745Y118226D01*
X637769Y117945D01*
X637786Y117663D01*
X637797Y117381D01*
X637800Y117099D01*
X637797Y116817D01*
X637786Y116535D01*
X637769Y116253D01*
X637745Y115972D01*
X637714Y115691D01*
X637676Y115412D01*
X637631Y115133D01*
X637579Y114855D01*
X637521Y114579D01*
X637455Y114305D01*
X637383Y114032D01*
X637305Y113761D01*
X637220Y113492D01*
X637128Y113225D01*
X637029Y112960D01*
X636925Y112698D01*
X636813Y112439D01*
X636696Y112182D01*
X636572Y111928D01*
X636442Y111678D01*
X636306Y111431D01*
X636164Y111187D01*
X636016Y110947D01*
X635862Y110710D01*
X635702Y110477D01*
X635537Y110248D01*
X635366Y110024D01*
X635190Y109803D01*
X635008Y109588D01*
X634821Y109376D01*
X634629Y109169D01*
X634432Y108967D01*
X634230Y108770D01*
X634023Y108578D01*
X633811Y108391D01*
X633596Y108209D01*
X633375Y108033D01*
X633151Y107862D01*
X632922Y107697D01*
X632689Y107537D01*
X632452Y107383D01*
X632212Y107235D01*
X631968Y107093D01*
X631721Y106957D01*
X631471Y106827D01*
X631217Y106703D01*
X630960Y106586D01*
X630701Y106474D01*
X630439Y106370D01*
X630174Y106271D01*
X629907Y106179D01*
X629638Y106094D01*
X629367Y106016D01*
X629094Y105944D01*
X628820Y105878D01*
X628544Y105820D01*
X628266Y105768D01*
X627987Y105723D01*
X627708Y105685D01*
X627427Y105654D01*
X627146Y105630D01*
X626864Y105613D01*
X626582Y105602D01*
X626300Y105599D01*
X626018Y105602D01*
X625736Y105613D01*
X625454Y105630D01*
X625173Y105654D01*
X624892Y105685D01*
X624613Y105723D01*
X624334Y105768D01*
X624056Y105820D01*
X623780Y105878D01*
X623506Y105944D01*
X623233Y106016D01*
X622962Y106094D01*
X622693Y106179D01*
X622426Y106271D01*
X622161Y106370D01*
X621899Y106474D01*
X621640Y106586D01*
X621383Y106703D01*
X621129Y106827D01*
X620879Y106957D01*
X620632Y107093D01*
X620388Y107235D01*
X620148Y107383D01*
X619911Y107537D01*
X619678Y107697D01*
X619449Y107862D01*
X619225Y108033D01*
X619004Y108209D01*
X618789Y108391D01*
X618577Y108578D01*
X618370Y108770D01*
X618168Y108967D01*
X617971Y109169D01*
X617779Y109376D01*
X617592Y109588D01*
X617410Y109803D01*
X617234Y110024D01*
X617063Y110248D01*
X616898Y110477D01*
X616738Y110710D01*
X616584Y110947D01*
X616436Y111187D01*
X616294Y111431D01*
X616158Y111678D01*
X616028Y111928D01*
X615904Y112182D01*
X615787Y112439D01*
X615675Y112698D01*
X615571Y112960D01*
X615472Y113225D01*
X615380Y113492D01*
X615295Y113761D01*
X615217Y114032D01*
X615145Y114305D01*
X615079Y114579D01*
X615021Y114855D01*
X614969Y115133D01*
X614924Y115412D01*
X614886Y115691D01*
X614855Y115972D01*
X614831Y116253D01*
X614814Y116535D01*
X614803Y116817D01*
X614800Y117099D01*
X746200Y117099D02*
X746203Y117381D01*
X746214Y117663D01*
X746231Y117945D01*
X746255Y118226D01*
X746286Y118507D01*
X746324Y118786D01*
X746369Y119065D01*
X746421Y119343D01*
X746479Y119619D01*
X746545Y119893D01*
X746617Y120166D01*
X746695Y120437D01*
X746780Y120706D01*
X746872Y120973D01*
X746971Y121238D01*
X747075Y121500D01*
X747187Y121759D01*
X747304Y122016D01*
X747428Y122270D01*
X747558Y122520D01*
X747694Y122767D01*
X747836Y123011D01*
X747984Y123251D01*
X748138Y123488D01*
X748298Y123721D01*
X748463Y123950D01*
X748634Y124174D01*
X748810Y124395D01*
X748992Y124610D01*
X749179Y124822D01*
X749371Y125029D01*
X749568Y125231D01*
X749770Y125428D01*
X749977Y125620D01*
X750189Y125807D01*
X750404Y125989D01*
X750625Y126165D01*
X750849Y126336D01*
X751078Y126501D01*
X751311Y126661D01*
X751548Y126815D01*
X751788Y126963D01*
X752032Y127105D01*
X752279Y127241D01*
X752529Y127371D01*
X752783Y127495D01*
X753040Y127612D01*
X753299Y127724D01*
X753561Y127828D01*
X753826Y127927D01*
X754093Y128019D01*
X754362Y128104D01*
X754633Y128182D01*
X754906Y128254D01*
X755180Y128320D01*
X755456Y128378D01*
X755734Y128430D01*
X756013Y128475D01*
X756292Y128513D01*
X756573Y128544D01*
X756854Y128568D01*
X757136Y128585D01*
X757418Y128596D01*
X757700Y128599D01*
X757982Y128596D01*
X758264Y128585D01*
X758546Y128568D01*
X758827Y128544D01*
X759108Y128513D01*
X759387Y128475D01*
X759666Y128430D01*
X759944Y128378D01*
X760220Y128320D01*
X760494Y128254D01*
X760767Y128182D01*
X761038Y128104D01*
X761307Y128019D01*
X761574Y127927D01*
X761839Y127828D01*
X762101Y127724D01*
X762360Y127612D01*
X762617Y127495D01*
X762871Y127371D01*
X763121Y127241D01*
X763368Y127105D01*
X763612Y126963D01*
X763852Y126815D01*
X764089Y126661D01*
X764322Y126501D01*
X764551Y126336D01*
X764775Y126165D01*
X764996Y125989D01*
X765211Y125807D01*
X765423Y125620D01*
X765630Y125428D01*
X765832Y125231D01*
X766029Y125029D01*
X766221Y124822D01*
X766408Y124610D01*
X766590Y124395D01*
X766766Y124174D01*
X766937Y123950D01*
X767102Y123721D01*
X767262Y123488D01*
X767416Y123251D01*
X767564Y123011D01*
X767706Y122767D01*
X767842Y122520D01*
X767972Y122270D01*
X768096Y122016D01*
X768213Y121759D01*
X768325Y121500D01*
X768429Y121238D01*
X768528Y120973D01*
X768620Y120706D01*
X768705Y120437D01*
X768783Y120166D01*
X768855Y119893D01*
X768921Y119619D01*
X768979Y119343D01*
X769031Y119065D01*
X769076Y118786D01*
X769114Y118507D01*
X769145Y118226D01*
X769169Y117945D01*
X769186Y117663D01*
X769197Y117381D01*
X769200Y117099D01*
X769197Y116817D01*
X769186Y116535D01*
X769169Y116253D01*
X769145Y115972D01*
X769114Y115691D01*
X769076Y115412D01*
X769031Y115133D01*
X768979Y114855D01*
X768921Y114579D01*
X768855Y114305D01*
X768783Y114032D01*
X768705Y113761D01*
X768620Y113492D01*
X768528Y113225D01*
X768429Y112960D01*
X768325Y112698D01*
X768213Y112439D01*
X768096Y112182D01*
X767972Y111928D01*
X767842Y111678D01*
X767706Y111431D01*
X767564Y111187D01*
X767416Y110947D01*
X767262Y110710D01*
X767102Y110477D01*
X766937Y110248D01*
X766766Y110024D01*
X766590Y109803D01*
X766408Y109588D01*
X766221Y109376D01*
X766029Y109169D01*
X765832Y108967D01*
X765630Y108770D01*
X765423Y108578D01*
X765211Y108391D01*
X764996Y108209D01*
X764775Y108033D01*
X764551Y107862D01*
X764322Y107697D01*
X764089Y107537D01*
X763852Y107383D01*
X763612Y107235D01*
X763368Y107093D01*
X763121Y106957D01*
X762871Y106827D01*
X762617Y106703D01*
X762360Y106586D01*
X762101Y106474D01*
X761839Y106370D01*
X761574Y106271D01*
X761307Y106179D01*
X761038Y106094D01*
X760767Y106016D01*
X760494Y105944D01*
X760220Y105878D01*
X759944Y105820D01*
X759666Y105768D01*
X759387Y105723D01*
X759108Y105685D01*
X758827Y105654D01*
X758546Y105630D01*
X758264Y105613D01*
X757982Y105602D01*
X757700Y105599D01*
X757418Y105602D01*
X757136Y105613D01*
X756854Y105630D01*
X756573Y105654D01*
X756292Y105685D01*
X756013Y105723D01*
X755734Y105768D01*
X755456Y105820D01*
X755180Y105878D01*
X754906Y105944D01*
X754633Y106016D01*
X754362Y106094D01*
X754093Y106179D01*
X753826Y106271D01*
X753561Y106370D01*
X753299Y106474D01*
X753040Y106586D01*
X752783Y106703D01*
X752529Y106827D01*
X752279Y106957D01*
X752032Y107093D01*
X751788Y107235D01*
X751548Y107383D01*
X751311Y107537D01*
X751078Y107697D01*
X750849Y107862D01*
X750625Y108033D01*
X750404Y108209D01*
X750189Y108391D01*
X749977Y108578D01*
X749770Y108770D01*
X749568Y108967D01*
X749371Y109169D01*
X749179Y109376D01*
X748992Y109588D01*
X748810Y109803D01*
X748634Y110024D01*
X748463Y110248D01*
X748298Y110477D01*
X748138Y110710D01*
X747984Y110947D01*
X747836Y111187D01*
X747694Y111431D01*
X747558Y111678D01*
X747428Y111928D01*
X747304Y112182D01*
X747187Y112439D01*
X747075Y112698D01*
X746971Y112960D01*
X746872Y113225D01*
X746780Y113492D01*
X746695Y113761D01*
X746617Y114032D01*
X746545Y114305D01*
X746479Y114579D01*
X746421Y114855D01*
X746369Y115133D01*
X746324Y115412D01*
X746286Y115691D01*
X746255Y115972D01*
X746231Y116253D01*
X746214Y116535D01*
X746203Y116817D01*
X746200Y117099D01*
X70000Y90000D02*
X70005Y90368D01*
X70018Y90736D01*
X70041Y91103D01*
X70072Y91470D01*
X70113Y91836D01*
X70162Y92201D01*
X70221Y92564D01*
X70288Y92926D01*
X70364Y93287D01*
X70450Y93645D01*
X70543Y94001D01*
X70646Y94354D01*
X70757Y94705D01*
X70877Y95053D01*
X71005Y95398D01*
X71142Y95740D01*
X71287Y96079D01*
X71440Y96413D01*
X71602Y96744D01*
X71771Y97071D01*
X71949Y97393D01*
X72134Y97712D01*
X72327Y98025D01*
X72528Y98334D01*
X72736Y98637D01*
X72952Y98935D01*
X73175Y99228D01*
X73405Y99516D01*
X73642Y99798D01*
X73886Y100073D01*
X74136Y100343D01*
X74393Y100607D01*
X74657Y100864D01*
X74927Y101114D01*
X75202Y101358D01*
X75484Y101595D01*
X75772Y101825D01*
X76065Y102048D01*
X76363Y102264D01*
X76666Y102472D01*
X76975Y102673D01*
X77288Y102866D01*
X77607Y103051D01*
X77929Y103229D01*
X78256Y103398D01*
X78587Y103560D01*
X78921Y103713D01*
X79260Y103858D01*
X79602Y103995D01*
X79947Y104123D01*
X80295Y104243D01*
X80646Y104354D01*
X80999Y104457D01*
X81355Y104550D01*
X81713Y104636D01*
X82074Y104712D01*
X82436Y104779D01*
X82799Y104838D01*
X83164Y104887D01*
X83530Y104928D01*
X83897Y104959D01*
X84264Y104982D01*
X84632Y104995D01*
X85000Y105000D01*
X85368Y104995D01*
X85736Y104982D01*
X86103Y104959D01*
X86470Y104928D01*
X86836Y104887D01*
X87201Y104838D01*
X87564Y104779D01*
X87926Y104712D01*
X88287Y104636D01*
X88645Y104550D01*
X89001Y104457D01*
X89354Y104354D01*
X89705Y104243D01*
X90053Y104123D01*
X90398Y103995D01*
X90740Y103858D01*
X91079Y103713D01*
X91413Y103560D01*
X91744Y103398D01*
X92071Y103229D01*
X92393Y103051D01*
X92712Y102866D01*
X93025Y102673D01*
X93334Y102472D01*
X93637Y102264D01*
X93935Y102048D01*
X94228Y101825D01*
X94516Y101595D01*
X94798Y101358D01*
X95073Y101114D01*
X95343Y100864D01*
X95607Y100607D01*
X95864Y100343D01*
X96114Y100073D01*
X96358Y99798D01*
X96595Y99516D01*
X96825Y99228D01*
X97048Y98935D01*
X97264Y98637D01*
X97472Y98334D01*
X97673Y98025D01*
X97866Y97712D01*
X98051Y97393D01*
X98229Y97071D01*
X98398Y96744D01*
X98560Y96413D01*
X98713Y96079D01*
X98858Y95740D01*
X98995Y95398D01*
X99123Y95053D01*
X99243Y94705D01*
X99354Y94354D01*
X99457Y94001D01*
X99550Y93645D01*
X99636Y93287D01*
X99712Y92926D01*
X99779Y92564D01*
X99838Y92201D01*
X99887Y91836D01*
X99928Y91470D01*
X99959Y91103D01*
X99982Y90736D01*
X99995Y90368D01*
X100000Y90000D01*
X99995Y89632D01*
X99982Y89264D01*
X99959Y88897D01*
X99928Y88530D01*
X99887Y88164D01*
X99838Y87799D01*
X99779Y87436D01*
X99712Y87074D01*
X99636Y86713D01*
X99550Y86355D01*
X99457Y85999D01*
X99354Y85646D01*
X99243Y85295D01*
X99123Y84947D01*
X98995Y84602D01*
X98858Y84260D01*
X98713Y83921D01*
X98560Y83587D01*
X98398Y83256D01*
X98229Y82929D01*
X98051Y82607D01*
X97866Y82288D01*
X97673Y81975D01*
X97472Y81666D01*
X97264Y81363D01*
X97048Y81065D01*
X96825Y80772D01*
X96595Y80484D01*
X96358Y80202D01*
X96114Y79927D01*
X95864Y79657D01*
X95607Y79393D01*
X95343Y79136D01*
X95073Y78886D01*
X94798Y78642D01*
X94516Y78405D01*
X94228Y78175D01*
X93935Y77952D01*
X93637Y77736D01*
X93334Y77528D01*
X93025Y77327D01*
X92712Y77134D01*
X92393Y76949D01*
X92071Y76771D01*
X91744Y76602D01*
X91413Y76440D01*
X91079Y76287D01*
X90740Y76142D01*
X90398Y76005D01*
X90053Y75877D01*
X89705Y75757D01*
X89354Y75646D01*
X89001Y75543D01*
X88645Y75450D01*
X88287Y75364D01*
X87926Y75288D01*
X87564Y75221D01*
X87201Y75162D01*
X86836Y75113D01*
X86470Y75072D01*
X86103Y75041D01*
X85736Y75018D01*
X85368Y75005D01*
X85000Y75000D01*
X84632Y75005D01*
X84264Y75018D01*
X83897Y75041D01*
X83530Y75072D01*
X83164Y75113D01*
X82799Y75162D01*
X82436Y75221D01*
X82074Y75288D01*
X81713Y75364D01*
X81355Y75450D01*
X80999Y75543D01*
X80646Y75646D01*
X80295Y75757D01*
X79947Y75877D01*
X79602Y76005D01*
X79260Y76142D01*
X78921Y76287D01*
X78587Y76440D01*
X78256Y76602D01*
X77929Y76771D01*
X77607Y76949D01*
X77288Y77134D01*
X76975Y77327D01*
X76666Y77528D01*
X76363Y77736D01*
X76065Y77952D01*
X75772Y78175D01*
X75484Y78405D01*
X75202Y78642D01*
X74927Y78886D01*
X74657Y79136D01*
X74393Y79393D01*
X74136Y79657D01*
X73886Y79927D01*
X73642Y80202D01*
X73405Y80484D01*
X73175Y80772D01*
X72952Y81065D01*
X72736Y81363D01*
X72528Y81666D01*
X72327Y81975D01*
X72134Y82288D01*
X71949Y82607D01*
X71771Y82929D01*
X71602Y83256D01*
X71440Y83587D01*
X71287Y83921D01*
X71142Y84260D01*
X71005Y84602D01*
X70877Y84947D01*
X70757Y85295D01*
X70646Y85646D01*
X70543Y85999D01*
X70450Y86355D01*
X70364Y86713D01*
X70288Y87074D01*
X70221Y87436D01*
X70162Y87799D01*
X70113Y88164D01*
X70072Y88530D01*
X70041Y88897D01*
X70018Y89264D01*
X70005Y89632D01*
X70000Y90000D01*
X810000Y90000D02*
X810005Y90368D01*
X810018Y90736D01*
X810041Y91103D01*
X810072Y91470D01*
X810113Y91836D01*
X810162Y92201D01*
X810221Y92564D01*
X810288Y92926D01*
X810364Y93287D01*
X810450Y93645D01*
X810543Y94001D01*
X810646Y94354D01*
X810757Y94705D01*
X810877Y95053D01*
X811005Y95398D01*
X811142Y95740D01*
X811287Y96079D01*
X811440Y96413D01*
X811602Y96744D01*
X811771Y97071D01*
X811949Y97393D01*
X812134Y97712D01*
X812327Y98025D01*
X812528Y98334D01*
X812736Y98637D01*
X812952Y98935D01*
X813175Y99228D01*
X813405Y99516D01*
X813642Y99798D01*
X813886Y100073D01*
X814136Y100343D01*
X814393Y100607D01*
X814657Y100864D01*
X814927Y101114D01*
X815202Y101358D01*
X815484Y101595D01*
X815772Y101825D01*
X816065Y102048D01*
X816363Y102264D01*
X816666Y102472D01*
X816975Y102673D01*
X817288Y102866D01*
X817607Y103051D01*
X817929Y103229D01*
X818256Y103398D01*
X818587Y103560D01*
X818921Y103713D01*
X819260Y103858D01*
X819602Y103995D01*
X819947Y104123D01*
X820295Y104243D01*
X820646Y104354D01*
X820999Y104457D01*
X821355Y104550D01*
X821713Y104636D01*
X822074Y104712D01*
X822436Y104779D01*
X822799Y104838D01*
X823164Y104887D01*
X823530Y104928D01*
X823897Y104959D01*
X824264Y104982D01*
X824632Y104995D01*
X825000Y105000D01*
X825368Y104995D01*
X825736Y104982D01*
X826103Y104959D01*
X826470Y104928D01*
X826836Y104887D01*
X827201Y104838D01*
X827564Y104779D01*
X827926Y104712D01*
X828287Y104636D01*
X828645Y104550D01*
X829001Y104457D01*
X829354Y104354D01*
X829705Y104243D01*
X830053Y104123D01*
X830398Y103995D01*
X830740Y103858D01*
X831079Y103713D01*
X831413Y103560D01*
X831744Y103398D01*
X832071Y103229D01*
X832393Y103051D01*
X832712Y102866D01*
X833025Y102673D01*
X833334Y102472D01*
X833637Y102264D01*
X833935Y102048D01*
X834228Y101825D01*
X834516Y101595D01*
X834798Y101358D01*
X835073Y101114D01*
X835343Y100864D01*
X835607Y100607D01*
X835864Y100343D01*
X836114Y100073D01*
X836358Y99798D01*
X836595Y99516D01*
X836825Y99228D01*
X837048Y98935D01*
X837264Y98637D01*
X837472Y98334D01*
X837673Y98025D01*
X837866Y97712D01*
X838051Y97393D01*
X838229Y97071D01*
X838398Y96744D01*
X838560Y96413D01*
X838713Y96079D01*
X838858Y95740D01*
X838995Y95398D01*
X839123Y95053D01*
X839243Y94705D01*
X839354Y94354D01*
X839457Y94001D01*
X839550Y93645D01*
X839636Y93287D01*
X839712Y92926D01*
X839779Y92564D01*
X839838Y92201D01*
X839887Y91836D01*
X839928Y91470D01*
X839959Y91103D01*
X839982Y90736D01*
X839995Y90368D01*
X840000Y90000D01*
X839995Y89632D01*
X839982Y89264D01*
X839959Y88897D01*
X839928Y88530D01*
X839887Y88164D01*
X839838Y87799D01*
X839779Y87436D01*
X839712Y87074D01*
X839636Y86713D01*
X839550Y86355D01*
X839457Y85999D01*
X839354Y85646D01*
X839243Y85295D01*
X839123Y84947D01*
X838995Y84602D01*
X838858Y84260D01*
X838713Y83921D01*
X838560Y83587D01*
X838398Y83256D01*
X838229Y82929D01*
X838051Y82607D01*
X837866Y82288D01*
X837673Y81975D01*
X837472Y81666D01*
X837264Y81363D01*
X837048Y81065D01*
X836825Y80772D01*
X836595Y80484D01*
X836358Y80202D01*
X836114Y79927D01*
X835864Y79657D01*
X835607Y79393D01*
X835343Y79136D01*
X835073Y78886D01*
X834798Y78642D01*
X834516Y78405D01*
X834228Y78175D01*
X833935Y77952D01*
X833637Y77736D01*
X833334Y77528D01*
X833025Y77327D01*
X832712Y77134D01*
X832393Y76949D01*
X832071Y76771D01*
X831744Y76602D01*
X831413Y76440D01*
X831079Y76287D01*
X830740Y76142D01*
X830398Y76005D01*
X830053Y75877D01*
X829705Y75757D01*
X829354Y75646D01*
X829001Y75543D01*
X828645Y75450D01*
X828287Y75364D01*
X827926Y75288D01*
X827564Y75221D01*
X827201Y75162D01*
X826836Y75113D01*
X826470Y75072D01*
X826103Y75041D01*
X825736Y75018D01*
X825368Y75005D01*
X825000Y75000D01*
X824632Y75005D01*
X824264Y75018D01*
X823897Y75041D01*
X823530Y75072D01*
X823164Y75113D01*
X822799Y75162D01*
X822436Y75221D01*
X822074Y75288D01*
X821713Y75364D01*
X821355Y75450D01*
X820999Y75543D01*
X820646Y75646D01*
X820295Y75757D01*
X819947Y75877D01*
X819602Y76005D01*
X819260Y76142D01*
X818921Y76287D01*
X818587Y76440D01*
X818256Y76602D01*
X817929Y76771D01*
X817607Y76949D01*
X817288Y77134D01*
X816975Y77327D01*
X816666Y77528D01*
X816363Y77736D01*
X816065Y77952D01*
X815772Y78175D01*
X815484Y78405D01*
X815202Y78642D01*
X814927Y78886D01*
X814657Y79136D01*
X814393Y79393D01*
X814136Y79657D01*
X813886Y79927D01*
X813642Y80202D01*
X813405Y80484D01*
X813175Y80772D01*
X812952Y81065D01*
X812736Y81363D01*
X812528Y81666D01*
X812327Y81975D01*
X812134Y82288D01*
X811949Y82607D01*
X811771Y82929D01*
X811602Y83256D01*
X811440Y83587D01*
X811287Y83921D01*
X811142Y84260D01*
X811005Y84602D01*
X810877Y84947D01*
X810757Y85295D01*
X810646Y85646D01*
X810543Y85999D01*
X810450Y86355D01*
X810364Y86713D01*
X810288Y87074D01*
X810221Y87436D01*
X810162Y87799D01*
X810113Y88164D01*
X810072Y88530D01*
X810041Y88897D01*
X810018Y89264D01*
X810005Y89632D01*
X810000Y90000D01*
X810000Y1000000D02*
X810005Y1000368D01*
X810018Y1000736D01*
X810041Y1001103D01*
X810072Y1001470D01*
X810113Y1001836D01*
X810162Y1002201D01*
X810221Y1002564D01*
X810288Y1002926D01*
X810364Y1003287D01*
X810450Y1003645D01*
X810543Y1004001D01*
X810646Y1004354D01*
X810757Y1004705D01*
X810877Y1005053D01*
X811005Y1005398D01*
X811142Y1005740D01*
X811287Y1006079D01*
X811440Y1006413D01*
X811602Y1006744D01*
X811771Y1007071D01*
X811949Y1007393D01*
X812134Y1007712D01*
X812327Y1008025D01*
X812528Y1008334D01*
X812736Y1008637D01*
X812952Y1008935D01*
X813175Y1009228D01*
X813405Y1009516D01*
X813642Y1009798D01*
X813886Y1010073D01*
X814136Y1010343D01*
X814393Y1010607D01*
X814657Y1010864D01*
X814927Y1011114D01*
X815202Y1011358D01*
X815484Y1011595D01*
X815772Y1011825D01*
X816065Y1012048D01*
X816363Y1012264D01*
X816666Y1012472D01*
X816975Y1012673D01*
X817288Y1012866D01*
X817607Y1013051D01*
X817929Y1013229D01*
X818256Y1013398D01*
X818587Y1013560D01*
X818921Y1013713D01*
X819260Y1013858D01*
X819602Y1013995D01*
X819947Y1014123D01*
X820295Y1014243D01*
X820646Y1014354D01*
X820999Y1014457D01*
X821355Y1014550D01*
X821713Y1014636D01*
X822074Y1014712D01*
X822436Y1014779D01*
X822799Y1014838D01*
X823164Y1014887D01*
X823530Y1014928D01*
X823897Y1014959D01*
X824264Y1014982D01*
X824632Y1014995D01*
X825000Y1015000D01*
X825368Y1014995D01*
X825736Y1014982D01*
X826103Y1014959D01*
X826470Y1014928D01*
X826836Y1014887D01*
X827201Y1014838D01*
X827564Y1014779D01*
X827926Y1014712D01*
X828287Y1014636D01*
X828645Y1014550D01*
X829001Y1014457D01*
X829354Y1014354D01*
X829705Y1014243D01*
X830053Y1014123D01*
X830398Y1013995D01*
X830740Y1013858D01*
X831079Y1013713D01*
X831413Y1013560D01*
X831744Y1013398D01*
X832071Y1013229D01*
X832393Y1013051D01*
X832712Y1012866D01*
X833025Y1012673D01*
X833334Y1012472D01*
X833637Y1012264D01*
X833935Y1012048D01*
X834228Y1011825D01*
X834516Y1011595D01*
X834798Y1011358D01*
X835073Y1011114D01*
X835343Y1010864D01*
X835607Y1010607D01*
X835864Y1010343D01*
X836114Y1010073D01*
X836358Y1009798D01*
X836595Y1009516D01*
X836825Y1009228D01*
X837048Y1008935D01*
X837264Y1008637D01*
X837472Y1008334D01*
X837673Y1008025D01*
X837866Y1007712D01*
X838051Y1007393D01*
X838229Y1007071D01*
X838398Y1006744D01*
X838560Y1006413D01*
X838713Y1006079D01*
X838858Y1005740D01*
X838995Y1005398D01*
X839123Y1005053D01*
X839243Y1004705D01*
X839354Y1004354D01*
X839457Y1004001D01*
X839550Y1003645D01*
X839636Y1003287D01*
X839712Y1002926D01*
X839779Y1002564D01*
X839838Y1002201D01*
X839887Y1001836D01*
X839928Y1001470D01*
X839959Y1001103D01*
X839982Y1000736D01*
X839995Y1000368D01*
X840000Y1000000D01*
X839995Y999632D01*
X839982Y999264D01*
X839959Y998897D01*
X839928Y998530D01*
X839887Y998164D01*
X839838Y997799D01*
X839779Y997436D01*
X839712Y997074D01*
X839636Y996713D01*
X839550Y996355D01*
X839457Y995999D01*
X839354Y995646D01*
X839243Y995295D01*
X839123Y994947D01*
X838995Y994602D01*
X838858Y994260D01*
X838713Y993921D01*
X838560Y993587D01*
X838398Y993256D01*
X838229Y992929D01*
X838051Y992607D01*
X837866Y992288D01*
X837673Y991975D01*
X837472Y991666D01*
X837264Y991363D01*
X837048Y991065D01*
X836825Y990772D01*
X836595Y990484D01*
X836358Y990202D01*
X836114Y989927D01*
X835864Y989657D01*
X835607Y989393D01*
X835343Y989136D01*
X835073Y988886D01*
X834798Y988642D01*
X834516Y988405D01*
X834228Y988175D01*
X833935Y987952D01*
X833637Y987736D01*
X833334Y987528D01*
X833025Y987327D01*
X832712Y987134D01*
X832393Y986949D01*
X832071Y986771D01*
X831744Y986602D01*
X831413Y986440D01*
X831079Y986287D01*
X830740Y986142D01*
X830398Y986005D01*
X830053Y985877D01*
X829705Y985757D01*
X829354Y985646D01*
X829001Y985543D01*
X828645Y985450D01*
X828287Y985364D01*
X827926Y985288D01*
X827564Y985221D01*
X827201Y985162D01*
X826836Y985113D01*
X826470Y985072D01*
X826103Y985041D01*
X825736Y985018D01*
X825368Y985005D01*
X825000Y985000D01*
X824632Y985005D01*
X824264Y985018D01*
X823897Y985041D01*
X823530Y985072D01*
X823164Y985113D01*
X822799Y985162D01*
X822436Y985221D01*
X822074Y985288D01*
X821713Y985364D01*
X821355Y985450D01*
X820999Y985543D01*
X820646Y985646D01*
X820295Y985757D01*
X819947Y985877D01*
X819602Y986005D01*
X819260Y986142D01*
X818921Y986287D01*
X818587Y986440D01*
X818256Y986602D01*
X817929Y986771D01*
X817607Y986949D01*
X817288Y987134D01*
X816975Y987327D01*
X816666Y987528D01*
X816363Y987736D01*
X816065Y987952D01*
X815772Y988175D01*
X815484Y988405D01*
X815202Y988642D01*
X814927Y988886D01*
X814657Y989136D01*
X814393Y989393D01*
X814136Y989657D01*
X813886Y989927D01*
X813642Y990202D01*
X813405Y990484D01*
X813175Y990772D01*
X812952Y991065D01*
X812736Y991363D01*
X812528Y991666D01*
X812327Y991975D01*
X812134Y992288D01*
X811949Y992607D01*
X811771Y992929D01*
X811602Y993256D01*
X811440Y993587D01*
X811287Y993921D01*
X811142Y994260D01*
X811005Y994602D01*
X810877Y994947D01*
X810757Y995295D01*
X810646Y995646D01*
X810543Y995999D01*
X810450Y996355D01*
X810364Y996713D01*
X810288Y997074D01*
X810221Y997436D01*
X810162Y997799D01*
X810113Y998164D01*
X810072Y998530D01*
X810041Y998897D01*
X810018Y999264D01*
X810005Y999632D01*
X810000Y1000000D01*
X70000Y1000000D02*
X70005Y1000368D01*
X70018Y1000736D01*
X70041Y1001103D01*
X70072Y1001470D01*
X70113Y1001836D01*
X70162Y1002201D01*
X70221Y1002564D01*
X70288Y1002926D01*
X70364Y1003287D01*
X70450Y1003645D01*
X70543Y1004001D01*
X70646Y1004354D01*
X70757Y1004705D01*
X70877Y1005053D01*
X71005Y1005398D01*
X71142Y1005740D01*
X71287Y1006079D01*
X71440Y1006413D01*
X71602Y1006744D01*
X71771Y1007071D01*
X71949Y1007393D01*
X72134Y1007712D01*
X72327Y1008025D01*
X72528Y1008334D01*
X72736Y1008637D01*
X72952Y1008935D01*
X73175Y1009228D01*
X73405Y1009516D01*
X73642Y1009798D01*
X73886Y1010073D01*
X74136Y1010343D01*
X74393Y1010607D01*
X74657Y1010864D01*
X74927Y1011114D01*
X75202Y1011358D01*
X75484Y1011595D01*
X75772Y1011825D01*
X76065Y1012048D01*
X76363Y1012264D01*
X76666Y1012472D01*
X76975Y1012673D01*
X77288Y1012866D01*
X77607Y1013051D01*
X77929Y1013229D01*
X78256Y1013398D01*
X78587Y1013560D01*
X78921Y1013713D01*
X79260Y1013858D01*
X79602Y1013995D01*
X79947Y1014123D01*
X80295Y1014243D01*
X80646Y1014354D01*
X80999Y1014457D01*
X81355Y1014550D01*
X81713Y1014636D01*
X82074Y1014712D01*
X82436Y1014779D01*
X82799Y1014838D01*
X83164Y1014887D01*
X83530Y1014928D01*
X83897Y1014959D01*
X84264Y1014982D01*
X84632Y1014995D01*
X85000Y1015000D01*
X85368Y1014995D01*
X85736Y1014982D01*
X86103Y1014959D01*
X86470Y1014928D01*
X86836Y1014887D01*
X87201Y1014838D01*
X87564Y1014779D01*
X87926Y1014712D01*
X88287Y1014636D01*
X88645Y1014550D01*
X89001Y1014457D01*
X89354Y1014354D01*
X89705Y1014243D01*
X90053Y1014123D01*
X90398Y1013995D01*
X90740Y1013858D01*
X91079Y1013713D01*
X91413Y1013560D01*
X91744Y1013398D01*
X92071Y1013229D01*
X92393Y1013051D01*
X92712Y1012866D01*
X93025Y1012673D01*
X93334Y1012472D01*
X93637Y1012264D01*
X93935Y1012048D01*
X94228Y1011825D01*
X94516Y1011595D01*
X94798Y1011358D01*
X95073Y1011114D01*
X95343Y1010864D01*
X95607Y1010607D01*
X95864Y1010343D01*
X96114Y1010073D01*
X96358Y1009798D01*
X96595Y1009516D01*
X96825Y1009228D01*
X97048Y1008935D01*
X97264Y1008637D01*
X97472Y1008334D01*
X97673Y1008025D01*
X97866Y1007712D01*
X98051Y1007393D01*
X98229Y1007071D01*
X98398Y1006744D01*
X98560Y1006413D01*
X98713Y1006079D01*
X98858Y1005740D01*
X98995Y1005398D01*
X99123Y1005053D01*
X99243Y1004705D01*
X99354Y1004354D01*
X99457Y1004001D01*
X99550Y1003645D01*
X99636Y1003287D01*
X99712Y1002926D01*
X99779Y1002564D01*
X99838Y1002201D01*
X99887Y1001836D01*
X99928Y1001470D01*
X99959Y1001103D01*
X99982Y1000736D01*
X99995Y1000368D01*
X100000Y1000000D01*
X99995Y999632D01*
X99982Y999264D01*
X99959Y998897D01*
X99928Y998530D01*
X99887Y998164D01*
X99838Y997799D01*
X99779Y997436D01*
X99712Y997074D01*
X99636Y996713D01*
X99550Y996355D01*
X99457Y995999D01*
X99354Y995646D01*
X99243Y995295D01*
X99123Y994947D01*
X98995Y994602D01*
X98858Y994260D01*
X98713Y993921D01*
X98560Y993587D01*
X98398Y993256D01*
X98229Y992929D01*
X98051Y992607D01*
X97866Y992288D01*
X97673Y991975D01*
X97472Y991666D01*
X97264Y991363D01*
X97048Y991065D01*
X96825Y990772D01*
X96595Y990484D01*
X96358Y990202D01*
X96114Y989927D01*
X95864Y989657D01*
X95607Y989393D01*
X95343Y989136D01*
X95073Y988886D01*
X94798Y988642D01*
X94516Y988405D01*
X94228Y988175D01*
X93935Y987952D01*
X93637Y987736D01*
X93334Y987528D01*
X93025Y987327D01*
X92712Y987134D01*
X92393Y986949D01*
X92071Y986771D01*
X91744Y986602D01*
X91413Y986440D01*
X91079Y986287D01*
X90740Y986142D01*
X90398Y986005D01*
X90053Y985877D01*
X89705Y985757D01*
X89354Y985646D01*
X89001Y985543D01*
X88645Y985450D01*
X88287Y985364D01*
X87926Y985288D01*
X87564Y985221D01*
X87201Y985162D01*
X86836Y985113D01*
X86470Y985072D01*
X86103Y985041D01*
X85736Y985018D01*
X85368Y985005D01*
X85000Y985000D01*
X84632Y985005D01*
X84264Y985018D01*
X83897Y985041D01*
X83530Y985072D01*
X83164Y985113D01*
X82799Y985162D01*
X82436Y985221D01*
X82074Y985288D01*
X81713Y985364D01*
X81355Y985450D01*
X80999Y985543D01*
X80646Y985646D01*
X80295Y985757D01*
X79947Y985877D01*
X79602Y986005D01*
X79260Y986142D01*
X78921Y986287D01*
X78587Y986440D01*
X78256Y986602D01*
X77929Y986771D01*
X77607Y986949D01*
X77288Y987134D01*
X76975Y987327D01*
X76666Y987528D01*
X76363Y987736D01*
X76065Y987952D01*
X75772Y988175D01*
X75484Y988405D01*
X75202Y988642D01*
X74927Y988886D01*
X74657Y989136D01*
X74393Y989393D01*
X74136Y989657D01*
X73886Y989927D01*
X73642Y990202D01*
X73405Y990484D01*
X73175Y990772D01*
X72952Y991065D01*
X72736Y991363D01*
X72528Y991666D01*
X72327Y991975D01*
X72134Y992288D01*
X71949Y992607D01*
X71771Y992929D01*
X71602Y993256D01*
X71440Y993587D01*
X71287Y993921D01*
X71142Y994260D01*
X71005Y994602D01*
X70877Y994947D01*
X70757Y995295D01*
X70646Y995646D01*
X70543Y995999D01*
X70450Y996355D01*
X70364Y996713D01*
X70288Y997074D01*
X70221Y997436D01*
X70162Y997799D01*
X70113Y998164D01*
X70072Y998530D01*
X70041Y998897D01*
X70018Y999264D01*
X70005Y999632D01*
X70000Y1000000D01*
M02*
